G04 #@! TF.GenerationSoftware,KiCad,Pcbnew,9.0.3*
G04 #@! TF.CreationDate,2025-07-25T13:43:52-04:00*
G04 #@! TF.ProjectId,hyperbloom_controller,68797065-7262-46c6-9f6f-6d5f636f6e74,rev?*
G04 #@! TF.SameCoordinates,Original*
G04 #@! TF.FileFunction,Soldermask,Bot*
G04 #@! TF.FilePolarity,Negative*
%FSLAX46Y46*%
G04 Gerber Fmt 4.6, Leading zero omitted, Abs format (unit mm)*
G04 Created by KiCad (PCBNEW 9.0.3) date 2025-07-25 13:43:52*
%MOMM*%
%LPD*%
G01*
G04 APERTURE LIST*
G04 Aperture macros list*
%AMRoundRect*
0 Rectangle with rounded corners*
0 $1 Rounding radius*
0 $2 $3 $4 $5 $6 $7 $8 $9 X,Y pos of 4 corners*
0 Add a 4 corners polygon primitive as box body*
4,1,4,$2,$3,$4,$5,$6,$7,$8,$9,$2,$3,0*
0 Add four circle primitives for the rounded corners*
1,1,$1+$1,$2,$3*
1,1,$1+$1,$4,$5*
1,1,$1+$1,$6,$7*
1,1,$1+$1,$8,$9*
0 Add four rect primitives between the rounded corners*
20,1,$1+$1,$2,$3,$4,$5,0*
20,1,$1+$1,$4,$5,$6,$7,0*
20,1,$1+$1,$6,$7,$8,$9,0*
20,1,$1+$1,$8,$9,$2,$3,0*%
%AMFreePoly0*
4,1,37,0.603843,0.796157,0.639018,0.796157,0.711114,0.766294,0.766294,0.711114,0.796157,0.639018,0.796157,0.603843,0.800000,0.600000,0.800000,-0.600000,0.796157,-0.603843,0.796157,-0.639018,0.766294,-0.711114,0.711114,-0.766294,0.639018,-0.796157,0.603843,-0.796157,0.600000,-0.800000,0.000000,-0.800000,0.000000,-0.796148,-0.078414,-0.796148,-0.232228,-0.765552,-0.377117,-0.705537,
-0.507515,-0.618408,-0.618408,-0.507515,-0.705537,-0.377117,-0.765552,-0.232228,-0.796148,-0.078414,-0.796148,0.078414,-0.765552,0.232228,-0.705537,0.377117,-0.618408,0.507515,-0.507515,0.618408,-0.377117,0.705537,-0.232228,0.765552,-0.078414,0.796148,0.000000,0.796148,0.000000,0.800000,0.600000,0.800000,0.603843,0.796157,0.603843,0.796157,$1*%
%AMFreePoly1*
4,1,37,0.000000,0.796148,0.078414,0.796148,0.232228,0.765552,0.377117,0.705537,0.507515,0.618408,0.618408,0.507515,0.705537,0.377117,0.765552,0.232228,0.796148,0.078414,0.796148,-0.078414,0.765552,-0.232228,0.705537,-0.377117,0.618408,-0.507515,0.507515,-0.618408,0.377117,-0.705537,0.232228,-0.765552,0.078414,-0.796148,0.000000,-0.796148,0.000000,-0.800000,-0.600000,-0.800000,
-0.603843,-0.796157,-0.639018,-0.796157,-0.711114,-0.766294,-0.766294,-0.711114,-0.796157,-0.639018,-0.796157,-0.603843,-0.800000,-0.600000,-0.800000,0.600000,-0.796157,0.603843,-0.796157,0.639018,-0.766294,0.711114,-0.711114,0.766294,-0.639018,0.796157,-0.603843,0.796157,-0.600000,0.800000,0.000000,0.800000,0.000000,0.796148,0.000000,0.796148,$1*%
G04 Aperture macros list end*
%ADD10R,1.700000X1.700000*%
%ADD11C,1.700000*%
%ADD12C,2.200000*%
%ADD13C,1.850000*%
%ADD14RoundRect,0.200000X-0.600000X-0.600000X0.600000X-0.600000X0.600000X0.600000X-0.600000X0.600000X0*%
%ADD15C,1.600000*%
%ADD16FreePoly0,0.000000*%
%ADD17FreePoly1,0.000000*%
%ADD18C,2.050000*%
%ADD19C,2.250000*%
G04 APERTURE END LIST*
D10*
X127250000Y-77370000D03*
D11*
X127250000Y-79910000D03*
X127250000Y-82450000D03*
X127250000Y-84990000D03*
X127250000Y-87530000D03*
X127250000Y-90070000D03*
X127250000Y-92610000D03*
X127250000Y-95150000D03*
X127250000Y-97690000D03*
X127250000Y-100230000D03*
X127250000Y-102770000D03*
X127250000Y-105310000D03*
X127250000Y-107850000D03*
X127250000Y-110390000D03*
X127250000Y-112930000D03*
X127250000Y-115470000D03*
X127250000Y-118010000D03*
X127250000Y-120550000D03*
X127250000Y-123090000D03*
X127250000Y-125630000D03*
D12*
X138725000Y-77500000D03*
D13*
X139025000Y-80530000D03*
X143875000Y-80530000D03*
D12*
X144175000Y-77500000D03*
D14*
X132560000Y-77370000D03*
D15*
X132560000Y-79910000D03*
D16*
X132560000Y-82450000D03*
D15*
X132560000Y-84990000D03*
X132560000Y-87530000D03*
X132560000Y-90070000D03*
X132560000Y-92610000D03*
D16*
X132560000Y-95150000D03*
D15*
X132560000Y-97690000D03*
X132560000Y-100230000D03*
X132560000Y-102770000D03*
X132560000Y-105310000D03*
D16*
X132560000Y-107850000D03*
D15*
X132560000Y-110390000D03*
X132560000Y-112930000D03*
X132560000Y-115470000D03*
X132560000Y-118010000D03*
D16*
X132560000Y-120550000D03*
D15*
X132560000Y-123090000D03*
X132560000Y-125630000D03*
X150340000Y-125630000D03*
X150340000Y-123090000D03*
D17*
X150340000Y-120550000D03*
D15*
X150340000Y-118010000D03*
X150340000Y-115470000D03*
X150340000Y-112930000D03*
X150340000Y-110390000D03*
D17*
X150340000Y-107850000D03*
D15*
X150340000Y-105310000D03*
X150340000Y-102770000D03*
X150340000Y-100230000D03*
X150340000Y-97690000D03*
D17*
X150340000Y-95150000D03*
D15*
X150340000Y-92610000D03*
X150340000Y-90070000D03*
X150340000Y-87530000D03*
X150340000Y-84990000D03*
D17*
X150340000Y-82450000D03*
D15*
X150340000Y-79910000D03*
X150340000Y-77370000D03*
D10*
X155340000Y-125630000D03*
D11*
X155340000Y-123090000D03*
X155340000Y-120550000D03*
X155340000Y-118010000D03*
X155340000Y-115470000D03*
X155340000Y-112930000D03*
X155340000Y-110390000D03*
X155340000Y-107850000D03*
X155340000Y-105310000D03*
X155340000Y-102770000D03*
X155340000Y-100230000D03*
X155340000Y-97690000D03*
X155340000Y-95150000D03*
X155340000Y-92610000D03*
X155340000Y-90070000D03*
X155340000Y-87530000D03*
X155340000Y-84990000D03*
X155340000Y-82450000D03*
X155340000Y-79910000D03*
X155340000Y-77370000D03*
D10*
X172210000Y-86110000D03*
D11*
X172210000Y-88650000D03*
X172210000Y-91190000D03*
X172210000Y-93730000D03*
D10*
X164710000Y-86110000D03*
D11*
X164710000Y-88650000D03*
X164710000Y-91190000D03*
X164710000Y-93730000D03*
D10*
X168460000Y-86110000D03*
D11*
X168460000Y-88650000D03*
X168460000Y-91190000D03*
X168460000Y-93730000D03*
D18*
X168460000Y-101380000D03*
D19*
X165920000Y-98840000D03*
X165920000Y-103920000D03*
X171000000Y-98840000D03*
X171000000Y-103920000D03*
M02*
