M48
; DRILL file {KiCad 9.0.3} date 2025-07-25T13:43:56-0400
; FORMAT={-:-/ absolute / metric / decimal}
; #@! TF.CreationDate,2025-07-25T13:43:56-04:00
; #@! TF.GenerationSoftware,Kicad,Pcbnew,9.0.3
; #@! TF.FileFunction,Plated,1,2,PTH
FMAT,2
METRIC
; #@! TA.AperFunction,Plated,PTH,ViaDrill
T1C0.300
; #@! TA.AperFunction,Plated,PTH,ComponentDrill
T2C1.000
; #@! TA.AperFunction,Plated,PTH,ComponentDrill
T3C1.500
; #@! TA.AperFunction,Plated,PTH,ComponentDrill
T4C1.700
%
G90
G05
T1
X123.95Y-77.0
X137.7Y-84.019
X137.95Y-94.0
X137.95Y-104.0
X137.95Y-114.0
X147.95Y-84.0
X147.95Y-104.0
X147.95Y-114.0
X160.95Y-101.5
X160.95Y-104.0
X160.95Y-106.5
X160.95Y-109.0
X160.95Y-111.5
X160.95Y-114.0
X160.95Y-116.5
X160.95Y-119.0
X160.95Y-121.5
X162.95Y-115.9
X162.95Y-118.1
X163.45Y-96.5
X163.45Y-99.0
X163.45Y-101.5
X163.5Y-83.5
X163.95Y-77.0
X163.95Y-104.0
X163.95Y-111.5
X163.95Y-114.0
X165.95Y-106.5
X165.95Y-109.0
X165.95Y-111.5
X165.95Y-114.0
X165.95Y-124.0
X165.95Y-126.5
X166.0Y-83.5
X166.0Y-96.5
X168.45Y-116.5
X168.45Y-119.0
X168.45Y-121.5
X168.45Y-124.0
X168.45Y-126.5
X168.5Y-83.5
X170.95Y-106.5
X170.95Y-109.0
X170.95Y-111.5
X170.95Y-114.0
X170.95Y-116.5
X170.95Y-119.0
X170.95Y-121.5
X170.95Y-124.0
X170.95Y-126.5
X171.0Y-83.5
X171.0Y-96.5
X173.5Y-83.5
X173.5Y-96.5
X173.5Y-99.0
X173.5Y-101.5
X173.5Y-104.0
X173.5Y-106.5
T2
X127.25Y-77.37
X127.25Y-79.91
X127.25Y-82.45
X127.25Y-84.99
X127.25Y-87.53
X127.25Y-90.07
X127.25Y-92.61
X127.25Y-95.15
X127.25Y-97.69
X127.25Y-100.23
X127.25Y-102.77
X127.25Y-105.31
X127.25Y-107.85
X127.25Y-110.39
X127.25Y-112.93
X127.25Y-115.47
X127.25Y-118.01
X127.25Y-120.55
X127.25Y-123.09
X127.25Y-125.63
X132.56Y-77.37
X132.56Y-79.91
X132.56Y-82.45
X132.56Y-84.99
X132.56Y-87.53
X132.56Y-90.07
X132.56Y-92.61
X132.56Y-95.15
X132.56Y-97.69
X132.56Y-100.23
X132.56Y-102.77
X132.56Y-105.31
X132.56Y-107.85
X132.56Y-110.39
X132.56Y-112.93
X132.56Y-115.47
X132.56Y-118.01
X132.56Y-120.55
X132.56Y-123.09
X132.56Y-125.63
X150.34Y-77.37
X150.34Y-79.91
X150.34Y-82.45
X150.34Y-84.99
X150.34Y-87.53
X150.34Y-90.07
X150.34Y-92.61
X150.34Y-95.15
X150.34Y-97.69
X150.34Y-100.23
X150.34Y-102.77
X150.34Y-105.31
X150.34Y-107.85
X150.34Y-110.39
X150.34Y-112.93
X150.34Y-115.47
X150.34Y-118.01
X150.34Y-120.55
X150.34Y-123.09
X150.34Y-125.63
X155.34Y-77.37
X155.34Y-79.91
X155.34Y-82.45
X155.34Y-84.99
X155.34Y-87.53
X155.34Y-90.07
X155.34Y-92.61
X155.34Y-95.15
X155.34Y-97.69
X155.34Y-100.23
X155.34Y-102.77
X155.34Y-105.31
X155.34Y-107.85
X155.34Y-110.39
X155.34Y-112.93
X155.34Y-115.47
X155.34Y-118.01
X155.34Y-120.55
X155.34Y-123.09
X155.34Y-125.63
X164.71Y-86.11
X164.71Y-88.65
X164.71Y-91.19
X164.71Y-93.73
X168.46Y-86.11
X168.46Y-88.65
X168.46Y-91.19
X168.46Y-93.73
X172.21Y-86.11
X172.21Y-88.65
X172.21Y-91.19
X172.21Y-93.73
T3
X168.46Y-101.38
T4
X165.92Y-98.84
X165.92Y-103.92
X171.0Y-98.84
X171.0Y-103.92
M30
