G04 #@! TF.GenerationSoftware,KiCad,Pcbnew,9.0.3*
G04 #@! TF.CreationDate,2025-07-25T13:43:51-04:00*
G04 #@! TF.ProjectId,hyperbloom_controller,68797065-7262-46c6-9f6f-6d5f636f6e74,rev?*
G04 #@! TF.SameCoordinates,Original*
G04 #@! TF.FileFunction,Copper,L2,Bot*
G04 #@! TF.FilePolarity,Positive*
%FSLAX46Y46*%
G04 Gerber Fmt 4.6, Leading zero omitted, Abs format (unit mm)*
G04 Created by KiCad (PCBNEW 9.0.3) date 2025-07-25 13:43:51*
%MOMM*%
%LPD*%
G01*
G04 APERTURE LIST*
G04 Aperture macros list*
%AMRoundRect*
0 Rectangle with rounded corners*
0 $1 Rounding radius*
0 $2 $3 $4 $5 $6 $7 $8 $9 X,Y pos of 4 corners*
0 Add a 4 corners polygon primitive as box body*
4,1,4,$2,$3,$4,$5,$6,$7,$8,$9,$2,$3,0*
0 Add four circle primitives for the rounded corners*
1,1,$1+$1,$2,$3*
1,1,$1+$1,$4,$5*
1,1,$1+$1,$6,$7*
1,1,$1+$1,$8,$9*
0 Add four rect primitives between the rounded corners*
20,1,$1+$1,$2,$3,$4,$5,0*
20,1,$1+$1,$4,$5,$6,$7,0*
20,1,$1+$1,$6,$7,$8,$9,0*
20,1,$1+$1,$8,$9,$2,$3,0*%
%AMFreePoly0*
4,1,37,0.603843,0.796157,0.639018,0.796157,0.711114,0.766294,0.766294,0.711114,0.796157,0.639018,0.796157,0.603843,0.800000,0.600000,0.800000,-0.600000,0.796157,-0.603843,0.796157,-0.639018,0.766294,-0.711114,0.711114,-0.766294,0.639018,-0.796157,0.603843,-0.796157,0.600000,-0.800000,0.000000,-0.800000,0.000000,-0.796148,-0.078414,-0.796148,-0.232228,-0.765552,-0.377117,-0.705537,
-0.507515,-0.618408,-0.618408,-0.507515,-0.705537,-0.377117,-0.765552,-0.232228,-0.796148,-0.078414,-0.796148,0.078414,-0.765552,0.232228,-0.705537,0.377117,-0.618408,0.507515,-0.507515,0.618408,-0.377117,0.705537,-0.232228,0.765552,-0.078414,0.796148,0.000000,0.796148,0.000000,0.800000,0.600000,0.800000,0.603843,0.796157,0.603843,0.796157,$1*%
%AMFreePoly1*
4,1,37,0.000000,0.796148,0.078414,0.796148,0.232228,0.765552,0.377117,0.705537,0.507515,0.618408,0.618408,0.507515,0.705537,0.377117,0.765552,0.232228,0.796148,0.078414,0.796148,-0.078414,0.765552,-0.232228,0.705537,-0.377117,0.618408,-0.507515,0.507515,-0.618408,0.377117,-0.705537,0.232228,-0.765552,0.078414,-0.796148,0.000000,-0.796148,0.000000,-0.800000,-0.600000,-0.800000,
-0.603843,-0.796157,-0.639018,-0.796157,-0.711114,-0.766294,-0.766294,-0.711114,-0.796157,-0.639018,-0.796157,-0.603843,-0.800000,-0.600000,-0.800000,0.600000,-0.796157,0.603843,-0.796157,0.639018,-0.766294,0.711114,-0.711114,0.766294,-0.639018,0.796157,-0.603843,0.796157,-0.600000,0.800000,0.000000,0.800000,0.000000,0.796148,0.000000,0.796148,$1*%
G04 Aperture macros list end*
G04 #@! TA.AperFunction,ComponentPad*
%ADD10R,1.700000X1.700000*%
G04 #@! TD*
G04 #@! TA.AperFunction,ComponentPad*
%ADD11C,1.700000*%
G04 #@! TD*
G04 #@! TA.AperFunction,ComponentPad*
%ADD12RoundRect,0.200000X-0.600000X-0.600000X0.600000X-0.600000X0.600000X0.600000X-0.600000X0.600000X0*%
G04 #@! TD*
G04 #@! TA.AperFunction,ComponentPad*
%ADD13C,1.600000*%
G04 #@! TD*
G04 #@! TA.AperFunction,ComponentPad*
%ADD14FreePoly0,0.000000*%
G04 #@! TD*
G04 #@! TA.AperFunction,ComponentPad*
%ADD15FreePoly1,0.000000*%
G04 #@! TD*
G04 #@! TA.AperFunction,ComponentPad*
%ADD16C,2.050000*%
G04 #@! TD*
G04 #@! TA.AperFunction,ComponentPad*
%ADD17C,2.250000*%
G04 #@! TD*
G04 #@! TA.AperFunction,ViaPad*
%ADD18C,0.600000*%
G04 #@! TD*
G04 #@! TA.AperFunction,Conductor*
%ADD19C,0.250000*%
G04 #@! TD*
G04 APERTURE END LIST*
D10*
X127250000Y-77370000D03*
D11*
X127250000Y-79910000D03*
X127250000Y-82450000D03*
X127250000Y-84990000D03*
X127250000Y-87530000D03*
X127250000Y-90070000D03*
X127250000Y-92610000D03*
X127250000Y-95150000D03*
X127250000Y-97690000D03*
X127250000Y-100230000D03*
X127250000Y-102770000D03*
X127250000Y-105310000D03*
X127250000Y-107850000D03*
X127250000Y-110390000D03*
X127250000Y-112930000D03*
X127250000Y-115470000D03*
X127250000Y-118010000D03*
X127250000Y-120550000D03*
X127250000Y-123090000D03*
X127250000Y-125630000D03*
D12*
X132560000Y-77370000D03*
D13*
X132560000Y-79910000D03*
D14*
X132560000Y-82450000D03*
D13*
X132560000Y-84990000D03*
X132560000Y-87530000D03*
X132560000Y-90070000D03*
X132560000Y-92610000D03*
D14*
X132560000Y-95150000D03*
D13*
X132560000Y-97690000D03*
X132560000Y-100230000D03*
X132560000Y-102770000D03*
X132560000Y-105310000D03*
D14*
X132560000Y-107850000D03*
D13*
X132560000Y-110390000D03*
X132560000Y-112930000D03*
X132560000Y-115470000D03*
X132560000Y-118010000D03*
D14*
X132560000Y-120550000D03*
D13*
X132560000Y-123090000D03*
X132560000Y-125630000D03*
X150340000Y-125630000D03*
X150340000Y-123090000D03*
D15*
X150340000Y-120550000D03*
D13*
X150340000Y-118010000D03*
X150340000Y-115470000D03*
X150340000Y-112930000D03*
X150340000Y-110390000D03*
D15*
X150340000Y-107850000D03*
D13*
X150340000Y-105310000D03*
X150340000Y-102770000D03*
X150340000Y-100230000D03*
X150340000Y-97690000D03*
D15*
X150340000Y-95150000D03*
D13*
X150340000Y-92610000D03*
X150340000Y-90070000D03*
X150340000Y-87530000D03*
X150340000Y-84990000D03*
D15*
X150340000Y-82450000D03*
D13*
X150340000Y-79910000D03*
X150340000Y-77370000D03*
D10*
X155340000Y-125630000D03*
D11*
X155340000Y-123090000D03*
X155340000Y-120550000D03*
X155340000Y-118010000D03*
X155340000Y-115470000D03*
X155340000Y-112930000D03*
X155340000Y-110390000D03*
X155340000Y-107850000D03*
X155340000Y-105310000D03*
X155340000Y-102770000D03*
X155340000Y-100230000D03*
X155340000Y-97690000D03*
X155340000Y-95150000D03*
X155340000Y-92610000D03*
X155340000Y-90070000D03*
X155340000Y-87530000D03*
X155340000Y-84990000D03*
X155340000Y-82450000D03*
X155340000Y-79910000D03*
X155340000Y-77370000D03*
D10*
X172210000Y-86110000D03*
D11*
X172210000Y-88650000D03*
X172210000Y-91190000D03*
X172210000Y-93730000D03*
D10*
X164710000Y-86110000D03*
D11*
X164710000Y-88650000D03*
X164710000Y-91190000D03*
X164710000Y-93730000D03*
D10*
X168460000Y-86110000D03*
D11*
X168460000Y-88650000D03*
X168460000Y-91190000D03*
X168460000Y-93730000D03*
D16*
X168460000Y-101380000D03*
D17*
X165920000Y-98840000D03*
X165920000Y-103920000D03*
X171000000Y-98840000D03*
X171000000Y-103920000D03*
D18*
X147950000Y-114000000D03*
X163450000Y-101500000D03*
X160950000Y-109000000D03*
X173500000Y-83500000D03*
X173500000Y-101500000D03*
X160950000Y-101500000D03*
X147950000Y-84000000D03*
X166000000Y-96500000D03*
X165950000Y-126500000D03*
X163950000Y-77000000D03*
X171000000Y-83500000D03*
X137950000Y-94000000D03*
X160950000Y-116500000D03*
X170950000Y-106500000D03*
X165950000Y-124000000D03*
X163450000Y-99000000D03*
X173500000Y-99000000D03*
X173500000Y-106500000D03*
X163950000Y-104000000D03*
X170950000Y-111500000D03*
X123950000Y-77000000D03*
X163950000Y-111500000D03*
X170950000Y-119000000D03*
X168500000Y-83500000D03*
X165950000Y-109000000D03*
X160950000Y-121500000D03*
X147950000Y-104000000D03*
X168450000Y-116500000D03*
X137950000Y-104000000D03*
X166000000Y-83500000D03*
X163950000Y-114000000D03*
X170950000Y-114000000D03*
X165950000Y-114000000D03*
X173500000Y-104000000D03*
X168450000Y-124000000D03*
X160950000Y-104000000D03*
X137700000Y-84019443D03*
X170950000Y-124000000D03*
X165950000Y-111500000D03*
X137950000Y-114000000D03*
X163500000Y-83500000D03*
X170950000Y-116500000D03*
X171000000Y-96500000D03*
X168450000Y-121500000D03*
X160950000Y-114000000D03*
X170950000Y-121500000D03*
X170950000Y-109000000D03*
X163450000Y-96500000D03*
X173500000Y-96500000D03*
X165950000Y-106500000D03*
X168450000Y-126500000D03*
X170950000Y-126500000D03*
X160950000Y-119000000D03*
X160950000Y-111500000D03*
X160950000Y-106500000D03*
X168450000Y-119000000D03*
X162950000Y-115900000D03*
X162950000Y-118100000D03*
D19*
X162950000Y-118100000D02*
X162950000Y-115900000D01*
G04 #@! TA.AperFunction,Conductor*
G36*
X174442539Y-74520185D02*
G01*
X174488294Y-74572989D01*
X174499500Y-74624500D01*
X174499500Y-127375500D01*
X174479815Y-127442539D01*
X174427011Y-127488294D01*
X174375500Y-127499500D01*
X143974000Y-127499500D01*
X143906961Y-127479815D01*
X143861206Y-127427011D01*
X143850000Y-127375500D01*
X143850000Y-126550597D01*
X143869685Y-126483558D01*
X143897941Y-126452664D01*
X148550000Y-122839895D01*
X148550000Y-118500000D01*
X134350000Y-118500000D01*
X134350000Y-122839895D01*
X139002057Y-126452663D01*
X139042931Y-126509327D01*
X139050000Y-126550597D01*
X139050000Y-127375500D01*
X139030315Y-127442539D01*
X138977511Y-127488294D01*
X138926000Y-127499500D01*
X121624500Y-127499500D01*
X121557461Y-127479815D01*
X121511706Y-127427011D01*
X121500500Y-127375500D01*
X121500500Y-76472135D01*
X125899500Y-76472135D01*
X125899500Y-78267870D01*
X125899501Y-78267876D01*
X125905908Y-78327483D01*
X125956202Y-78462328D01*
X125956206Y-78462335D01*
X126042452Y-78577544D01*
X126042455Y-78577547D01*
X126157664Y-78663793D01*
X126157671Y-78663797D01*
X126289082Y-78712810D01*
X126345016Y-78754681D01*
X126369433Y-78820145D01*
X126354582Y-78888418D01*
X126333431Y-78916673D01*
X126219889Y-79030215D01*
X126094951Y-79202179D01*
X125998444Y-79391585D01*
X125932753Y-79593760D01*
X125899500Y-79803713D01*
X125899500Y-80016286D01*
X125930899Y-80214535D01*
X125932754Y-80226243D01*
X125942011Y-80254734D01*
X125998444Y-80428414D01*
X126094951Y-80617820D01*
X126219890Y-80789786D01*
X126370213Y-80940109D01*
X126542179Y-81065048D01*
X126542181Y-81065049D01*
X126542184Y-81065051D01*
X126551493Y-81069794D01*
X126602290Y-81117766D01*
X126619087Y-81185587D01*
X126596552Y-81251722D01*
X126551505Y-81290760D01*
X126542446Y-81295376D01*
X126542440Y-81295380D01*
X126488282Y-81334727D01*
X126488282Y-81334728D01*
X127120591Y-81967037D01*
X127057007Y-81984075D01*
X126942993Y-82049901D01*
X126849901Y-82142993D01*
X126784075Y-82257007D01*
X126767037Y-82320591D01*
X126134728Y-81688282D01*
X126134727Y-81688282D01*
X126095380Y-81742439D01*
X125998904Y-81931782D01*
X125933242Y-82133869D01*
X125933242Y-82133872D01*
X125900000Y-82343753D01*
X125900000Y-82556246D01*
X125933242Y-82766127D01*
X125933242Y-82766130D01*
X125998904Y-82968217D01*
X126095375Y-83157550D01*
X126134728Y-83211716D01*
X126767037Y-82579408D01*
X126784075Y-82642993D01*
X126849901Y-82757007D01*
X126942993Y-82850099D01*
X127057007Y-82915925D01*
X127120590Y-82932962D01*
X126488282Y-83565269D01*
X126488282Y-83565270D01*
X126542452Y-83604626D01*
X126542451Y-83604626D01*
X126551495Y-83609234D01*
X126602292Y-83657208D01*
X126619087Y-83725029D01*
X126596550Y-83791164D01*
X126551499Y-83830202D01*
X126542182Y-83834949D01*
X126370213Y-83959890D01*
X126219890Y-84110213D01*
X126094951Y-84282179D01*
X125998444Y-84471585D01*
X125932753Y-84673760D01*
X125899500Y-84883713D01*
X125899500Y-85096286D01*
X125932753Y-85306239D01*
X125998444Y-85508414D01*
X126094951Y-85697820D01*
X126219890Y-85869786D01*
X126370213Y-86020109D01*
X126542182Y-86145050D01*
X126550946Y-86149516D01*
X126601742Y-86197491D01*
X126618536Y-86265312D01*
X126595998Y-86331447D01*
X126550946Y-86370484D01*
X126542182Y-86374949D01*
X126370213Y-86499890D01*
X126219890Y-86650213D01*
X126094951Y-86822179D01*
X125998444Y-87011585D01*
X125932753Y-87213760D01*
X125916315Y-87317546D01*
X125899500Y-87423713D01*
X125899500Y-87636287D01*
X125932754Y-87846243D01*
X125964013Y-87942449D01*
X125998444Y-88048414D01*
X126094951Y-88237820D01*
X126219890Y-88409786D01*
X126370213Y-88560109D01*
X126542182Y-88685050D01*
X126550946Y-88689516D01*
X126601742Y-88737491D01*
X126618536Y-88805312D01*
X126595998Y-88871447D01*
X126550946Y-88910484D01*
X126542182Y-88914949D01*
X126370213Y-89039890D01*
X126219890Y-89190213D01*
X126094951Y-89362179D01*
X125998444Y-89551585D01*
X125932753Y-89753760D01*
X125905582Y-89925312D01*
X125899500Y-89963713D01*
X125899500Y-90176287D01*
X125932754Y-90386243D01*
X125964013Y-90482449D01*
X125998444Y-90588414D01*
X126094951Y-90777820D01*
X126219890Y-90949786D01*
X126370213Y-91100109D01*
X126542182Y-91225050D01*
X126550946Y-91229516D01*
X126601742Y-91277491D01*
X126618536Y-91345312D01*
X126595998Y-91411447D01*
X126550946Y-91450484D01*
X126542182Y-91454949D01*
X126370213Y-91579890D01*
X126219890Y-91730213D01*
X126094951Y-91902179D01*
X125998444Y-92091585D01*
X125932753Y-92293760D01*
X125905582Y-92465312D01*
X125899500Y-92503713D01*
X125899500Y-92716287D01*
X125932754Y-92926243D01*
X125964013Y-93022449D01*
X125998444Y-93128414D01*
X126094951Y-93317820D01*
X126219890Y-93489786D01*
X126370213Y-93640109D01*
X126542179Y-93765048D01*
X126542181Y-93765049D01*
X126542184Y-93765051D01*
X126551493Y-93769794D01*
X126602290Y-93817766D01*
X126619087Y-93885587D01*
X126596552Y-93951722D01*
X126551505Y-93990760D01*
X126542446Y-93995376D01*
X126542440Y-93995380D01*
X126488282Y-94034727D01*
X126488282Y-94034728D01*
X127120591Y-94667037D01*
X127057007Y-94684075D01*
X126942993Y-94749901D01*
X126849901Y-94842993D01*
X126784075Y-94957007D01*
X126767037Y-95020591D01*
X126134728Y-94388282D01*
X126134727Y-94388282D01*
X126095380Y-94442439D01*
X125998904Y-94631782D01*
X125933242Y-94833869D01*
X125933242Y-94833872D01*
X125900000Y-95043753D01*
X125900000Y-95256246D01*
X125933242Y-95466127D01*
X125933242Y-95466130D01*
X125998904Y-95668217D01*
X126095375Y-95857550D01*
X126134728Y-95911716D01*
X126767037Y-95279408D01*
X126784075Y-95342993D01*
X126849901Y-95457007D01*
X126942993Y-95550099D01*
X127057007Y-95615925D01*
X127120590Y-95632962D01*
X126488282Y-96265269D01*
X126488282Y-96265270D01*
X126542452Y-96304626D01*
X126542451Y-96304626D01*
X126551495Y-96309234D01*
X126602292Y-96357208D01*
X126619087Y-96425029D01*
X126596550Y-96491164D01*
X126551499Y-96530202D01*
X126542182Y-96534949D01*
X126370213Y-96659890D01*
X126219890Y-96810213D01*
X126094951Y-96982179D01*
X125998444Y-97171585D01*
X125932753Y-97373760D01*
X125899500Y-97583713D01*
X125899500Y-97796286D01*
X125929913Y-97988310D01*
X125932754Y-98006243D01*
X125958909Y-98086740D01*
X125998444Y-98208414D01*
X126094951Y-98397820D01*
X126219890Y-98569786D01*
X126370213Y-98720109D01*
X126542182Y-98845050D01*
X126550946Y-98849516D01*
X126601742Y-98897491D01*
X126618536Y-98965312D01*
X126595998Y-99031447D01*
X126550946Y-99070484D01*
X126542182Y-99074949D01*
X126370213Y-99199890D01*
X126219890Y-99350213D01*
X126094951Y-99522179D01*
X125998444Y-99711585D01*
X125932753Y-99913760D01*
X125899500Y-100123713D01*
X125899500Y-100336286D01*
X125932753Y-100546239D01*
X125998444Y-100748414D01*
X126094951Y-100937820D01*
X126219890Y-101109786D01*
X126370213Y-101260109D01*
X126542182Y-101385050D01*
X126550946Y-101389516D01*
X126601742Y-101437491D01*
X126618536Y-101505312D01*
X126595998Y-101571447D01*
X126550946Y-101610484D01*
X126542182Y-101614949D01*
X126370213Y-101739890D01*
X126219890Y-101890213D01*
X126094951Y-102062179D01*
X125998444Y-102251585D01*
X125932753Y-102453760D01*
X125899500Y-102663713D01*
X125899500Y-102876286D01*
X125929913Y-103068310D01*
X125932754Y-103086243D01*
X125958909Y-103166740D01*
X125998444Y-103288414D01*
X126094951Y-103477820D01*
X126219890Y-103649786D01*
X126370213Y-103800109D01*
X126542182Y-103925050D01*
X126550946Y-103929516D01*
X126601742Y-103977491D01*
X126618536Y-104045312D01*
X126595998Y-104111447D01*
X126550946Y-104150484D01*
X126542182Y-104154949D01*
X126370213Y-104279890D01*
X126219890Y-104430213D01*
X126094951Y-104602179D01*
X125998444Y-104791585D01*
X125932753Y-104993760D01*
X125899500Y-105203713D01*
X125899500Y-105416286D01*
X125932753Y-105626239D01*
X125998444Y-105828414D01*
X126094951Y-106017820D01*
X126219890Y-106189786D01*
X126370213Y-106340109D01*
X126542179Y-106465048D01*
X126542181Y-106465049D01*
X126542184Y-106465051D01*
X126551493Y-106469794D01*
X126602290Y-106517766D01*
X126619087Y-106585587D01*
X126596552Y-106651722D01*
X126551505Y-106690760D01*
X126542446Y-106695376D01*
X126542440Y-106695380D01*
X126488282Y-106734727D01*
X126488282Y-106734728D01*
X127120591Y-107367037D01*
X127057007Y-107384075D01*
X126942993Y-107449901D01*
X126849901Y-107542993D01*
X126784075Y-107657007D01*
X126767037Y-107720591D01*
X126134728Y-107088282D01*
X126134727Y-107088282D01*
X126095380Y-107142439D01*
X125998904Y-107331782D01*
X125933242Y-107533869D01*
X125933242Y-107533872D01*
X125900000Y-107743753D01*
X125900000Y-107956246D01*
X125933242Y-108166127D01*
X125933242Y-108166130D01*
X125998904Y-108368217D01*
X126095375Y-108557550D01*
X126134728Y-108611716D01*
X126767037Y-107979408D01*
X126784075Y-108042993D01*
X126849901Y-108157007D01*
X126942993Y-108250099D01*
X127057007Y-108315925D01*
X127120590Y-108332962D01*
X126488282Y-108965269D01*
X126488282Y-108965270D01*
X126542452Y-109004626D01*
X126542451Y-109004626D01*
X126551495Y-109009234D01*
X126602292Y-109057208D01*
X126619087Y-109125029D01*
X126596550Y-109191164D01*
X126551499Y-109230202D01*
X126542182Y-109234949D01*
X126370213Y-109359890D01*
X126219890Y-109510213D01*
X126094951Y-109682179D01*
X125998444Y-109871585D01*
X125932753Y-110073760D01*
X125899500Y-110283713D01*
X125899500Y-110496286D01*
X125932753Y-110706239D01*
X125998444Y-110908414D01*
X126094951Y-111097820D01*
X126219890Y-111269786D01*
X126370213Y-111420109D01*
X126542182Y-111545050D01*
X126550946Y-111549516D01*
X126601742Y-111597491D01*
X126618536Y-111665312D01*
X126595998Y-111731447D01*
X126550946Y-111770484D01*
X126542182Y-111774949D01*
X126370213Y-111899890D01*
X126219890Y-112050213D01*
X126094951Y-112222179D01*
X125998444Y-112411585D01*
X125932753Y-112613760D01*
X125899500Y-112823713D01*
X125899500Y-113036286D01*
X125932753Y-113246239D01*
X125998444Y-113448414D01*
X126094951Y-113637820D01*
X126219890Y-113809786D01*
X126370213Y-113960109D01*
X126542182Y-114085050D01*
X126550946Y-114089516D01*
X126601742Y-114137491D01*
X126618536Y-114205312D01*
X126595998Y-114271447D01*
X126550946Y-114310484D01*
X126542182Y-114314949D01*
X126370213Y-114439890D01*
X126219890Y-114590213D01*
X126094951Y-114762179D01*
X125998444Y-114951585D01*
X125932753Y-115153760D01*
X125926917Y-115190609D01*
X125899500Y-115363713D01*
X125899500Y-115576287D01*
X125932754Y-115786243D01*
X125995334Y-115978844D01*
X125998444Y-115988414D01*
X126094951Y-116177820D01*
X126219890Y-116349786D01*
X126370213Y-116500109D01*
X126542182Y-116625050D01*
X126550946Y-116629516D01*
X126601742Y-116677491D01*
X126618536Y-116745312D01*
X126595998Y-116811447D01*
X126550946Y-116850484D01*
X126542182Y-116854949D01*
X126370213Y-116979890D01*
X126219890Y-117130213D01*
X126094951Y-117302179D01*
X125998444Y-117491585D01*
X125932753Y-117693760D01*
X125905392Y-117866510D01*
X125899500Y-117903713D01*
X125899500Y-118116287D01*
X125932754Y-118326243D01*
X125989211Y-118500000D01*
X125998444Y-118528414D01*
X126094951Y-118717820D01*
X126219890Y-118889786D01*
X126370213Y-119040109D01*
X126542179Y-119165048D01*
X126542181Y-119165049D01*
X126542184Y-119165051D01*
X126551493Y-119169794D01*
X126602290Y-119217766D01*
X126619087Y-119285587D01*
X126596552Y-119351722D01*
X126551505Y-119390760D01*
X126542446Y-119395376D01*
X126542440Y-119395380D01*
X126488282Y-119434727D01*
X126488282Y-119434728D01*
X127120591Y-120067037D01*
X127057007Y-120084075D01*
X126942993Y-120149901D01*
X126849901Y-120242993D01*
X126784075Y-120357007D01*
X126767037Y-120420591D01*
X126134728Y-119788282D01*
X126134727Y-119788282D01*
X126095380Y-119842439D01*
X125998904Y-120031782D01*
X125933242Y-120233869D01*
X125933242Y-120233872D01*
X125900000Y-120443753D01*
X125900000Y-120656246D01*
X125933242Y-120866127D01*
X125933242Y-120866130D01*
X125998904Y-121068217D01*
X126095375Y-121257550D01*
X126134728Y-121311716D01*
X126767037Y-120679408D01*
X126784075Y-120742993D01*
X126849901Y-120857007D01*
X126942993Y-120950099D01*
X127057007Y-121015925D01*
X127120590Y-121032962D01*
X126488282Y-121665269D01*
X126488282Y-121665270D01*
X126542452Y-121704626D01*
X126542451Y-121704626D01*
X126551495Y-121709234D01*
X126602292Y-121757208D01*
X126619087Y-121825029D01*
X126596550Y-121891164D01*
X126551499Y-121930202D01*
X126542182Y-121934949D01*
X126370213Y-122059890D01*
X126219890Y-122210213D01*
X126094951Y-122382179D01*
X125998444Y-122571585D01*
X125932753Y-122773760D01*
X125899500Y-122983713D01*
X125899500Y-123196286D01*
X125932753Y-123406239D01*
X125998444Y-123608414D01*
X126094951Y-123797820D01*
X126219890Y-123969786D01*
X126370213Y-124120109D01*
X126542182Y-124245050D01*
X126550946Y-124249516D01*
X126601742Y-124297491D01*
X126618536Y-124365312D01*
X126595998Y-124431447D01*
X126550946Y-124470484D01*
X126542182Y-124474949D01*
X126370213Y-124599890D01*
X126219890Y-124750213D01*
X126094951Y-124922179D01*
X125998444Y-125111585D01*
X125932753Y-125313760D01*
X125899500Y-125523713D01*
X125899500Y-125736286D01*
X125932753Y-125946239D01*
X125998444Y-126148414D01*
X126094951Y-126337820D01*
X126219890Y-126509786D01*
X126370213Y-126660109D01*
X126542179Y-126785048D01*
X126542181Y-126785049D01*
X126542184Y-126785051D01*
X126731588Y-126881557D01*
X126933757Y-126947246D01*
X127143713Y-126980500D01*
X127143714Y-126980500D01*
X127356286Y-126980500D01*
X127356287Y-126980500D01*
X127566243Y-126947246D01*
X127768412Y-126881557D01*
X127957816Y-126785051D01*
X128044138Y-126722335D01*
X128129786Y-126660109D01*
X128129788Y-126660106D01*
X128129792Y-126660104D01*
X128280104Y-126509792D01*
X128280106Y-126509788D01*
X128280109Y-126509786D01*
X128405048Y-126337820D01*
X128405047Y-126337820D01*
X128405051Y-126337816D01*
X128501557Y-126148412D01*
X128567246Y-125946243D01*
X128600500Y-125736287D01*
X128600500Y-125523713D01*
X128567246Y-125313757D01*
X128501557Y-125111588D01*
X128405051Y-124922184D01*
X128405049Y-124922181D01*
X128405048Y-124922179D01*
X128280109Y-124750213D01*
X128129786Y-124599890D01*
X127957820Y-124474951D01*
X127957115Y-124474591D01*
X127949054Y-124470485D01*
X127898259Y-124422512D01*
X127881463Y-124354692D01*
X127903999Y-124288556D01*
X127949054Y-124249515D01*
X127957816Y-124245051D01*
X128047554Y-124179853D01*
X128129786Y-124120109D01*
X128129788Y-124120106D01*
X128129792Y-124120104D01*
X128280104Y-123969792D01*
X128280106Y-123969788D01*
X128280109Y-123969786D01*
X128405048Y-123797820D01*
X128405047Y-123797820D01*
X128405051Y-123797816D01*
X128501557Y-123608412D01*
X128567246Y-123406243D01*
X128600500Y-123196287D01*
X128600500Y-122983713D01*
X128567246Y-122773757D01*
X128501557Y-122571588D01*
X128405051Y-122382184D01*
X128405049Y-122382181D01*
X128405048Y-122382179D01*
X128280109Y-122210213D01*
X128129786Y-122059890D01*
X127957817Y-121934949D01*
X127948504Y-121930204D01*
X127897707Y-121882230D01*
X127880912Y-121814409D01*
X127903449Y-121748274D01*
X127948507Y-121709232D01*
X127957555Y-121704622D01*
X128011716Y-121665270D01*
X128011717Y-121665270D01*
X127379408Y-121032962D01*
X127442993Y-121015925D01*
X127557007Y-120950099D01*
X127650099Y-120857007D01*
X127715925Y-120742993D01*
X127732962Y-120679408D01*
X128365270Y-121311717D01*
X128365270Y-121311716D01*
X128404622Y-121257554D01*
X128501095Y-121068217D01*
X128566757Y-120866130D01*
X128566757Y-120866127D01*
X128600000Y-120656246D01*
X128600000Y-120443753D01*
X128566757Y-120233872D01*
X128566757Y-120233869D01*
X128501095Y-120031782D01*
X128404624Y-119842449D01*
X128365270Y-119788282D01*
X128365269Y-119788282D01*
X127732962Y-120420590D01*
X127715925Y-120357007D01*
X127650099Y-120242993D01*
X127557007Y-120149901D01*
X127442993Y-120084075D01*
X127379409Y-120067037D01*
X128011716Y-119434728D01*
X127957547Y-119395373D01*
X127957547Y-119395372D01*
X127948500Y-119390763D01*
X127897706Y-119342788D01*
X127880912Y-119274966D01*
X127903451Y-119208832D01*
X127948508Y-119169793D01*
X127957816Y-119165051D01*
X128105481Y-119057767D01*
X128129786Y-119040109D01*
X128129788Y-119040106D01*
X128129792Y-119040104D01*
X128280104Y-118889792D01*
X128280106Y-118889788D01*
X128280109Y-118889786D01*
X128405048Y-118717820D01*
X128405047Y-118717820D01*
X128405051Y-118717816D01*
X128501557Y-118528412D01*
X128567246Y-118326243D01*
X128600500Y-118116287D01*
X128600500Y-117903713D01*
X128567246Y-117693757D01*
X128501557Y-117491588D01*
X128405051Y-117302184D01*
X128405049Y-117302181D01*
X128405048Y-117302179D01*
X128280109Y-117130213D01*
X128129786Y-116979890D01*
X127957820Y-116854951D01*
X127957115Y-116854591D01*
X127949054Y-116850485D01*
X127898259Y-116802512D01*
X127881463Y-116734692D01*
X127903999Y-116668556D01*
X127949054Y-116629515D01*
X127957816Y-116625051D01*
X128016680Y-116582284D01*
X128129786Y-116500109D01*
X128129788Y-116500106D01*
X128129792Y-116500104D01*
X128280104Y-116349792D01*
X128280106Y-116349788D01*
X128280109Y-116349786D01*
X128405048Y-116177820D01*
X128405047Y-116177820D01*
X128405051Y-116177816D01*
X128501557Y-115988412D01*
X128567246Y-115786243D01*
X128600500Y-115576287D01*
X128600500Y-115363713D01*
X128567246Y-115153757D01*
X128501557Y-114951588D01*
X128405051Y-114762184D01*
X128405049Y-114762181D01*
X128405048Y-114762179D01*
X128280109Y-114590213D01*
X128129786Y-114439890D01*
X127957820Y-114314951D01*
X127957115Y-114314591D01*
X127949054Y-114310485D01*
X127898259Y-114262512D01*
X127881463Y-114194692D01*
X127903999Y-114128556D01*
X127949054Y-114089515D01*
X127957816Y-114085051D01*
X128016680Y-114042284D01*
X128129786Y-113960109D01*
X128129788Y-113960106D01*
X128129792Y-113960104D01*
X128280104Y-113809792D01*
X128280106Y-113809788D01*
X128280109Y-113809786D01*
X128405048Y-113637820D01*
X128405047Y-113637820D01*
X128405051Y-113637816D01*
X128501557Y-113448412D01*
X128567246Y-113246243D01*
X128600500Y-113036287D01*
X128600500Y-112823713D01*
X128567246Y-112613757D01*
X128501557Y-112411588D01*
X128405051Y-112222184D01*
X128405049Y-112222181D01*
X128405048Y-112222179D01*
X128280109Y-112050213D01*
X128129786Y-111899890D01*
X127957820Y-111774951D01*
X127957115Y-111774591D01*
X127949054Y-111770485D01*
X127898259Y-111722512D01*
X127881463Y-111654692D01*
X127903999Y-111588556D01*
X127949054Y-111549515D01*
X127957816Y-111545051D01*
X128016680Y-111502284D01*
X128129786Y-111420109D01*
X128129788Y-111420106D01*
X128129792Y-111420104D01*
X128280104Y-111269792D01*
X128280106Y-111269788D01*
X128280109Y-111269786D01*
X128405048Y-111097820D01*
X128405047Y-111097820D01*
X128405051Y-111097816D01*
X128501557Y-110908412D01*
X128567246Y-110706243D01*
X128600500Y-110496287D01*
X128600500Y-110283713D01*
X128567246Y-110073757D01*
X128501557Y-109871588D01*
X128405051Y-109682184D01*
X128405049Y-109682181D01*
X128405048Y-109682179D01*
X128280109Y-109510213D01*
X128129786Y-109359890D01*
X127957817Y-109234949D01*
X127948504Y-109230204D01*
X127897707Y-109182230D01*
X127880912Y-109114409D01*
X127903449Y-109048274D01*
X127948507Y-109009232D01*
X127957555Y-109004622D01*
X128011716Y-108965270D01*
X128011717Y-108965270D01*
X127379408Y-108332962D01*
X127442993Y-108315925D01*
X127557007Y-108250099D01*
X127650099Y-108157007D01*
X127715925Y-108042993D01*
X127732962Y-107979408D01*
X128365270Y-108611717D01*
X128365270Y-108611716D01*
X128404622Y-108557554D01*
X128501095Y-108368217D01*
X128566757Y-108166130D01*
X128566757Y-108166127D01*
X128600000Y-107956246D01*
X128600000Y-107743753D01*
X128566757Y-107533872D01*
X128566757Y-107533869D01*
X128501095Y-107331782D01*
X128404624Y-107142449D01*
X128365270Y-107088282D01*
X128365269Y-107088282D01*
X127732962Y-107720590D01*
X127715925Y-107657007D01*
X127650099Y-107542993D01*
X127557007Y-107449901D01*
X127442993Y-107384075D01*
X127379409Y-107367037D01*
X128011716Y-106734728D01*
X127957547Y-106695373D01*
X127957547Y-106695372D01*
X127948500Y-106690763D01*
X127897706Y-106642788D01*
X127880912Y-106574966D01*
X127903451Y-106508832D01*
X127948508Y-106469793D01*
X127957816Y-106465051D01*
X128105481Y-106357767D01*
X128129786Y-106340109D01*
X128129788Y-106340106D01*
X128129792Y-106340104D01*
X128280104Y-106189792D01*
X128280106Y-106189788D01*
X128280109Y-106189786D01*
X128405048Y-106017820D01*
X128405047Y-106017820D01*
X128405051Y-106017816D01*
X128501557Y-105828412D01*
X128567246Y-105626243D01*
X128600500Y-105416287D01*
X128600500Y-105203713D01*
X128567246Y-104993757D01*
X128501557Y-104791588D01*
X128405051Y-104602184D01*
X128405049Y-104602181D01*
X128405048Y-104602179D01*
X128280109Y-104430213D01*
X128129786Y-104279890D01*
X127957820Y-104154951D01*
X127957115Y-104154591D01*
X127949054Y-104150485D01*
X127898259Y-104102512D01*
X127881463Y-104034692D01*
X127903999Y-103968556D01*
X127949054Y-103929515D01*
X127957816Y-103925051D01*
X128079997Y-103836282D01*
X128129786Y-103800109D01*
X128129788Y-103800106D01*
X128129792Y-103800104D01*
X128280104Y-103649792D01*
X128280106Y-103649788D01*
X128280109Y-103649786D01*
X128405048Y-103477820D01*
X128405047Y-103477820D01*
X128405051Y-103477816D01*
X128501557Y-103288412D01*
X128567246Y-103086243D01*
X128600500Y-102876287D01*
X128600500Y-102663713D01*
X128567246Y-102453757D01*
X128501557Y-102251588D01*
X128405051Y-102062184D01*
X128405049Y-102062181D01*
X128405048Y-102062179D01*
X128280109Y-101890213D01*
X128129786Y-101739890D01*
X127957820Y-101614951D01*
X127957115Y-101614591D01*
X127949054Y-101610485D01*
X127898259Y-101562512D01*
X127881463Y-101494692D01*
X127903999Y-101428556D01*
X127949054Y-101389515D01*
X127957816Y-101385051D01*
X128016680Y-101342284D01*
X128129786Y-101260109D01*
X128129788Y-101260106D01*
X128129792Y-101260104D01*
X128280104Y-101109792D01*
X128280106Y-101109788D01*
X128280109Y-101109786D01*
X128405048Y-100937820D01*
X128405047Y-100937820D01*
X128405051Y-100937816D01*
X128501557Y-100748412D01*
X128567246Y-100546243D01*
X128600500Y-100336287D01*
X128600500Y-100123713D01*
X128567246Y-99913757D01*
X128501557Y-99711588D01*
X128405051Y-99522184D01*
X128405049Y-99522181D01*
X128405048Y-99522179D01*
X128280109Y-99350213D01*
X128129786Y-99199890D01*
X127957820Y-99074951D01*
X127957115Y-99074591D01*
X127949054Y-99070485D01*
X127898259Y-99022512D01*
X127881463Y-98954692D01*
X127903999Y-98888556D01*
X127949054Y-98849515D01*
X127957816Y-98845051D01*
X128079997Y-98756282D01*
X128129786Y-98720109D01*
X128129788Y-98720106D01*
X128129792Y-98720104D01*
X128280104Y-98569792D01*
X128280106Y-98569788D01*
X128280109Y-98569786D01*
X128405048Y-98397820D01*
X128405047Y-98397820D01*
X128405051Y-98397816D01*
X128501557Y-98208412D01*
X128567246Y-98006243D01*
X128600500Y-97796287D01*
X128600500Y-97583713D01*
X128567246Y-97373757D01*
X128501557Y-97171588D01*
X128405051Y-96982184D01*
X128405049Y-96982181D01*
X128405048Y-96982179D01*
X128280109Y-96810213D01*
X128129786Y-96659890D01*
X127957817Y-96534949D01*
X127948504Y-96530204D01*
X127897707Y-96482230D01*
X127880912Y-96414409D01*
X127903449Y-96348274D01*
X127948507Y-96309232D01*
X127957555Y-96304622D01*
X128011716Y-96265270D01*
X128011717Y-96265270D01*
X127379408Y-95632962D01*
X127442993Y-95615925D01*
X127557007Y-95550099D01*
X127650099Y-95457007D01*
X127715925Y-95342993D01*
X127732962Y-95279408D01*
X128365270Y-95911717D01*
X128365270Y-95911716D01*
X128404622Y-95857554D01*
X128501095Y-95668217D01*
X128566757Y-95466130D01*
X128566757Y-95466127D01*
X128600000Y-95256246D01*
X128600000Y-95043753D01*
X128566757Y-94833872D01*
X128566757Y-94833869D01*
X128501095Y-94631782D01*
X128404624Y-94442449D01*
X128365270Y-94388282D01*
X128365269Y-94388282D01*
X127732962Y-95020590D01*
X127715925Y-94957007D01*
X127650099Y-94842993D01*
X127557007Y-94749901D01*
X127442993Y-94684075D01*
X127379409Y-94667037D01*
X128011716Y-94034728D01*
X127957547Y-93995373D01*
X127957547Y-93995372D01*
X127948500Y-93990763D01*
X127897706Y-93942788D01*
X127880912Y-93874966D01*
X127903451Y-93808832D01*
X127948508Y-93769793D01*
X127957816Y-93765051D01*
X128048844Y-93698916D01*
X128129786Y-93640109D01*
X128129788Y-93640106D01*
X128129792Y-93640104D01*
X128280104Y-93489792D01*
X128280106Y-93489788D01*
X128280109Y-93489786D01*
X128405048Y-93317820D01*
X128405047Y-93317820D01*
X128405051Y-93317816D01*
X128501557Y-93128412D01*
X128567246Y-92926243D01*
X128600500Y-92716287D01*
X128600500Y-92503713D01*
X128567246Y-92293757D01*
X128501557Y-92091588D01*
X128405051Y-91902184D01*
X128405049Y-91902181D01*
X128405048Y-91902179D01*
X128280109Y-91730213D01*
X128129786Y-91579890D01*
X127957820Y-91454951D01*
X127957115Y-91454591D01*
X127949054Y-91450485D01*
X127898259Y-91402512D01*
X127881463Y-91334692D01*
X127903999Y-91268556D01*
X127949054Y-91229515D01*
X127957816Y-91225051D01*
X128016680Y-91182284D01*
X128129786Y-91100109D01*
X128129788Y-91100106D01*
X128129792Y-91100104D01*
X128280104Y-90949792D01*
X128280106Y-90949788D01*
X128280109Y-90949786D01*
X128405048Y-90777820D01*
X128405047Y-90777820D01*
X128405051Y-90777816D01*
X128501557Y-90588412D01*
X128567246Y-90386243D01*
X128600500Y-90176287D01*
X128600500Y-89963713D01*
X128567246Y-89753757D01*
X128501557Y-89551588D01*
X128405051Y-89362184D01*
X128405049Y-89362181D01*
X128405048Y-89362179D01*
X128280109Y-89190213D01*
X128129786Y-89039890D01*
X127957820Y-88914951D01*
X127957115Y-88914591D01*
X127949054Y-88910485D01*
X127898259Y-88862512D01*
X127881463Y-88794692D01*
X127903999Y-88728556D01*
X127949054Y-88689515D01*
X127957816Y-88685051D01*
X128016680Y-88642284D01*
X128129786Y-88560109D01*
X128129788Y-88560106D01*
X128129792Y-88560104D01*
X128280104Y-88409792D01*
X128280106Y-88409788D01*
X128280109Y-88409786D01*
X128405048Y-88237820D01*
X128405047Y-88237820D01*
X128405051Y-88237816D01*
X128501557Y-88048412D01*
X128567246Y-87846243D01*
X128600500Y-87636287D01*
X128600500Y-87423713D01*
X128567246Y-87213757D01*
X128501557Y-87011588D01*
X128405051Y-86822184D01*
X128405049Y-86822181D01*
X128405048Y-86822179D01*
X128280109Y-86650213D01*
X128129786Y-86499890D01*
X127957820Y-86374951D01*
X127957115Y-86374591D01*
X127949054Y-86370485D01*
X127898259Y-86322512D01*
X127881463Y-86254692D01*
X127903999Y-86188556D01*
X127949054Y-86149515D01*
X127957816Y-86145051D01*
X128016680Y-86102284D01*
X128129786Y-86020109D01*
X128129788Y-86020106D01*
X128129792Y-86020104D01*
X128280104Y-85869792D01*
X128280106Y-85869788D01*
X128280109Y-85869786D01*
X128405048Y-85697820D01*
X128405047Y-85697820D01*
X128405051Y-85697816D01*
X128501557Y-85508412D01*
X128567246Y-85306243D01*
X128600500Y-85096287D01*
X128600500Y-84883713D01*
X128567246Y-84673757D01*
X128501557Y-84471588D01*
X128405051Y-84282184D01*
X128405049Y-84282181D01*
X128405048Y-84282179D01*
X128280109Y-84110213D01*
X128129786Y-83959890D01*
X127957817Y-83834949D01*
X127948504Y-83830204D01*
X127897707Y-83782230D01*
X127880912Y-83714409D01*
X127903449Y-83648274D01*
X127948507Y-83609232D01*
X127957555Y-83604622D01*
X128011716Y-83565270D01*
X128011717Y-83565270D01*
X127379408Y-82932962D01*
X127442993Y-82915925D01*
X127557007Y-82850099D01*
X127650099Y-82757007D01*
X127715925Y-82642993D01*
X127732962Y-82579408D01*
X128365270Y-83211717D01*
X128365270Y-83211716D01*
X128404622Y-83157554D01*
X128501095Y-82968217D01*
X128566757Y-82766130D01*
X128566757Y-82766127D01*
X128600000Y-82556246D01*
X128600000Y-82371210D01*
X131255000Y-82371210D01*
X131255000Y-82528789D01*
X131264701Y-82627299D01*
X131264701Y-82627302D01*
X131295444Y-82781864D01*
X131324185Y-82876612D01*
X131384490Y-83022198D01*
X131431155Y-83109501D01*
X131431161Y-83109511D01*
X131477534Y-83178912D01*
X132077037Y-82579410D01*
X132094075Y-82642993D01*
X132159901Y-82757007D01*
X132252993Y-82850099D01*
X132367007Y-82915925D01*
X132430589Y-82932962D01*
X131831085Y-83532465D01*
X131900488Y-83578838D01*
X131900498Y-83578844D01*
X131966454Y-83614099D01*
X132016298Y-83663062D01*
X132031758Y-83731200D01*
X132007926Y-83796879D01*
X131964295Y-83833942D01*
X131878386Y-83877715D01*
X131712786Y-83998028D01*
X131568028Y-84142786D01*
X131447715Y-84308386D01*
X131354781Y-84490776D01*
X131291522Y-84685465D01*
X131259500Y-84887648D01*
X131259500Y-85092351D01*
X131291522Y-85294534D01*
X131354781Y-85489223D01*
X131447715Y-85671613D01*
X131568028Y-85837213D01*
X131712786Y-85981971D01*
X131867749Y-86094556D01*
X131878390Y-86102287D01*
X131962313Y-86145048D01*
X131971080Y-86149515D01*
X132021876Y-86197490D01*
X132038671Y-86265311D01*
X132016134Y-86331446D01*
X131971080Y-86370485D01*
X131878386Y-86417715D01*
X131712786Y-86538028D01*
X131568028Y-86682786D01*
X131447715Y-86848386D01*
X131354781Y-87030776D01*
X131291522Y-87225465D01*
X131259500Y-87427648D01*
X131259500Y-87632351D01*
X131291522Y-87834534D01*
X131354781Y-88029223D01*
X131447715Y-88211613D01*
X131568028Y-88377213D01*
X131712786Y-88521971D01*
X131867749Y-88634556D01*
X131878390Y-88642287D01*
X131962313Y-88685048D01*
X131971080Y-88689515D01*
X132021876Y-88737490D01*
X132038671Y-88805311D01*
X132016134Y-88871446D01*
X131971080Y-88910485D01*
X131878386Y-88957715D01*
X131712786Y-89078028D01*
X131568028Y-89222786D01*
X131447715Y-89388386D01*
X131354781Y-89570776D01*
X131291522Y-89765465D01*
X131259500Y-89967648D01*
X131259500Y-90172351D01*
X131291522Y-90374534D01*
X131354781Y-90569223D01*
X131447715Y-90751613D01*
X131568028Y-90917213D01*
X131712786Y-91061971D01*
X131867749Y-91174556D01*
X131878390Y-91182287D01*
X131962313Y-91225048D01*
X131971080Y-91229515D01*
X132021876Y-91277490D01*
X132038671Y-91345311D01*
X132016134Y-91411446D01*
X131971080Y-91450485D01*
X131878386Y-91497715D01*
X131712786Y-91618028D01*
X131568028Y-91762786D01*
X131447715Y-91928386D01*
X131354781Y-92110776D01*
X131291522Y-92305465D01*
X131259500Y-92507648D01*
X131259500Y-92712351D01*
X131291522Y-92914534D01*
X131354781Y-93109223D01*
X131447715Y-93291613D01*
X131568028Y-93457213D01*
X131712786Y-93601971D01*
X131878388Y-93722286D01*
X131878390Y-93722287D01*
X131964294Y-93766057D01*
X132015090Y-93814031D01*
X132031886Y-93881852D01*
X132009349Y-93947987D01*
X131966455Y-93985899D01*
X131900497Y-94021155D01*
X131831086Y-94067534D01*
X131831085Y-94067534D01*
X132430589Y-94667037D01*
X132367007Y-94684075D01*
X132252993Y-94749901D01*
X132159901Y-94842993D01*
X132094075Y-94957007D01*
X132077037Y-95020588D01*
X131477534Y-94421085D01*
X131477534Y-94421086D01*
X131431158Y-94490493D01*
X131384490Y-94577801D01*
X131324185Y-94723387D01*
X131295444Y-94818135D01*
X131264701Y-94972697D01*
X131264701Y-94972700D01*
X131255000Y-95071210D01*
X131255000Y-95228789D01*
X131264701Y-95327299D01*
X131264701Y-95327302D01*
X131295444Y-95481864D01*
X131324185Y-95576612D01*
X131384490Y-95722198D01*
X131431155Y-95809501D01*
X131431161Y-95809511D01*
X131477534Y-95878912D01*
X132077037Y-95279410D01*
X132094075Y-95342993D01*
X132159901Y-95457007D01*
X132252993Y-95550099D01*
X132367007Y-95615925D01*
X132430589Y-95632962D01*
X131831085Y-96232465D01*
X131900488Y-96278838D01*
X131900498Y-96278844D01*
X131966454Y-96314099D01*
X132016298Y-96363062D01*
X132031758Y-96431200D01*
X132007926Y-96496879D01*
X131964295Y-96533942D01*
X131878386Y-96577715D01*
X131712786Y-96698028D01*
X131568028Y-96842786D01*
X131447715Y-97008386D01*
X131354781Y-97190776D01*
X131291522Y-97385465D01*
X131259500Y-97587648D01*
X131259500Y-97792351D01*
X131291522Y-97994534D01*
X131354781Y-98189223D01*
X131447715Y-98371613D01*
X131568028Y-98537213D01*
X131712786Y-98681971D01*
X131867749Y-98794556D01*
X131878390Y-98802287D01*
X131952402Y-98839998D01*
X131971080Y-98849515D01*
X132021876Y-98897490D01*
X132038671Y-98965311D01*
X132016134Y-99031446D01*
X131971080Y-99070485D01*
X131878386Y-99117715D01*
X131712786Y-99238028D01*
X131568028Y-99382786D01*
X131447715Y-99548386D01*
X131354781Y-99730776D01*
X131291522Y-99925465D01*
X131267795Y-100075276D01*
X131259500Y-100127648D01*
X131259500Y-100332352D01*
X131263878Y-100359995D01*
X131291522Y-100534534D01*
X131354781Y-100729223D01*
X131447715Y-100911613D01*
X131568028Y-101077213D01*
X131712786Y-101221971D01*
X131867749Y-101334556D01*
X131878390Y-101342287D01*
X131962313Y-101385048D01*
X131971080Y-101389515D01*
X132021876Y-101437490D01*
X132038671Y-101505311D01*
X132016134Y-101571446D01*
X131971080Y-101610485D01*
X131878386Y-101657715D01*
X131712786Y-101778028D01*
X131568028Y-101922786D01*
X131447715Y-102088386D01*
X131354781Y-102270776D01*
X131291522Y-102465465D01*
X131259500Y-102667648D01*
X131259500Y-102872351D01*
X131291522Y-103074534D01*
X131354781Y-103269223D01*
X131447715Y-103451613D01*
X131568028Y-103617213D01*
X131712786Y-103761971D01*
X131867749Y-103874556D01*
X131878390Y-103882287D01*
X131952402Y-103919998D01*
X131971080Y-103929515D01*
X132021876Y-103977490D01*
X132038671Y-104045311D01*
X132016134Y-104111446D01*
X131971080Y-104150485D01*
X131878386Y-104197715D01*
X131712786Y-104318028D01*
X131568028Y-104462786D01*
X131447715Y-104628386D01*
X131354781Y-104810776D01*
X131291522Y-105005465D01*
X131260123Y-105203712D01*
X131259500Y-105207648D01*
X131259500Y-105412352D01*
X131263878Y-105439995D01*
X131291522Y-105614534D01*
X131354781Y-105809223D01*
X131447715Y-105991613D01*
X131568028Y-106157213D01*
X131712786Y-106301971D01*
X131878388Y-106422286D01*
X131878390Y-106422287D01*
X131964294Y-106466057D01*
X132015090Y-106514031D01*
X132031886Y-106581852D01*
X132009349Y-106647987D01*
X131966455Y-106685899D01*
X131900497Y-106721155D01*
X131831086Y-106767534D01*
X131831085Y-106767534D01*
X132430589Y-107367037D01*
X132367007Y-107384075D01*
X132252993Y-107449901D01*
X132159901Y-107542993D01*
X132094075Y-107657007D01*
X132077037Y-107720588D01*
X131477534Y-107121085D01*
X131477534Y-107121086D01*
X131431158Y-107190493D01*
X131384490Y-107277801D01*
X131324185Y-107423387D01*
X131295444Y-107518135D01*
X131264701Y-107672697D01*
X131264701Y-107672700D01*
X131255000Y-107771210D01*
X131255000Y-107928789D01*
X131264701Y-108027299D01*
X131264701Y-108027302D01*
X131295444Y-108181864D01*
X131324185Y-108276612D01*
X131384490Y-108422198D01*
X131431155Y-108509501D01*
X131431161Y-108509511D01*
X131477534Y-108578912D01*
X132077037Y-107979410D01*
X132094075Y-108042993D01*
X132159901Y-108157007D01*
X132252993Y-108250099D01*
X132367007Y-108315925D01*
X132430589Y-108332962D01*
X131831085Y-108932465D01*
X131900488Y-108978838D01*
X131900498Y-108978844D01*
X131966454Y-109014099D01*
X132016298Y-109063062D01*
X132031758Y-109131200D01*
X132007926Y-109196879D01*
X131964295Y-109233942D01*
X131878386Y-109277715D01*
X131712786Y-109398028D01*
X131568028Y-109542786D01*
X131447715Y-109708386D01*
X131354781Y-109890776D01*
X131291522Y-110085465D01*
X131259500Y-110287648D01*
X131259500Y-110492351D01*
X131291522Y-110694534D01*
X131354781Y-110889223D01*
X131447715Y-111071613D01*
X131568028Y-111237213D01*
X131712786Y-111381971D01*
X131867749Y-111494556D01*
X131878390Y-111502287D01*
X131962313Y-111545048D01*
X131971080Y-111549515D01*
X132021876Y-111597490D01*
X132038671Y-111665311D01*
X132016134Y-111731446D01*
X131971080Y-111770485D01*
X131878386Y-111817715D01*
X131712786Y-111938028D01*
X131568028Y-112082786D01*
X131447715Y-112248386D01*
X131354781Y-112430776D01*
X131291522Y-112625465D01*
X131259500Y-112827648D01*
X131259500Y-113032351D01*
X131291522Y-113234534D01*
X131354781Y-113429223D01*
X131447715Y-113611613D01*
X131568028Y-113777213D01*
X131712786Y-113921971D01*
X131867749Y-114034556D01*
X131878390Y-114042287D01*
X131962313Y-114085048D01*
X131971080Y-114089515D01*
X132021876Y-114137490D01*
X132038671Y-114205311D01*
X132016134Y-114271446D01*
X131971080Y-114310485D01*
X131878386Y-114357715D01*
X131712786Y-114478028D01*
X131568028Y-114622786D01*
X131447715Y-114788386D01*
X131354781Y-114970776D01*
X131291522Y-115165465D01*
X131259500Y-115367648D01*
X131259500Y-115572351D01*
X131291522Y-115774534D01*
X131354781Y-115969223D01*
X131447715Y-116151613D01*
X131568028Y-116317213D01*
X131712786Y-116461971D01*
X131867749Y-116574556D01*
X131878390Y-116582287D01*
X131962313Y-116625048D01*
X131971080Y-116629515D01*
X132021876Y-116677490D01*
X132038671Y-116745311D01*
X132016134Y-116811446D01*
X131971080Y-116850485D01*
X131878386Y-116897715D01*
X131712786Y-117018028D01*
X131568028Y-117162786D01*
X131447715Y-117328386D01*
X131354781Y-117510776D01*
X131291522Y-117705465D01*
X131259500Y-117907648D01*
X131259500Y-118112351D01*
X131291522Y-118314534D01*
X131354781Y-118509223D01*
X131447715Y-118691613D01*
X131568028Y-118857213D01*
X131712786Y-119001971D01*
X131878388Y-119122286D01*
X131878390Y-119122287D01*
X131964294Y-119166057D01*
X132015090Y-119214031D01*
X132031886Y-119281852D01*
X132009349Y-119347987D01*
X131966455Y-119385899D01*
X131900497Y-119421155D01*
X131831086Y-119467534D01*
X131831085Y-119467534D01*
X132430589Y-120067037D01*
X132367007Y-120084075D01*
X132252993Y-120149901D01*
X132159901Y-120242993D01*
X132094075Y-120357007D01*
X132077037Y-120420588D01*
X131477534Y-119821085D01*
X131477534Y-119821086D01*
X131431158Y-119890493D01*
X131384490Y-119977801D01*
X131324185Y-120123387D01*
X131295444Y-120218135D01*
X131264701Y-120372697D01*
X131264701Y-120372700D01*
X131255000Y-120471210D01*
X131255000Y-120628789D01*
X131264701Y-120727299D01*
X131264701Y-120727302D01*
X131295444Y-120881864D01*
X131324185Y-120976612D01*
X131384490Y-121122198D01*
X131431155Y-121209501D01*
X131431161Y-121209511D01*
X131477534Y-121278912D01*
X132077037Y-120679410D01*
X132094075Y-120742993D01*
X132159901Y-120857007D01*
X132252993Y-120950099D01*
X132367007Y-121015925D01*
X132430589Y-121032962D01*
X131831085Y-121632465D01*
X131900488Y-121678838D01*
X131900498Y-121678844D01*
X131966454Y-121714099D01*
X132016298Y-121763062D01*
X132031758Y-121831200D01*
X132007926Y-121896879D01*
X131964295Y-121933942D01*
X131878386Y-121977715D01*
X131712786Y-122098028D01*
X131568028Y-122242786D01*
X131447715Y-122408386D01*
X131354781Y-122590776D01*
X131291522Y-122785465D01*
X131259500Y-122987648D01*
X131259500Y-123192351D01*
X131291522Y-123394534D01*
X131354781Y-123589223D01*
X131447715Y-123771613D01*
X131568028Y-123937213D01*
X131712786Y-124081971D01*
X131799057Y-124144649D01*
X131878390Y-124202287D01*
X131962313Y-124245048D01*
X131971080Y-124249515D01*
X132021876Y-124297490D01*
X132038671Y-124365311D01*
X132016134Y-124431446D01*
X131971080Y-124470485D01*
X131878386Y-124517715D01*
X131712786Y-124638028D01*
X131568028Y-124782786D01*
X131447715Y-124948386D01*
X131354781Y-125130776D01*
X131291522Y-125325465D01*
X131259500Y-125527648D01*
X131259500Y-125732351D01*
X131291522Y-125934534D01*
X131354781Y-126129223D01*
X131447715Y-126311613D01*
X131568028Y-126477213D01*
X131712786Y-126621971D01*
X131850928Y-126722335D01*
X131878390Y-126742287D01*
X131962319Y-126785051D01*
X132060776Y-126835218D01*
X132060778Y-126835218D01*
X132060781Y-126835220D01*
X132165137Y-126869127D01*
X132255465Y-126898477D01*
X132356557Y-126914488D01*
X132457648Y-126930500D01*
X132457649Y-126930500D01*
X132662351Y-126930500D01*
X132662352Y-126930500D01*
X132864534Y-126898477D01*
X133059219Y-126835220D01*
X133241610Y-126742287D01*
X133354726Y-126660104D01*
X133407213Y-126621971D01*
X133407215Y-126621968D01*
X133407219Y-126621966D01*
X133551966Y-126477219D01*
X133551968Y-126477215D01*
X133551971Y-126477213D01*
X133653247Y-126337816D01*
X133672287Y-126311610D01*
X133765220Y-126129219D01*
X133828477Y-125934534D01*
X133860500Y-125732352D01*
X133860500Y-125527648D01*
X133828477Y-125325466D01*
X133824673Y-125313760D01*
X133765218Y-125130776D01*
X133731503Y-125064607D01*
X133672287Y-124948390D01*
X133664556Y-124937749D01*
X133551971Y-124782786D01*
X133407213Y-124638028D01*
X133241614Y-124517715D01*
X133235006Y-124514348D01*
X133148917Y-124470483D01*
X133098123Y-124422511D01*
X133081328Y-124354690D01*
X133103865Y-124288555D01*
X133148917Y-124249516D01*
X133241610Y-124202287D01*
X133320943Y-124144649D01*
X133407213Y-124081971D01*
X133407215Y-124081968D01*
X133407219Y-124081966D01*
X133551966Y-123937219D01*
X133551968Y-123937215D01*
X133551971Y-123937213D01*
X133653247Y-123797816D01*
X133672287Y-123771610D01*
X133765220Y-123589219D01*
X133828477Y-123394534D01*
X133860500Y-123192352D01*
X133860500Y-122987648D01*
X133828477Y-122785466D01*
X133824673Y-122773760D01*
X133765218Y-122590776D01*
X133731503Y-122524607D01*
X133672287Y-122408390D01*
X133664556Y-122397749D01*
X133551971Y-122242786D01*
X133407217Y-122098032D01*
X133330415Y-122042232D01*
X133287750Y-121986902D01*
X133281771Y-121917288D01*
X133314377Y-121855494D01*
X133372640Y-121821765D01*
X133393039Y-121816559D01*
X133449584Y-121793136D01*
X133449584Y-121793135D01*
X132689410Y-121032962D01*
X132752993Y-121015925D01*
X132867007Y-120950099D01*
X132960099Y-120857007D01*
X133025925Y-120742993D01*
X133042962Y-120679411D01*
X133803135Y-121439584D01*
X133803136Y-121439584D01*
X133826552Y-121383053D01*
X133844544Y-121332053D01*
X133864999Y-121189780D01*
X133865000Y-121189779D01*
X133865000Y-119910214D01*
X133862106Y-119856237D01*
X133862106Y-119856235D01*
X133826561Y-119716969D01*
X133826559Y-119716962D01*
X133803135Y-119660414D01*
X133042962Y-120420588D01*
X133025925Y-120357007D01*
X132960099Y-120242993D01*
X132867007Y-120149901D01*
X132752993Y-120084075D01*
X132689410Y-120067037D01*
X133449584Y-119306862D01*
X133393059Y-119283449D01*
X133393048Y-119283445D01*
X133364374Y-119273329D01*
X133307703Y-119232462D01*
X133282122Y-119167443D01*
X133295754Y-119098916D01*
X133332745Y-119056074D01*
X133407215Y-119001969D01*
X133407215Y-119001968D01*
X133407219Y-119001966D01*
X133551966Y-118857219D01*
X133551968Y-118857215D01*
X133551971Y-118857213D01*
X133604732Y-118784590D01*
X133672287Y-118691610D01*
X133765220Y-118509219D01*
X133828477Y-118314534D01*
X133860500Y-118112352D01*
X133860500Y-117907648D01*
X133828477Y-117705466D01*
X133824673Y-117693760D01*
X133781168Y-117559863D01*
X133765220Y-117510781D01*
X133765218Y-117510778D01*
X133765218Y-117510776D01*
X133731503Y-117444607D01*
X133672287Y-117328390D01*
X133664556Y-117317749D01*
X133551971Y-117162786D01*
X133407213Y-117018028D01*
X133241614Y-116897715D01*
X133235006Y-116894348D01*
X133148917Y-116850483D01*
X133098123Y-116802511D01*
X133081328Y-116734690D01*
X133103865Y-116668555D01*
X133148917Y-116629516D01*
X133241610Y-116582287D01*
X133262770Y-116566913D01*
X133407213Y-116461971D01*
X133407215Y-116461968D01*
X133407219Y-116461966D01*
X133551966Y-116317219D01*
X133551968Y-116317215D01*
X133551971Y-116317213D01*
X133653247Y-116177816D01*
X133672287Y-116151610D01*
X133765220Y-115969219D01*
X133828477Y-115774534D01*
X133860500Y-115572352D01*
X133860500Y-115367648D01*
X133828477Y-115165466D01*
X133824673Y-115153760D01*
X133765218Y-114970776D01*
X133731503Y-114904607D01*
X133672287Y-114788390D01*
X133664556Y-114777749D01*
X133551971Y-114622786D01*
X133407213Y-114478028D01*
X133241614Y-114357715D01*
X133235006Y-114354348D01*
X133148917Y-114310483D01*
X133098123Y-114262511D01*
X133081328Y-114194690D01*
X133103865Y-114128555D01*
X133148917Y-114089516D01*
X133241610Y-114042287D01*
X133262770Y-114026913D01*
X133407213Y-113921971D01*
X133407215Y-113921968D01*
X133407219Y-113921966D01*
X133551966Y-113777219D01*
X133551968Y-113777215D01*
X133551971Y-113777213D01*
X133653247Y-113637816D01*
X133672287Y-113611610D01*
X133765220Y-113429219D01*
X133828477Y-113234534D01*
X133860500Y-113032352D01*
X133860500Y-112827648D01*
X133828477Y-112625466D01*
X133824673Y-112613760D01*
X133765218Y-112430776D01*
X133731503Y-112364607D01*
X133672287Y-112248390D01*
X133664556Y-112237749D01*
X133551971Y-112082786D01*
X133407213Y-111938028D01*
X133241614Y-111817715D01*
X133235006Y-111814348D01*
X133148917Y-111770483D01*
X133098123Y-111722511D01*
X133081328Y-111654690D01*
X133103865Y-111588555D01*
X133148917Y-111549516D01*
X133241610Y-111502287D01*
X133262770Y-111486913D01*
X133407213Y-111381971D01*
X133407215Y-111381968D01*
X133407219Y-111381966D01*
X133551966Y-111237219D01*
X133551968Y-111237215D01*
X133551971Y-111237213D01*
X133653247Y-111097816D01*
X133672287Y-111071610D01*
X133765220Y-110889219D01*
X133828477Y-110694534D01*
X133860500Y-110492352D01*
X133860500Y-110287648D01*
X133828477Y-110085466D01*
X133824673Y-110073760D01*
X133765218Y-109890776D01*
X133731503Y-109824607D01*
X133672287Y-109708390D01*
X133664556Y-109697749D01*
X133551971Y-109542786D01*
X133407217Y-109398032D01*
X133330415Y-109342232D01*
X133287750Y-109286902D01*
X133281771Y-109217288D01*
X133314377Y-109155494D01*
X133372640Y-109121765D01*
X133393039Y-109116559D01*
X133449584Y-109093136D01*
X133449584Y-109093135D01*
X132689410Y-108332962D01*
X132752993Y-108315925D01*
X132867007Y-108250099D01*
X132960099Y-108157007D01*
X133025925Y-108042993D01*
X133042962Y-107979411D01*
X133803135Y-108739584D01*
X133803136Y-108739584D01*
X133826552Y-108683053D01*
X133844544Y-108632053D01*
X133864999Y-108489780D01*
X133865000Y-108489779D01*
X133865000Y-107210224D01*
X133864999Y-107210204D01*
X133862106Y-107156237D01*
X133862106Y-107156235D01*
X133826561Y-107016969D01*
X133826559Y-107016962D01*
X133803135Y-106960414D01*
X133042962Y-107720588D01*
X133025925Y-107657007D01*
X132960099Y-107542993D01*
X132867007Y-107449901D01*
X132752993Y-107384075D01*
X132689410Y-107367037D01*
X133449584Y-106606862D01*
X133393059Y-106583449D01*
X133393048Y-106583445D01*
X133364374Y-106573329D01*
X133307703Y-106532462D01*
X133282122Y-106467443D01*
X133295754Y-106398916D01*
X133332745Y-106356074D01*
X133407215Y-106301969D01*
X133407215Y-106301968D01*
X133407219Y-106301966D01*
X133551966Y-106157219D01*
X133551968Y-106157215D01*
X133551971Y-106157213D01*
X133653247Y-106017816D01*
X133672287Y-105991610D01*
X133765220Y-105809219D01*
X133828477Y-105614534D01*
X133860500Y-105412352D01*
X133860500Y-105207648D01*
X133828477Y-105005466D01*
X133824673Y-104993760D01*
X133765218Y-104810776D01*
X133695149Y-104673260D01*
X133672287Y-104628390D01*
X133664556Y-104617749D01*
X133551971Y-104462786D01*
X133407213Y-104318028D01*
X133241614Y-104197715D01*
X133183169Y-104167936D01*
X133148917Y-104150483D01*
X133098123Y-104102511D01*
X133081328Y-104034690D01*
X133103865Y-103968555D01*
X133148917Y-103929516D01*
X133241610Y-103882287D01*
X133304931Y-103836282D01*
X133407213Y-103761971D01*
X133407215Y-103761968D01*
X133407219Y-103761966D01*
X133551966Y-103617219D01*
X133551968Y-103617215D01*
X133551971Y-103617213D01*
X133653247Y-103477816D01*
X133672287Y-103451610D01*
X133765220Y-103269219D01*
X133828477Y-103074534D01*
X133860500Y-102872352D01*
X133860500Y-102667648D01*
X133828477Y-102465466D01*
X133824673Y-102453760D01*
X133765218Y-102270776D01*
X133718728Y-102179536D01*
X133672287Y-102088390D01*
X133664556Y-102077749D01*
X133551971Y-101922786D01*
X133407213Y-101778028D01*
X133241614Y-101657715D01*
X133235006Y-101654348D01*
X133148917Y-101610483D01*
X133098123Y-101562511D01*
X133081328Y-101494690D01*
X133103865Y-101428555D01*
X133148917Y-101389516D01*
X133241610Y-101342287D01*
X133262770Y-101326913D01*
X133407213Y-101221971D01*
X133407215Y-101221968D01*
X133407219Y-101221966D01*
X133551966Y-101077219D01*
X133551968Y-101077215D01*
X133551971Y-101077213D01*
X133653247Y-100937816D01*
X133672287Y-100911610D01*
X133765220Y-100729219D01*
X133828477Y-100534534D01*
X133860500Y-100332352D01*
X133860500Y-100127648D01*
X133828477Y-99925466D01*
X133824673Y-99913760D01*
X133765218Y-99730776D01*
X133695149Y-99593260D01*
X133672287Y-99548390D01*
X133664556Y-99537749D01*
X133551971Y-99382786D01*
X133407213Y-99238028D01*
X133241614Y-99117715D01*
X133183169Y-99087936D01*
X133148917Y-99070483D01*
X133098123Y-99022511D01*
X133081328Y-98954690D01*
X133103865Y-98888555D01*
X133148917Y-98849516D01*
X133241610Y-98802287D01*
X133304931Y-98756282D01*
X133407213Y-98681971D01*
X133407215Y-98681968D01*
X133407219Y-98681966D01*
X133551966Y-98537219D01*
X133551968Y-98537215D01*
X133551971Y-98537213D01*
X133653247Y-98397816D01*
X133672287Y-98371610D01*
X133765220Y-98189219D01*
X133828477Y-97994534D01*
X133860500Y-97792352D01*
X133860500Y-97587648D01*
X133828477Y-97385466D01*
X133824673Y-97373760D01*
X133765218Y-97190776D01*
X133731503Y-97124607D01*
X133672287Y-97008390D01*
X133664556Y-96997749D01*
X133551971Y-96842786D01*
X133407217Y-96698032D01*
X133330415Y-96642232D01*
X133287750Y-96586902D01*
X133281771Y-96517288D01*
X133314377Y-96455494D01*
X133372640Y-96421765D01*
X133393039Y-96416559D01*
X133449584Y-96393136D01*
X133449584Y-96393135D01*
X132689410Y-95632962D01*
X132752993Y-95615925D01*
X132867007Y-95550099D01*
X132960099Y-95457007D01*
X133025925Y-95342993D01*
X133042962Y-95279411D01*
X133803135Y-96039584D01*
X133803136Y-96039584D01*
X133826552Y-95983053D01*
X133844544Y-95932053D01*
X133864999Y-95789780D01*
X133865000Y-95789779D01*
X133865000Y-94510224D01*
X133864999Y-94510204D01*
X133862106Y-94456237D01*
X133862106Y-94456235D01*
X133826561Y-94316969D01*
X133826559Y-94316962D01*
X133803135Y-94260414D01*
X133042962Y-95020588D01*
X133025925Y-94957007D01*
X132960099Y-94842993D01*
X132867007Y-94749901D01*
X132752993Y-94684075D01*
X132689410Y-94667037D01*
X133449584Y-93906862D01*
X133393059Y-93883449D01*
X133393048Y-93883445D01*
X133364374Y-93873329D01*
X133307703Y-93832462D01*
X133282122Y-93767443D01*
X133295754Y-93698916D01*
X133332745Y-93656074D01*
X133407215Y-93601969D01*
X133407215Y-93601968D01*
X133407219Y-93601966D01*
X133551966Y-93457219D01*
X133551968Y-93457215D01*
X133551971Y-93457213D01*
X133604732Y-93384590D01*
X133672287Y-93291610D01*
X133765220Y-93109219D01*
X133828477Y-92914534D01*
X133860500Y-92712352D01*
X133860500Y-92507648D01*
X133828477Y-92305466D01*
X133828413Y-92305270D01*
X133799127Y-92215137D01*
X133765220Y-92110781D01*
X133765218Y-92110778D01*
X133765218Y-92110776D01*
X133731503Y-92044607D01*
X133672287Y-91928390D01*
X133664556Y-91917749D01*
X133551971Y-91762786D01*
X133407213Y-91618028D01*
X133241614Y-91497715D01*
X133235006Y-91494348D01*
X133148917Y-91450483D01*
X133098123Y-91402511D01*
X133081328Y-91334690D01*
X133103865Y-91268555D01*
X133148917Y-91229516D01*
X133241610Y-91182287D01*
X133262770Y-91166913D01*
X133407213Y-91061971D01*
X133407215Y-91061968D01*
X133407219Y-91061966D01*
X133551966Y-90917219D01*
X133551968Y-90917215D01*
X133551971Y-90917213D01*
X133604732Y-90844590D01*
X133672287Y-90751610D01*
X133765220Y-90569219D01*
X133828477Y-90374534D01*
X133860500Y-90172352D01*
X133860500Y-89967648D01*
X133828477Y-89765466D01*
X133828413Y-89765270D01*
X133799127Y-89675137D01*
X133765220Y-89570781D01*
X133765218Y-89570778D01*
X133765218Y-89570776D01*
X133731503Y-89504607D01*
X133672287Y-89388390D01*
X133664556Y-89377749D01*
X133551971Y-89222786D01*
X133407213Y-89078028D01*
X133241614Y-88957715D01*
X133235006Y-88954348D01*
X133148917Y-88910483D01*
X133098123Y-88862511D01*
X133081328Y-88794690D01*
X133103865Y-88728555D01*
X133148917Y-88689516D01*
X133241610Y-88642287D01*
X133262770Y-88626913D01*
X133407213Y-88521971D01*
X133407215Y-88521968D01*
X133407219Y-88521966D01*
X133551966Y-88377219D01*
X133551968Y-88377215D01*
X133551971Y-88377213D01*
X133604732Y-88304590D01*
X133672287Y-88211610D01*
X133765220Y-88029219D01*
X133828477Y-87834534D01*
X133860500Y-87632352D01*
X133860500Y-87427648D01*
X133856652Y-87403350D01*
X133828477Y-87225465D01*
X133765218Y-87030776D01*
X133731503Y-86964607D01*
X133672287Y-86848390D01*
X133664556Y-86837749D01*
X133551971Y-86682786D01*
X133407213Y-86538028D01*
X133241614Y-86417715D01*
X133235006Y-86414348D01*
X133148917Y-86370483D01*
X133098123Y-86322511D01*
X133081328Y-86254690D01*
X133103865Y-86188555D01*
X133148917Y-86149516D01*
X133241610Y-86102287D01*
X133262770Y-86086913D01*
X133407213Y-85981971D01*
X133407215Y-85981968D01*
X133407219Y-85981966D01*
X133551966Y-85837219D01*
X133551968Y-85837215D01*
X133551971Y-85837213D01*
X133653247Y-85697816D01*
X133672287Y-85671610D01*
X133765220Y-85489219D01*
X133828477Y-85294534D01*
X133860500Y-85092352D01*
X133860500Y-84887648D01*
X133828477Y-84685466D01*
X133824673Y-84673760D01*
X133765218Y-84490776D01*
X133731503Y-84424607D01*
X133672287Y-84308390D01*
X133664556Y-84297749D01*
X133551971Y-84142786D01*
X133407217Y-83998032D01*
X133330415Y-83942232D01*
X133287750Y-83886902D01*
X133281771Y-83817288D01*
X133314377Y-83755494D01*
X133372640Y-83721765D01*
X133393039Y-83716559D01*
X133449584Y-83693136D01*
X133449584Y-83693135D01*
X132689410Y-82932962D01*
X132752993Y-82915925D01*
X132867007Y-82850099D01*
X132960099Y-82757007D01*
X133025925Y-82642993D01*
X133042962Y-82579411D01*
X133803135Y-83339584D01*
X133803136Y-83339584D01*
X133826552Y-83283053D01*
X133844544Y-83232053D01*
X133864999Y-83089780D01*
X133865000Y-83089779D01*
X133865000Y-81810219D01*
X149035000Y-81810219D01*
X149035000Y-83089785D01*
X149037893Y-83143762D01*
X149037893Y-83143764D01*
X149073438Y-83283030D01*
X149073442Y-83283043D01*
X149096862Y-83339584D01*
X149857037Y-82579410D01*
X149874075Y-82642993D01*
X149939901Y-82757007D01*
X150032993Y-82850099D01*
X150147007Y-82915925D01*
X150210589Y-82932962D01*
X149450414Y-83693135D01*
X149506960Y-83716557D01*
X149506986Y-83716567D01*
X149535621Y-83726669D01*
X149592294Y-83767534D01*
X149617876Y-83832552D01*
X149604246Y-83901080D01*
X149567256Y-83943924D01*
X149492782Y-83998032D01*
X149348028Y-84142786D01*
X149227715Y-84308386D01*
X149134781Y-84490776D01*
X149071522Y-84685465D01*
X149039500Y-84887648D01*
X149039500Y-85092351D01*
X149071522Y-85294534D01*
X149134781Y-85489223D01*
X149227715Y-85671613D01*
X149348028Y-85837213D01*
X149492786Y-85981971D01*
X149647749Y-86094556D01*
X149658390Y-86102287D01*
X149742313Y-86145048D01*
X149751080Y-86149515D01*
X149801876Y-86197490D01*
X149818671Y-86265311D01*
X149796134Y-86331446D01*
X149751080Y-86370485D01*
X149658386Y-86417715D01*
X149492786Y-86538028D01*
X149348028Y-86682786D01*
X149227715Y-86848386D01*
X149134781Y-87030776D01*
X149071522Y-87225465D01*
X149039500Y-87427648D01*
X149039500Y-87632351D01*
X149071522Y-87834534D01*
X149134781Y-88029223D01*
X149227715Y-88211613D01*
X149348028Y-88377213D01*
X149492786Y-88521971D01*
X149647749Y-88634556D01*
X149658390Y-88642287D01*
X149742313Y-88685048D01*
X149751080Y-88689515D01*
X149801876Y-88737490D01*
X149818671Y-88805311D01*
X149796134Y-88871446D01*
X149751080Y-88910485D01*
X149658386Y-88957715D01*
X149492786Y-89078028D01*
X149348028Y-89222786D01*
X149227715Y-89388386D01*
X149134781Y-89570776D01*
X149071522Y-89765465D01*
X149039500Y-89967648D01*
X149039500Y-90172351D01*
X149071522Y-90374534D01*
X149134781Y-90569223D01*
X149227715Y-90751613D01*
X149348028Y-90917213D01*
X149492786Y-91061971D01*
X149647749Y-91174556D01*
X149658390Y-91182287D01*
X149742313Y-91225048D01*
X149751080Y-91229515D01*
X149801876Y-91277490D01*
X149818671Y-91345311D01*
X149796134Y-91411446D01*
X149751080Y-91450485D01*
X149658386Y-91497715D01*
X149492786Y-91618028D01*
X149348028Y-91762786D01*
X149227715Y-91928386D01*
X149134781Y-92110776D01*
X149071522Y-92305465D01*
X149039500Y-92507648D01*
X149039500Y-92712351D01*
X149071522Y-92914534D01*
X149134781Y-93109223D01*
X149227715Y-93291613D01*
X149348028Y-93457213D01*
X149492782Y-93601967D01*
X149492787Y-93601971D01*
X149569583Y-93657767D01*
X149612249Y-93713097D01*
X149618228Y-93782710D01*
X149585622Y-93844505D01*
X149527365Y-93878233D01*
X149506973Y-93883437D01*
X149506962Y-93883441D01*
X149450415Y-93906863D01*
X150210589Y-94667037D01*
X150147007Y-94684075D01*
X150032993Y-94749901D01*
X149939901Y-94842993D01*
X149874075Y-94957007D01*
X149857037Y-95020589D01*
X149096863Y-94260415D01*
X149096862Y-94260415D01*
X149073446Y-94316947D01*
X149073431Y-94316987D01*
X149055457Y-94367939D01*
X149055455Y-94367946D01*
X149035000Y-94510219D01*
X149035000Y-95789785D01*
X149037893Y-95843762D01*
X149037893Y-95843764D01*
X149073438Y-95983030D01*
X149073442Y-95983043D01*
X149096862Y-96039584D01*
X149857037Y-95279410D01*
X149874075Y-95342993D01*
X149939901Y-95457007D01*
X150032993Y-95550099D01*
X150147007Y-95615925D01*
X150210589Y-95632962D01*
X149450414Y-96393135D01*
X149506960Y-96416557D01*
X149506986Y-96416567D01*
X149535621Y-96426669D01*
X149592294Y-96467534D01*
X149617876Y-96532552D01*
X149604246Y-96601080D01*
X149567256Y-96643924D01*
X149492782Y-96698032D01*
X149348028Y-96842786D01*
X149227715Y-97008386D01*
X149134781Y-97190776D01*
X149071522Y-97385465D01*
X149039500Y-97587648D01*
X149039500Y-97792351D01*
X149071522Y-97994534D01*
X149134781Y-98189223D01*
X149227715Y-98371613D01*
X149348028Y-98537213D01*
X149492786Y-98681971D01*
X149647749Y-98794556D01*
X149658390Y-98802287D01*
X149732402Y-98839998D01*
X149751080Y-98849515D01*
X149801876Y-98897490D01*
X149818671Y-98965311D01*
X149796134Y-99031446D01*
X149751080Y-99070485D01*
X149658386Y-99117715D01*
X149492786Y-99238028D01*
X149348028Y-99382786D01*
X149227715Y-99548386D01*
X149134781Y-99730776D01*
X149071522Y-99925465D01*
X149047795Y-100075276D01*
X149039500Y-100127648D01*
X149039500Y-100332352D01*
X149043878Y-100359995D01*
X149071522Y-100534534D01*
X149134781Y-100729223D01*
X149227715Y-100911613D01*
X149348028Y-101077213D01*
X149492786Y-101221971D01*
X149647749Y-101334556D01*
X149658390Y-101342287D01*
X149742313Y-101385048D01*
X149751080Y-101389515D01*
X149801876Y-101437490D01*
X149818671Y-101505311D01*
X149796134Y-101571446D01*
X149751080Y-101610485D01*
X149658386Y-101657715D01*
X149492786Y-101778028D01*
X149348028Y-101922786D01*
X149227715Y-102088386D01*
X149134781Y-102270776D01*
X149071522Y-102465465D01*
X149039500Y-102667648D01*
X149039500Y-102872351D01*
X149071522Y-103074534D01*
X149134781Y-103269223D01*
X149227715Y-103451613D01*
X149348028Y-103617213D01*
X149492786Y-103761971D01*
X149647749Y-103874556D01*
X149658390Y-103882287D01*
X149732402Y-103919998D01*
X149751080Y-103929515D01*
X149801876Y-103977490D01*
X149818671Y-104045311D01*
X149796134Y-104111446D01*
X149751080Y-104150485D01*
X149658386Y-104197715D01*
X149492786Y-104318028D01*
X149348028Y-104462786D01*
X149227715Y-104628386D01*
X149134781Y-104810776D01*
X149071522Y-105005465D01*
X149040123Y-105203712D01*
X149039500Y-105207648D01*
X149039500Y-105412352D01*
X149043878Y-105439995D01*
X149071522Y-105614534D01*
X149134781Y-105809223D01*
X149227715Y-105991613D01*
X149348028Y-106157213D01*
X149492782Y-106301967D01*
X149492787Y-106301971D01*
X149569583Y-106357767D01*
X149612249Y-106413097D01*
X149618228Y-106482710D01*
X149585622Y-106544505D01*
X149527365Y-106578233D01*
X149506973Y-106583437D01*
X149506962Y-106583441D01*
X149450415Y-106606863D01*
X150210589Y-107367037D01*
X150147007Y-107384075D01*
X150032993Y-107449901D01*
X149939901Y-107542993D01*
X149874075Y-107657007D01*
X149857037Y-107720589D01*
X149096863Y-106960415D01*
X149096862Y-106960415D01*
X149073446Y-107016947D01*
X149073431Y-107016987D01*
X149055457Y-107067939D01*
X149055455Y-107067946D01*
X149035000Y-107210219D01*
X149035000Y-108489785D01*
X149037893Y-108543762D01*
X149037893Y-108543764D01*
X149073438Y-108683030D01*
X149073442Y-108683043D01*
X149096862Y-108739584D01*
X149857037Y-107979410D01*
X149874075Y-108042993D01*
X149939901Y-108157007D01*
X150032993Y-108250099D01*
X150147007Y-108315925D01*
X150210589Y-108332962D01*
X149450414Y-109093135D01*
X149506960Y-109116557D01*
X149506986Y-109116567D01*
X149535621Y-109126669D01*
X149592294Y-109167534D01*
X149617876Y-109232552D01*
X149604246Y-109301080D01*
X149567256Y-109343924D01*
X149492782Y-109398032D01*
X149348028Y-109542786D01*
X149227715Y-109708386D01*
X149134781Y-109890776D01*
X149071522Y-110085465D01*
X149039500Y-110287648D01*
X149039500Y-110492351D01*
X149071522Y-110694534D01*
X149134781Y-110889223D01*
X149227715Y-111071613D01*
X149348028Y-111237213D01*
X149492786Y-111381971D01*
X149647749Y-111494556D01*
X149658390Y-111502287D01*
X149742313Y-111545048D01*
X149751080Y-111549515D01*
X149801876Y-111597490D01*
X149818671Y-111665311D01*
X149796134Y-111731446D01*
X149751080Y-111770485D01*
X149658386Y-111817715D01*
X149492786Y-111938028D01*
X149348028Y-112082786D01*
X149227715Y-112248386D01*
X149134781Y-112430776D01*
X149071522Y-112625465D01*
X149039500Y-112827648D01*
X149039500Y-113032351D01*
X149071522Y-113234534D01*
X149134781Y-113429223D01*
X149227715Y-113611613D01*
X149348028Y-113777213D01*
X149492786Y-113921971D01*
X149647749Y-114034556D01*
X149658390Y-114042287D01*
X149742313Y-114085048D01*
X149751080Y-114089515D01*
X149801876Y-114137490D01*
X149818671Y-114205311D01*
X149796134Y-114271446D01*
X149751080Y-114310485D01*
X149658386Y-114357715D01*
X149492786Y-114478028D01*
X149348028Y-114622786D01*
X149227715Y-114788386D01*
X149134781Y-114970776D01*
X149071522Y-115165465D01*
X149039500Y-115367648D01*
X149039500Y-115572351D01*
X149071522Y-115774534D01*
X149134781Y-115969223D01*
X149227715Y-116151613D01*
X149348028Y-116317213D01*
X149492786Y-116461971D01*
X149647749Y-116574556D01*
X149658390Y-116582287D01*
X149742313Y-116625048D01*
X149751080Y-116629515D01*
X149801876Y-116677490D01*
X149818671Y-116745311D01*
X149796134Y-116811446D01*
X149751080Y-116850485D01*
X149658386Y-116897715D01*
X149492786Y-117018028D01*
X149348028Y-117162786D01*
X149227715Y-117328386D01*
X149134781Y-117510776D01*
X149071522Y-117705465D01*
X149039500Y-117907648D01*
X149039500Y-118112351D01*
X149071522Y-118314534D01*
X149134781Y-118509223D01*
X149227715Y-118691613D01*
X149348028Y-118857213D01*
X149492782Y-119001967D01*
X149492787Y-119001971D01*
X149569583Y-119057767D01*
X149612249Y-119113097D01*
X149618228Y-119182710D01*
X149585622Y-119244505D01*
X149527365Y-119278233D01*
X149506973Y-119283437D01*
X149506962Y-119283441D01*
X149450415Y-119306863D01*
X150210589Y-120067037D01*
X150147007Y-120084075D01*
X150032993Y-120149901D01*
X149939901Y-120242993D01*
X149874075Y-120357007D01*
X149857037Y-120420589D01*
X149096863Y-119660415D01*
X149096862Y-119660415D01*
X149073446Y-119716947D01*
X149073431Y-119716987D01*
X149055457Y-119767939D01*
X149055455Y-119767946D01*
X149035000Y-119910219D01*
X149035000Y-121189785D01*
X149037893Y-121243762D01*
X149037893Y-121243764D01*
X149073438Y-121383030D01*
X149073442Y-121383043D01*
X149096862Y-121439584D01*
X149857037Y-120679410D01*
X149874075Y-120742993D01*
X149939901Y-120857007D01*
X150032993Y-120950099D01*
X150147007Y-121015925D01*
X150210589Y-121032962D01*
X149450414Y-121793135D01*
X149506960Y-121816557D01*
X149506986Y-121816567D01*
X149535621Y-121826669D01*
X149592294Y-121867534D01*
X149617876Y-121932552D01*
X149604246Y-122001080D01*
X149567256Y-122043924D01*
X149492782Y-122098032D01*
X149348028Y-122242786D01*
X149227715Y-122408386D01*
X149134781Y-122590776D01*
X149071522Y-122785465D01*
X149039500Y-122987648D01*
X149039500Y-123192351D01*
X149071522Y-123394534D01*
X149134781Y-123589223D01*
X149227715Y-123771613D01*
X149348028Y-123937213D01*
X149492786Y-124081971D01*
X149579057Y-124144649D01*
X149658390Y-124202287D01*
X149742313Y-124245048D01*
X149751080Y-124249515D01*
X149801876Y-124297490D01*
X149818671Y-124365311D01*
X149796134Y-124431446D01*
X149751080Y-124470485D01*
X149658386Y-124517715D01*
X149492786Y-124638028D01*
X149348028Y-124782786D01*
X149227715Y-124948386D01*
X149134781Y-125130776D01*
X149071522Y-125325465D01*
X149039500Y-125527648D01*
X149039500Y-125732351D01*
X149071522Y-125934534D01*
X149134781Y-126129223D01*
X149227715Y-126311613D01*
X149348028Y-126477213D01*
X149492786Y-126621971D01*
X149630928Y-126722335D01*
X149658390Y-126742287D01*
X149742319Y-126785051D01*
X149840776Y-126835218D01*
X149840778Y-126835218D01*
X149840781Y-126835220D01*
X149945137Y-126869127D01*
X150035465Y-126898477D01*
X150136557Y-126914488D01*
X150237648Y-126930500D01*
X150237649Y-126930500D01*
X150442351Y-126930500D01*
X150442352Y-126930500D01*
X150644534Y-126898477D01*
X150839219Y-126835220D01*
X151021610Y-126742287D01*
X151134726Y-126660104D01*
X151187213Y-126621971D01*
X151187215Y-126621968D01*
X151187219Y-126621966D01*
X151331966Y-126477219D01*
X151331968Y-126477215D01*
X151331971Y-126477213D01*
X151433247Y-126337816D01*
X151452287Y-126311610D01*
X151545220Y-126129219D01*
X151608477Y-125934534D01*
X151640500Y-125732352D01*
X151640500Y-125527648D01*
X151608477Y-125325466D01*
X151604673Y-125313760D01*
X151545218Y-125130776D01*
X151511503Y-125064607D01*
X151452287Y-124948390D01*
X151444556Y-124937749D01*
X151331971Y-124782786D01*
X151187213Y-124638028D01*
X151021614Y-124517715D01*
X151015006Y-124514348D01*
X150928917Y-124470483D01*
X150878123Y-124422511D01*
X150861328Y-124354690D01*
X150883865Y-124288555D01*
X150928917Y-124249516D01*
X151021610Y-124202287D01*
X151100943Y-124144649D01*
X151187213Y-124081971D01*
X151187215Y-124081968D01*
X151187219Y-124081966D01*
X151331966Y-123937219D01*
X151331968Y-123937215D01*
X151331971Y-123937213D01*
X151433247Y-123797816D01*
X151452287Y-123771610D01*
X151545220Y-123589219D01*
X151608477Y-123394534D01*
X151640500Y-123192352D01*
X151640500Y-122987648D01*
X151608477Y-122785466D01*
X151604673Y-122773760D01*
X151545218Y-122590776D01*
X151511503Y-122524607D01*
X151452287Y-122408390D01*
X151444556Y-122397749D01*
X151331971Y-122242786D01*
X151187213Y-122098028D01*
X151021614Y-121977715D01*
X151013410Y-121973535D01*
X150935703Y-121933941D01*
X150884908Y-121885968D01*
X150868113Y-121818147D01*
X150890650Y-121752012D01*
X150933546Y-121714099D01*
X150999503Y-121678843D01*
X150999515Y-121678837D01*
X151068913Y-121632465D01*
X150469410Y-121032962D01*
X150532993Y-121015925D01*
X150647007Y-120950099D01*
X150740099Y-120857007D01*
X150805925Y-120742993D01*
X150822962Y-120679410D01*
X151422465Y-121278913D01*
X151468837Y-121209515D01*
X151468838Y-121209511D01*
X151515509Y-121122198D01*
X151575814Y-120976612D01*
X151604555Y-120881864D01*
X151635298Y-120727302D01*
X151635298Y-120727299D01*
X151645000Y-120628789D01*
X151645000Y-120471210D01*
X151643013Y-120451034D01*
X151635298Y-120372700D01*
X151635298Y-120372697D01*
X151604555Y-120218135D01*
X151575814Y-120123387D01*
X151515509Y-119977801D01*
X151468844Y-119890498D01*
X151468838Y-119890488D01*
X151422465Y-119821085D01*
X150822962Y-120420588D01*
X150805925Y-120357007D01*
X150740099Y-120242993D01*
X150647007Y-120149901D01*
X150532993Y-120084075D01*
X150469410Y-120067037D01*
X151068912Y-119467534D01*
X150999511Y-119421161D01*
X150999500Y-119421155D01*
X150933545Y-119385900D01*
X150883701Y-119336937D01*
X150868241Y-119268799D01*
X150892073Y-119203119D01*
X150935702Y-119166059D01*
X151021610Y-119122287D01*
X151112745Y-119056074D01*
X151187213Y-119001971D01*
X151187215Y-119001968D01*
X151187219Y-119001966D01*
X151331966Y-118857219D01*
X151331968Y-118857215D01*
X151331971Y-118857213D01*
X151384732Y-118784590D01*
X151452287Y-118691610D01*
X151545220Y-118509219D01*
X151608477Y-118314534D01*
X151640500Y-118112352D01*
X151640500Y-117907648D01*
X151608477Y-117705466D01*
X151604673Y-117693760D01*
X151561168Y-117559863D01*
X151545220Y-117510781D01*
X151545218Y-117510778D01*
X151545218Y-117510776D01*
X151511503Y-117444607D01*
X151452287Y-117328390D01*
X151444556Y-117317749D01*
X151331971Y-117162786D01*
X151187213Y-117018028D01*
X151021614Y-116897715D01*
X151015006Y-116894348D01*
X150928917Y-116850483D01*
X150878123Y-116802511D01*
X150861328Y-116734690D01*
X150883865Y-116668555D01*
X150928917Y-116629516D01*
X151021610Y-116582287D01*
X151042770Y-116566913D01*
X151187213Y-116461971D01*
X151187215Y-116461968D01*
X151187219Y-116461966D01*
X151331966Y-116317219D01*
X151331968Y-116317215D01*
X151331971Y-116317213D01*
X151433247Y-116177816D01*
X151452287Y-116151610D01*
X151545220Y-115969219D01*
X151608477Y-115774534D01*
X151640500Y-115572352D01*
X151640500Y-115367648D01*
X151608477Y-115165466D01*
X151604673Y-115153760D01*
X151545218Y-114970776D01*
X151511503Y-114904607D01*
X151452287Y-114788390D01*
X151444556Y-114777749D01*
X151331971Y-114622786D01*
X151187213Y-114478028D01*
X151021614Y-114357715D01*
X151015006Y-114354348D01*
X150928917Y-114310483D01*
X150878123Y-114262511D01*
X150861328Y-114194690D01*
X150883865Y-114128555D01*
X150928917Y-114089516D01*
X151021610Y-114042287D01*
X151042770Y-114026913D01*
X151187213Y-113921971D01*
X151187215Y-113921968D01*
X151187219Y-113921966D01*
X151331966Y-113777219D01*
X151331968Y-113777215D01*
X151331971Y-113777213D01*
X151433247Y-113637816D01*
X151452287Y-113611610D01*
X151545220Y-113429219D01*
X151608477Y-113234534D01*
X151640500Y-113032352D01*
X151640500Y-112827648D01*
X151608477Y-112625466D01*
X151604673Y-112613760D01*
X151545218Y-112430776D01*
X151511503Y-112364607D01*
X151452287Y-112248390D01*
X151444556Y-112237749D01*
X151331971Y-112082786D01*
X151187213Y-111938028D01*
X151021614Y-111817715D01*
X151015006Y-111814348D01*
X150928917Y-111770483D01*
X150878123Y-111722511D01*
X150861328Y-111654690D01*
X150883865Y-111588555D01*
X150928917Y-111549516D01*
X151021610Y-111502287D01*
X151042770Y-111486913D01*
X151187213Y-111381971D01*
X151187215Y-111381968D01*
X151187219Y-111381966D01*
X151331966Y-111237219D01*
X151331968Y-111237215D01*
X151331971Y-111237213D01*
X151433247Y-111097816D01*
X151452287Y-111071610D01*
X151545220Y-110889219D01*
X151608477Y-110694534D01*
X151640500Y-110492352D01*
X151640500Y-110287648D01*
X151608477Y-110085466D01*
X151604673Y-110073760D01*
X151545218Y-109890776D01*
X151511503Y-109824607D01*
X151452287Y-109708390D01*
X151444556Y-109697749D01*
X151331971Y-109542786D01*
X151187213Y-109398028D01*
X151021614Y-109277715D01*
X151013410Y-109273535D01*
X150935703Y-109233941D01*
X150884908Y-109185968D01*
X150868113Y-109118147D01*
X150890650Y-109052012D01*
X150933546Y-109014099D01*
X150999503Y-108978843D01*
X150999515Y-108978837D01*
X151068913Y-108932465D01*
X150469410Y-108332962D01*
X150532993Y-108315925D01*
X150647007Y-108250099D01*
X150740099Y-108157007D01*
X150805925Y-108042993D01*
X150822962Y-107979410D01*
X151422465Y-108578913D01*
X151468837Y-108509515D01*
X151468838Y-108509511D01*
X151515509Y-108422198D01*
X151575814Y-108276612D01*
X151604555Y-108181864D01*
X151635298Y-108027302D01*
X151635298Y-108027299D01*
X151645000Y-107928789D01*
X151645000Y-107771210D01*
X151643013Y-107751034D01*
X151635298Y-107672700D01*
X151635298Y-107672697D01*
X151604555Y-107518135D01*
X151575814Y-107423387D01*
X151515509Y-107277801D01*
X151468844Y-107190498D01*
X151468838Y-107190488D01*
X151422465Y-107121085D01*
X150822962Y-107720588D01*
X150805925Y-107657007D01*
X150740099Y-107542993D01*
X150647007Y-107449901D01*
X150532993Y-107384075D01*
X150469410Y-107367037D01*
X151068912Y-106767534D01*
X150999511Y-106721161D01*
X150999500Y-106721155D01*
X150933545Y-106685900D01*
X150883701Y-106636937D01*
X150868241Y-106568799D01*
X150892073Y-106503119D01*
X150935702Y-106466059D01*
X151021610Y-106422287D01*
X151112745Y-106356074D01*
X151187213Y-106301971D01*
X151187215Y-106301968D01*
X151187219Y-106301966D01*
X151331966Y-106157219D01*
X151331968Y-106157215D01*
X151331971Y-106157213D01*
X151433247Y-106017816D01*
X151452287Y-105991610D01*
X151545220Y-105809219D01*
X151608477Y-105614534D01*
X151640500Y-105412352D01*
X151640500Y-105207648D01*
X151608477Y-105005466D01*
X151604673Y-104993760D01*
X151545218Y-104810776D01*
X151475149Y-104673260D01*
X151452287Y-104628390D01*
X151444556Y-104617749D01*
X151331971Y-104462786D01*
X151187213Y-104318028D01*
X151021614Y-104197715D01*
X150963169Y-104167936D01*
X150928917Y-104150483D01*
X150878123Y-104102511D01*
X150861328Y-104034690D01*
X150883865Y-103968555D01*
X150928917Y-103929516D01*
X151021610Y-103882287D01*
X151084931Y-103836282D01*
X151187213Y-103761971D01*
X151187215Y-103761968D01*
X151187219Y-103761966D01*
X151331966Y-103617219D01*
X151331968Y-103617215D01*
X151331971Y-103617213D01*
X151433247Y-103477816D01*
X151452287Y-103451610D01*
X151545220Y-103269219D01*
X151608477Y-103074534D01*
X151640500Y-102872352D01*
X151640500Y-102667648D01*
X151608477Y-102465466D01*
X151604673Y-102453760D01*
X151545218Y-102270776D01*
X151498728Y-102179536D01*
X151452287Y-102088390D01*
X151444556Y-102077749D01*
X151331971Y-101922786D01*
X151187213Y-101778028D01*
X151021614Y-101657715D01*
X151015006Y-101654348D01*
X150928917Y-101610483D01*
X150878123Y-101562511D01*
X150861328Y-101494690D01*
X150883865Y-101428555D01*
X150928917Y-101389516D01*
X151021610Y-101342287D01*
X151042770Y-101326913D01*
X151187213Y-101221971D01*
X151187215Y-101221968D01*
X151187219Y-101221966D01*
X151331966Y-101077219D01*
X151331968Y-101077215D01*
X151331971Y-101077213D01*
X151433247Y-100937816D01*
X151452287Y-100911610D01*
X151545220Y-100729219D01*
X151608477Y-100534534D01*
X151640500Y-100332352D01*
X151640500Y-100127648D01*
X151608477Y-99925466D01*
X151604673Y-99913760D01*
X151545218Y-99730776D01*
X151475149Y-99593260D01*
X151452287Y-99548390D01*
X151444556Y-99537749D01*
X151331971Y-99382786D01*
X151187213Y-99238028D01*
X151021614Y-99117715D01*
X150963169Y-99087936D01*
X150928917Y-99070483D01*
X150878123Y-99022511D01*
X150861328Y-98954690D01*
X150883865Y-98888555D01*
X150928917Y-98849516D01*
X151021610Y-98802287D01*
X151084931Y-98756282D01*
X151187213Y-98681971D01*
X151187215Y-98681968D01*
X151187219Y-98681966D01*
X151331966Y-98537219D01*
X151331968Y-98537215D01*
X151331971Y-98537213D01*
X151433247Y-98397816D01*
X151452287Y-98371610D01*
X151545220Y-98189219D01*
X151608477Y-97994534D01*
X151640500Y-97792352D01*
X151640500Y-97587648D01*
X151608477Y-97385466D01*
X151604673Y-97373760D01*
X151545218Y-97190776D01*
X151511503Y-97124607D01*
X151452287Y-97008390D01*
X151444556Y-96997749D01*
X151331971Y-96842786D01*
X151187213Y-96698028D01*
X151021614Y-96577715D01*
X151013410Y-96573535D01*
X150935703Y-96533941D01*
X150884908Y-96485968D01*
X150868113Y-96418147D01*
X150890650Y-96352012D01*
X150933546Y-96314099D01*
X150999503Y-96278843D01*
X150999515Y-96278837D01*
X151068913Y-96232465D01*
X150469410Y-95632962D01*
X150532993Y-95615925D01*
X150647007Y-95550099D01*
X150740099Y-95457007D01*
X150805925Y-95342993D01*
X150822962Y-95279410D01*
X151422465Y-95878913D01*
X151468837Y-95809515D01*
X151468838Y-95809511D01*
X151515509Y-95722198D01*
X151575814Y-95576612D01*
X151604555Y-95481864D01*
X151635298Y-95327302D01*
X151635298Y-95327299D01*
X151645000Y-95228789D01*
X151645000Y-95071210D01*
X151643013Y-95051034D01*
X151635298Y-94972700D01*
X151635298Y-94972697D01*
X151604555Y-94818135D01*
X151575814Y-94723387D01*
X151515509Y-94577801D01*
X151468844Y-94490498D01*
X151468838Y-94490488D01*
X151422465Y-94421085D01*
X150822962Y-95020588D01*
X150805925Y-94957007D01*
X150740099Y-94842993D01*
X150647007Y-94749901D01*
X150532993Y-94684075D01*
X150469410Y-94667037D01*
X151068912Y-94067534D01*
X150999511Y-94021161D01*
X150999500Y-94021155D01*
X150933545Y-93985900D01*
X150883701Y-93936937D01*
X150868241Y-93868799D01*
X150892073Y-93803119D01*
X150935702Y-93766059D01*
X151021610Y-93722287D01*
X151071144Y-93686298D01*
X151187213Y-93601971D01*
X151187215Y-93601968D01*
X151187219Y-93601966D01*
X151331966Y-93457219D01*
X151331968Y-93457215D01*
X151331971Y-93457213D01*
X151384732Y-93384590D01*
X151452287Y-93291610D01*
X151545220Y-93109219D01*
X151608477Y-92914534D01*
X151640500Y-92712352D01*
X151640500Y-92507648D01*
X151608477Y-92305466D01*
X151608413Y-92305270D01*
X151579127Y-92215137D01*
X151545220Y-92110781D01*
X151545218Y-92110778D01*
X151545218Y-92110776D01*
X151511503Y-92044607D01*
X151452287Y-91928390D01*
X151444556Y-91917749D01*
X151331971Y-91762786D01*
X151187213Y-91618028D01*
X151021614Y-91497715D01*
X151015006Y-91494348D01*
X150928917Y-91450483D01*
X150878123Y-91402511D01*
X150861328Y-91334690D01*
X150883865Y-91268555D01*
X150928917Y-91229516D01*
X151021610Y-91182287D01*
X151042770Y-91166913D01*
X151187213Y-91061971D01*
X151187215Y-91061968D01*
X151187219Y-91061966D01*
X151331966Y-90917219D01*
X151331968Y-90917215D01*
X151331971Y-90917213D01*
X151384732Y-90844590D01*
X151452287Y-90751610D01*
X151545220Y-90569219D01*
X151608477Y-90374534D01*
X151640500Y-90172352D01*
X151640500Y-89967648D01*
X151608477Y-89765466D01*
X151608413Y-89765270D01*
X151579127Y-89675137D01*
X151545220Y-89570781D01*
X151545218Y-89570778D01*
X151545218Y-89570776D01*
X151511503Y-89504607D01*
X151452287Y-89388390D01*
X151444556Y-89377749D01*
X151331971Y-89222786D01*
X151187213Y-89078028D01*
X151021614Y-88957715D01*
X151015006Y-88954348D01*
X150928917Y-88910483D01*
X150878123Y-88862511D01*
X150861328Y-88794690D01*
X150883865Y-88728555D01*
X150928917Y-88689516D01*
X151021610Y-88642287D01*
X151042770Y-88626913D01*
X151187213Y-88521971D01*
X151187215Y-88521968D01*
X151187219Y-88521966D01*
X151331966Y-88377219D01*
X151331968Y-88377215D01*
X151331971Y-88377213D01*
X151384732Y-88304590D01*
X151452287Y-88211610D01*
X151545220Y-88029219D01*
X151608477Y-87834534D01*
X151640500Y-87632352D01*
X151640500Y-87427648D01*
X151636652Y-87403350D01*
X151608477Y-87225465D01*
X151545218Y-87030776D01*
X151511503Y-86964607D01*
X151452287Y-86848390D01*
X151444556Y-86837749D01*
X151331971Y-86682786D01*
X151187213Y-86538028D01*
X151021614Y-86417715D01*
X151015006Y-86414348D01*
X150928917Y-86370483D01*
X150878123Y-86322511D01*
X150861328Y-86254690D01*
X150883865Y-86188555D01*
X150928917Y-86149516D01*
X151021610Y-86102287D01*
X151042770Y-86086913D01*
X151187213Y-85981971D01*
X151187215Y-85981968D01*
X151187219Y-85981966D01*
X151331966Y-85837219D01*
X151331968Y-85837215D01*
X151331971Y-85837213D01*
X151433247Y-85697816D01*
X151452287Y-85671610D01*
X151545220Y-85489219D01*
X151608477Y-85294534D01*
X151640500Y-85092352D01*
X151640500Y-84887648D01*
X151608477Y-84685466D01*
X151604673Y-84673760D01*
X151545218Y-84490776D01*
X151511503Y-84424607D01*
X151452287Y-84308390D01*
X151444556Y-84297749D01*
X151331971Y-84142786D01*
X151187213Y-83998028D01*
X151021614Y-83877715D01*
X151013410Y-83873535D01*
X150935703Y-83833941D01*
X150884908Y-83785968D01*
X150868113Y-83718147D01*
X150890650Y-83652012D01*
X150933546Y-83614099D01*
X150999503Y-83578843D01*
X150999515Y-83578837D01*
X151068913Y-83532465D01*
X150469410Y-82932962D01*
X150532993Y-82915925D01*
X150647007Y-82850099D01*
X150740099Y-82757007D01*
X150805925Y-82642993D01*
X150822962Y-82579410D01*
X151422465Y-83178913D01*
X151468837Y-83109515D01*
X151468838Y-83109511D01*
X151515509Y-83022198D01*
X151575814Y-82876612D01*
X151604555Y-82781864D01*
X151635298Y-82627302D01*
X151635298Y-82627299D01*
X151645000Y-82528789D01*
X151645000Y-82371210D01*
X151643013Y-82351034D01*
X151635298Y-82272700D01*
X151635298Y-82272697D01*
X151604555Y-82118135D01*
X151575814Y-82023387D01*
X151515509Y-81877801D01*
X151468844Y-81790498D01*
X151468838Y-81790488D01*
X151422465Y-81721085D01*
X150822962Y-82320588D01*
X150805925Y-82257007D01*
X150740099Y-82142993D01*
X150647007Y-82049901D01*
X150532993Y-81984075D01*
X150469410Y-81967037D01*
X151068912Y-81367534D01*
X150999511Y-81321161D01*
X150999500Y-81321155D01*
X150933545Y-81285900D01*
X150883701Y-81236937D01*
X150868241Y-81168799D01*
X150892073Y-81103119D01*
X150935702Y-81066059D01*
X151021610Y-81022287D01*
X151112745Y-80956074D01*
X151187213Y-80901971D01*
X151187215Y-80901968D01*
X151187219Y-80901966D01*
X151331966Y-80757219D01*
X151331968Y-80757215D01*
X151331971Y-80757213D01*
X151429834Y-80622514D01*
X151452287Y-80591610D01*
X151545220Y-80409219D01*
X151608477Y-80214534D01*
X151640500Y-80012352D01*
X151640500Y-79807648D01*
X151633620Y-79764210D01*
X151608477Y-79605465D01*
X151579127Y-79515137D01*
X151545220Y-79410781D01*
X151545218Y-79410778D01*
X151545218Y-79410776D01*
X151511503Y-79344607D01*
X151452287Y-79228390D01*
X151444556Y-79217749D01*
X151331971Y-79062786D01*
X151187213Y-78918028D01*
X151021614Y-78797715D01*
X150997951Y-78785658D01*
X150928917Y-78750483D01*
X150878123Y-78702511D01*
X150861328Y-78634690D01*
X150883865Y-78568555D01*
X150928917Y-78529516D01*
X151021610Y-78482287D01*
X151127733Y-78405185D01*
X151187213Y-78361971D01*
X151187215Y-78361968D01*
X151187219Y-78361966D01*
X151331966Y-78217219D01*
X151331968Y-78217215D01*
X151331971Y-78217213D01*
X151433247Y-78077816D01*
X151452287Y-78051610D01*
X151545220Y-77869219D01*
X151608477Y-77674534D01*
X151640500Y-77472352D01*
X151640500Y-77267648D01*
X151639877Y-77263713D01*
X153989500Y-77263713D01*
X153989500Y-77476287D01*
X154022754Y-77686243D01*
X154064992Y-77816239D01*
X154088444Y-77888414D01*
X154184951Y-78077820D01*
X154309890Y-78249786D01*
X154460213Y-78400109D01*
X154632182Y-78525050D01*
X154640946Y-78529516D01*
X154691742Y-78577491D01*
X154708536Y-78645312D01*
X154685998Y-78711447D01*
X154640946Y-78750484D01*
X154632182Y-78754949D01*
X154460213Y-78879890D01*
X154309890Y-79030213D01*
X154184951Y-79202179D01*
X154088444Y-79391585D01*
X154022753Y-79593760D01*
X153989500Y-79803713D01*
X153989500Y-80016286D01*
X154020899Y-80214535D01*
X154022754Y-80226243D01*
X154032011Y-80254734D01*
X154088444Y-80428414D01*
X154184951Y-80617820D01*
X154309890Y-80789786D01*
X154460213Y-80940109D01*
X154632179Y-81065048D01*
X154632181Y-81065049D01*
X154632184Y-81065051D01*
X154641493Y-81069794D01*
X154692290Y-81117766D01*
X154709087Y-81185587D01*
X154686552Y-81251722D01*
X154641505Y-81290760D01*
X154632446Y-81295376D01*
X154632440Y-81295380D01*
X154578282Y-81334727D01*
X154578282Y-81334728D01*
X155210591Y-81967037D01*
X155147007Y-81984075D01*
X155032993Y-82049901D01*
X154939901Y-82142993D01*
X154874075Y-82257007D01*
X154857037Y-82320591D01*
X154224728Y-81688282D01*
X154224727Y-81688282D01*
X154185380Y-81742439D01*
X154088904Y-81931782D01*
X154023242Y-82133869D01*
X154023242Y-82133872D01*
X153990000Y-82343753D01*
X153990000Y-82556246D01*
X154023242Y-82766127D01*
X154023242Y-82766130D01*
X154088904Y-82968217D01*
X154185375Y-83157550D01*
X154224728Y-83211716D01*
X154857037Y-82579408D01*
X154874075Y-82642993D01*
X154939901Y-82757007D01*
X155032993Y-82850099D01*
X155147007Y-82915925D01*
X155210590Y-82932962D01*
X154578282Y-83565269D01*
X154578282Y-83565270D01*
X154632452Y-83604626D01*
X154632451Y-83604626D01*
X154641495Y-83609234D01*
X154692292Y-83657208D01*
X154709087Y-83725029D01*
X154686550Y-83791164D01*
X154641499Y-83830202D01*
X154632182Y-83834949D01*
X154460213Y-83959890D01*
X154309890Y-84110213D01*
X154184951Y-84282179D01*
X154088444Y-84471585D01*
X154022753Y-84673760D01*
X153989500Y-84883713D01*
X153989500Y-85096286D01*
X154022753Y-85306239D01*
X154088444Y-85508414D01*
X154184951Y-85697820D01*
X154309890Y-85869786D01*
X154460213Y-86020109D01*
X154632182Y-86145050D01*
X154640946Y-86149516D01*
X154691742Y-86197491D01*
X154708536Y-86265312D01*
X154685998Y-86331447D01*
X154640946Y-86370484D01*
X154632182Y-86374949D01*
X154460213Y-86499890D01*
X154309890Y-86650213D01*
X154184951Y-86822179D01*
X154088444Y-87011585D01*
X154022753Y-87213760D01*
X154006315Y-87317546D01*
X153989500Y-87423713D01*
X153989500Y-87636287D01*
X154022754Y-87846243D01*
X154054013Y-87942449D01*
X154088444Y-88048414D01*
X154184951Y-88237820D01*
X154309890Y-88409786D01*
X154460213Y-88560109D01*
X154632182Y-88685050D01*
X154640946Y-88689516D01*
X154691742Y-88737491D01*
X154708536Y-88805312D01*
X154685998Y-88871447D01*
X154640946Y-88910484D01*
X154632182Y-88914949D01*
X154460213Y-89039890D01*
X154309890Y-89190213D01*
X154184951Y-89362179D01*
X154088444Y-89551585D01*
X154022753Y-89753760D01*
X153995582Y-89925312D01*
X153989500Y-89963713D01*
X153989500Y-90176287D01*
X154022754Y-90386243D01*
X154054013Y-90482449D01*
X154088444Y-90588414D01*
X154184951Y-90777820D01*
X154309890Y-90949786D01*
X154460213Y-91100109D01*
X154632182Y-91225050D01*
X154640946Y-91229516D01*
X154691742Y-91277491D01*
X154708536Y-91345312D01*
X154685998Y-91411447D01*
X154640946Y-91450484D01*
X154632182Y-91454949D01*
X154460213Y-91579890D01*
X154309890Y-91730213D01*
X154184951Y-91902179D01*
X154088444Y-92091585D01*
X154022753Y-92293760D01*
X153995582Y-92465312D01*
X153989500Y-92503713D01*
X153989500Y-92716287D01*
X154022754Y-92926243D01*
X154054013Y-93022449D01*
X154088444Y-93128414D01*
X154184951Y-93317820D01*
X154309890Y-93489786D01*
X154460213Y-93640109D01*
X154632179Y-93765048D01*
X154632181Y-93765049D01*
X154632184Y-93765051D01*
X154641493Y-93769794D01*
X154692290Y-93817766D01*
X154709087Y-93885587D01*
X154686552Y-93951722D01*
X154641505Y-93990760D01*
X154632446Y-93995376D01*
X154632440Y-93995380D01*
X154578282Y-94034727D01*
X154578282Y-94034728D01*
X155210591Y-94667037D01*
X155147007Y-94684075D01*
X155032993Y-94749901D01*
X154939901Y-94842993D01*
X154874075Y-94957007D01*
X154857037Y-95020591D01*
X154224728Y-94388282D01*
X154224727Y-94388282D01*
X154185380Y-94442439D01*
X154088904Y-94631782D01*
X154023242Y-94833869D01*
X154023242Y-94833872D01*
X153990000Y-95043753D01*
X153990000Y-95256246D01*
X154023242Y-95466127D01*
X154023242Y-95466130D01*
X154088904Y-95668217D01*
X154185375Y-95857550D01*
X154224728Y-95911716D01*
X154857037Y-95279408D01*
X154874075Y-95342993D01*
X154939901Y-95457007D01*
X155032993Y-95550099D01*
X155147007Y-95615925D01*
X155210590Y-95632962D01*
X154578282Y-96265269D01*
X154578282Y-96265270D01*
X154632452Y-96304626D01*
X154632451Y-96304626D01*
X154641495Y-96309234D01*
X154692292Y-96357208D01*
X154709087Y-96425029D01*
X154686550Y-96491164D01*
X154641499Y-96530202D01*
X154632182Y-96534949D01*
X154460213Y-96659890D01*
X154309890Y-96810213D01*
X154184951Y-96982179D01*
X154088444Y-97171585D01*
X154022753Y-97373760D01*
X153989500Y-97583713D01*
X153989500Y-97796286D01*
X154019913Y-97988310D01*
X154022754Y-98006243D01*
X154048909Y-98086740D01*
X154088444Y-98208414D01*
X154184951Y-98397820D01*
X154309890Y-98569786D01*
X154460213Y-98720109D01*
X154632182Y-98845050D01*
X154640946Y-98849516D01*
X154691742Y-98897491D01*
X154708536Y-98965312D01*
X154685998Y-99031447D01*
X154640946Y-99070484D01*
X154632182Y-99074949D01*
X154460213Y-99199890D01*
X154309890Y-99350213D01*
X154184951Y-99522179D01*
X154088444Y-99711585D01*
X154022753Y-99913760D01*
X153989500Y-100123713D01*
X153989500Y-100336286D01*
X154022753Y-100546239D01*
X154088444Y-100748414D01*
X154184951Y-100937820D01*
X154309890Y-101109786D01*
X154460213Y-101260109D01*
X154632182Y-101385050D01*
X154640946Y-101389516D01*
X154691742Y-101437491D01*
X154708536Y-101505312D01*
X154685998Y-101571447D01*
X154640946Y-101610484D01*
X154632182Y-101614949D01*
X154460213Y-101739890D01*
X154309890Y-101890213D01*
X154184951Y-102062179D01*
X154088444Y-102251585D01*
X154022753Y-102453760D01*
X153989500Y-102663713D01*
X153989500Y-102876286D01*
X154019913Y-103068310D01*
X154022754Y-103086243D01*
X154048909Y-103166740D01*
X154088444Y-103288414D01*
X154184951Y-103477820D01*
X154309890Y-103649786D01*
X154460213Y-103800109D01*
X154632182Y-103925050D01*
X154640946Y-103929516D01*
X154691742Y-103977491D01*
X154708536Y-104045312D01*
X154685998Y-104111447D01*
X154640946Y-104150484D01*
X154632182Y-104154949D01*
X154460213Y-104279890D01*
X154309890Y-104430213D01*
X154184951Y-104602179D01*
X154088444Y-104791585D01*
X154022753Y-104993760D01*
X153989500Y-105203713D01*
X153989500Y-105416286D01*
X154022753Y-105626239D01*
X154088444Y-105828414D01*
X154184951Y-106017820D01*
X154309890Y-106189786D01*
X154460213Y-106340109D01*
X154632179Y-106465048D01*
X154632181Y-106465049D01*
X154632184Y-106465051D01*
X154641493Y-106469794D01*
X154692290Y-106517766D01*
X154709087Y-106585587D01*
X154686552Y-106651722D01*
X154641505Y-106690760D01*
X154632446Y-106695376D01*
X154632440Y-106695380D01*
X154578282Y-106734727D01*
X154578282Y-106734728D01*
X155210591Y-107367037D01*
X155147007Y-107384075D01*
X155032993Y-107449901D01*
X154939901Y-107542993D01*
X154874075Y-107657007D01*
X154857037Y-107720591D01*
X154224728Y-107088282D01*
X154224727Y-107088282D01*
X154185380Y-107142439D01*
X154088904Y-107331782D01*
X154023242Y-107533869D01*
X154023242Y-107533872D01*
X153990000Y-107743753D01*
X153990000Y-107956246D01*
X154023242Y-108166127D01*
X154023242Y-108166130D01*
X154088904Y-108368217D01*
X154185375Y-108557550D01*
X154224728Y-108611716D01*
X154857037Y-107979408D01*
X154874075Y-108042993D01*
X154939901Y-108157007D01*
X155032993Y-108250099D01*
X155147007Y-108315925D01*
X155210590Y-108332962D01*
X154578282Y-108965269D01*
X154578282Y-108965270D01*
X154632452Y-109004626D01*
X154632451Y-109004626D01*
X154641495Y-109009234D01*
X154692292Y-109057208D01*
X154709087Y-109125029D01*
X154686550Y-109191164D01*
X154641499Y-109230202D01*
X154632182Y-109234949D01*
X154460213Y-109359890D01*
X154309890Y-109510213D01*
X154184951Y-109682179D01*
X154088444Y-109871585D01*
X154022753Y-110073760D01*
X153989500Y-110283713D01*
X153989500Y-110496286D01*
X154022753Y-110706239D01*
X154088444Y-110908414D01*
X154184951Y-111097820D01*
X154309890Y-111269786D01*
X154460213Y-111420109D01*
X154632182Y-111545050D01*
X154640946Y-111549516D01*
X154691742Y-111597491D01*
X154708536Y-111665312D01*
X154685998Y-111731447D01*
X154640946Y-111770484D01*
X154632182Y-111774949D01*
X154460213Y-111899890D01*
X154309890Y-112050213D01*
X154184951Y-112222179D01*
X154088444Y-112411585D01*
X154022753Y-112613760D01*
X153989500Y-112823713D01*
X153989500Y-113036286D01*
X154022753Y-113246239D01*
X154088444Y-113448414D01*
X154184951Y-113637820D01*
X154309890Y-113809786D01*
X154460213Y-113960109D01*
X154632182Y-114085050D01*
X154640946Y-114089516D01*
X154691742Y-114137491D01*
X154708536Y-114205312D01*
X154685998Y-114271447D01*
X154640946Y-114310484D01*
X154632182Y-114314949D01*
X154460213Y-114439890D01*
X154309890Y-114590213D01*
X154184951Y-114762179D01*
X154088444Y-114951585D01*
X154022753Y-115153760D01*
X154016917Y-115190609D01*
X153989500Y-115363713D01*
X153989500Y-115576287D01*
X154022754Y-115786243D01*
X154085334Y-115978844D01*
X154088444Y-115988414D01*
X154184951Y-116177820D01*
X154309890Y-116349786D01*
X154460213Y-116500109D01*
X154632182Y-116625050D01*
X154640946Y-116629516D01*
X154691742Y-116677491D01*
X154708536Y-116745312D01*
X154685998Y-116811447D01*
X154640946Y-116850484D01*
X154632182Y-116854949D01*
X154460213Y-116979890D01*
X154309890Y-117130213D01*
X154184951Y-117302179D01*
X154088444Y-117491585D01*
X154022753Y-117693760D01*
X153995392Y-117866510D01*
X153989500Y-117903713D01*
X153989500Y-118116287D01*
X154022754Y-118326243D01*
X154079211Y-118500000D01*
X154088444Y-118528414D01*
X154184951Y-118717820D01*
X154309890Y-118889786D01*
X154460213Y-119040109D01*
X154632179Y-119165048D01*
X154632181Y-119165049D01*
X154632184Y-119165051D01*
X154641493Y-119169794D01*
X154692290Y-119217766D01*
X154709087Y-119285587D01*
X154686552Y-119351722D01*
X154641505Y-119390760D01*
X154632446Y-119395376D01*
X154632440Y-119395380D01*
X154578282Y-119434727D01*
X154578282Y-119434728D01*
X155210591Y-120067037D01*
X155147007Y-120084075D01*
X155032993Y-120149901D01*
X154939901Y-120242993D01*
X154874075Y-120357007D01*
X154857037Y-120420591D01*
X154224728Y-119788282D01*
X154224727Y-119788282D01*
X154185380Y-119842439D01*
X154088904Y-120031782D01*
X154023242Y-120233869D01*
X154023242Y-120233872D01*
X153990000Y-120443753D01*
X153990000Y-120656246D01*
X154023242Y-120866127D01*
X154023242Y-120866130D01*
X154088904Y-121068217D01*
X154185375Y-121257550D01*
X154224728Y-121311716D01*
X154857037Y-120679408D01*
X154874075Y-120742993D01*
X154939901Y-120857007D01*
X155032993Y-120950099D01*
X155147007Y-121015925D01*
X155210590Y-121032962D01*
X154578282Y-121665269D01*
X154578282Y-121665270D01*
X154632452Y-121704626D01*
X154632451Y-121704626D01*
X154641495Y-121709234D01*
X154692292Y-121757208D01*
X154709087Y-121825029D01*
X154686550Y-121891164D01*
X154641499Y-121930202D01*
X154632182Y-121934949D01*
X154460213Y-122059890D01*
X154309890Y-122210213D01*
X154184951Y-122382179D01*
X154088444Y-122571585D01*
X154022753Y-122773760D01*
X153989500Y-122983713D01*
X153989500Y-123196286D01*
X154022753Y-123406239D01*
X154088444Y-123608414D01*
X154184951Y-123797820D01*
X154309890Y-123969786D01*
X154423430Y-124083326D01*
X154456915Y-124144649D01*
X154451931Y-124214341D01*
X154410059Y-124270274D01*
X154379083Y-124287189D01*
X154247669Y-124336203D01*
X154247664Y-124336206D01*
X154132455Y-124422452D01*
X154132452Y-124422455D01*
X154046206Y-124537664D01*
X154046202Y-124537671D01*
X153995908Y-124672517D01*
X153989501Y-124732116D01*
X153989501Y-124732123D01*
X153989500Y-124732135D01*
X153989500Y-126527870D01*
X153989501Y-126527876D01*
X153995908Y-126587483D01*
X154046202Y-126722328D01*
X154046206Y-126722335D01*
X154132452Y-126837544D01*
X154132455Y-126837547D01*
X154247664Y-126923793D01*
X154247671Y-126923797D01*
X154382517Y-126974091D01*
X154382516Y-126974091D01*
X154389444Y-126974835D01*
X154442127Y-126980500D01*
X156237872Y-126980499D01*
X156297483Y-126974091D01*
X156432331Y-126923796D01*
X156547546Y-126837546D01*
X156633796Y-126722331D01*
X156684091Y-126587483D01*
X156690500Y-126527873D01*
X156690499Y-124732128D01*
X156684091Y-124672517D01*
X156671227Y-124638028D01*
X156633797Y-124537671D01*
X156633793Y-124537664D01*
X156547547Y-124422455D01*
X156547544Y-124422452D01*
X156432335Y-124336206D01*
X156432328Y-124336202D01*
X156300917Y-124287189D01*
X156244983Y-124245318D01*
X156220566Y-124179853D01*
X156235418Y-124111580D01*
X156256563Y-124083332D01*
X156370104Y-123969792D01*
X156495051Y-123797816D01*
X156591557Y-123608412D01*
X156657246Y-123406243D01*
X156690500Y-123196287D01*
X156690500Y-122983713D01*
X156657246Y-122773757D01*
X156591557Y-122571588D01*
X156495051Y-122382184D01*
X156495049Y-122382181D01*
X156495048Y-122382179D01*
X156370109Y-122210213D01*
X156219786Y-122059890D01*
X156047817Y-121934949D01*
X156038504Y-121930204D01*
X155987707Y-121882230D01*
X155970912Y-121814409D01*
X155993449Y-121748274D01*
X156038507Y-121709232D01*
X156047555Y-121704622D01*
X156101716Y-121665270D01*
X156101717Y-121665270D01*
X155469408Y-121032962D01*
X155532993Y-121015925D01*
X155647007Y-120950099D01*
X155740099Y-120857007D01*
X155805925Y-120742993D01*
X155822962Y-120679408D01*
X156455270Y-121311717D01*
X156455270Y-121311716D01*
X156494622Y-121257554D01*
X156591095Y-121068217D01*
X156656757Y-120866130D01*
X156656757Y-120866127D01*
X156690000Y-120656246D01*
X156690000Y-120443753D01*
X156656757Y-120233872D01*
X156656757Y-120233869D01*
X156591095Y-120031782D01*
X156494624Y-119842449D01*
X156455270Y-119788282D01*
X156455269Y-119788282D01*
X155822962Y-120420590D01*
X155805925Y-120357007D01*
X155740099Y-120242993D01*
X155647007Y-120149901D01*
X155532993Y-120084075D01*
X155469409Y-120067037D01*
X156101716Y-119434728D01*
X156047547Y-119395373D01*
X156047547Y-119395372D01*
X156038500Y-119390763D01*
X155987706Y-119342788D01*
X155970912Y-119274966D01*
X155993451Y-119208832D01*
X156038508Y-119169793D01*
X156047816Y-119165051D01*
X156195481Y-119057767D01*
X156219786Y-119040109D01*
X156219788Y-119040106D01*
X156219792Y-119040104D01*
X156370104Y-118889792D01*
X156370106Y-118889788D01*
X156370109Y-118889786D01*
X156495048Y-118717820D01*
X156495047Y-118717820D01*
X156495051Y-118717816D01*
X156591557Y-118528412D01*
X156657246Y-118326243D01*
X156690500Y-118116287D01*
X156690500Y-117903713D01*
X156657246Y-117693757D01*
X156591557Y-117491588D01*
X156495051Y-117302184D01*
X156495049Y-117302181D01*
X156495048Y-117302179D01*
X156370109Y-117130213D01*
X156219786Y-116979890D01*
X156047820Y-116854951D01*
X156047115Y-116854591D01*
X156039054Y-116850485D01*
X155988259Y-116802512D01*
X155971463Y-116734692D01*
X155993999Y-116668556D01*
X156039054Y-116629515D01*
X156047816Y-116625051D01*
X156106680Y-116582284D01*
X156219786Y-116500109D01*
X156219788Y-116500106D01*
X156219792Y-116500104D01*
X156370104Y-116349792D01*
X156370106Y-116349788D01*
X156370109Y-116349786D01*
X156495048Y-116177820D01*
X156495047Y-116177820D01*
X156495051Y-116177816D01*
X156591557Y-115988412D01*
X156645903Y-115821153D01*
X162149500Y-115821153D01*
X162149500Y-115978846D01*
X162180261Y-116133489D01*
X162180264Y-116133501D01*
X162240602Y-116279172D01*
X162240609Y-116279184D01*
X162303602Y-116373459D01*
X162324480Y-116440136D01*
X162324500Y-116442350D01*
X162324500Y-117557650D01*
X162304815Y-117624689D01*
X162303602Y-117626541D01*
X162240609Y-117720815D01*
X162240602Y-117720828D01*
X162180264Y-117866498D01*
X162180261Y-117866510D01*
X162149500Y-118021153D01*
X162149500Y-118178846D01*
X162180261Y-118333489D01*
X162180264Y-118333501D01*
X162240602Y-118479172D01*
X162240609Y-118479185D01*
X162328210Y-118610288D01*
X162328213Y-118610292D01*
X162439707Y-118721786D01*
X162439711Y-118721789D01*
X162570814Y-118809390D01*
X162570827Y-118809397D01*
X162716498Y-118869735D01*
X162716503Y-118869737D01*
X162817326Y-118889792D01*
X162871153Y-118900499D01*
X162871156Y-118900500D01*
X162871158Y-118900500D01*
X163028844Y-118900500D01*
X163028845Y-118900499D01*
X163183497Y-118869737D01*
X163329179Y-118809394D01*
X163460289Y-118721789D01*
X163571789Y-118610289D01*
X163659394Y-118479179D01*
X163719737Y-118333497D01*
X163750500Y-118178842D01*
X163750500Y-118021158D01*
X163750500Y-118021155D01*
X163750499Y-118021153D01*
X163727921Y-117907648D01*
X163719737Y-117866503D01*
X163659394Y-117720821D01*
X163596397Y-117626539D01*
X163575520Y-117559863D01*
X163575500Y-117557650D01*
X163575500Y-116442350D01*
X163595185Y-116375311D01*
X163596398Y-116373459D01*
X163633980Y-116317213D01*
X163659394Y-116279179D01*
X163719737Y-116133497D01*
X163750500Y-115978842D01*
X163750500Y-115821158D01*
X163750500Y-115821155D01*
X163750499Y-115821153D01*
X163719738Y-115666510D01*
X163719737Y-115666503D01*
X163682369Y-115576287D01*
X163659397Y-115520827D01*
X163659390Y-115520814D01*
X163571789Y-115389711D01*
X163571786Y-115389707D01*
X163460292Y-115278213D01*
X163460288Y-115278210D01*
X163329185Y-115190609D01*
X163329172Y-115190602D01*
X163183501Y-115130264D01*
X163183489Y-115130261D01*
X163028845Y-115099500D01*
X163028842Y-115099500D01*
X162871158Y-115099500D01*
X162871155Y-115099500D01*
X162716510Y-115130261D01*
X162716498Y-115130264D01*
X162570827Y-115190602D01*
X162570814Y-115190609D01*
X162439711Y-115278210D01*
X162439707Y-115278213D01*
X162328213Y-115389707D01*
X162328210Y-115389711D01*
X162240609Y-115520814D01*
X162240602Y-115520827D01*
X162180264Y-115666498D01*
X162180261Y-115666510D01*
X162149500Y-115821153D01*
X156645903Y-115821153D01*
X156657246Y-115786243D01*
X156690500Y-115576287D01*
X156690500Y-115363713D01*
X156657246Y-115153757D01*
X156591557Y-114951588D01*
X156495051Y-114762184D01*
X156495049Y-114762181D01*
X156495048Y-114762179D01*
X156370109Y-114590213D01*
X156219786Y-114439890D01*
X156047820Y-114314951D01*
X156047115Y-114314591D01*
X156039054Y-114310485D01*
X155988259Y-114262512D01*
X155971463Y-114194692D01*
X155993999Y-114128556D01*
X156039054Y-114089515D01*
X156047816Y-114085051D01*
X156106680Y-114042284D01*
X156219786Y-113960109D01*
X156219788Y-113960106D01*
X156219792Y-113960104D01*
X156370104Y-113809792D01*
X156370106Y-113809788D01*
X156370109Y-113809786D01*
X156495048Y-113637820D01*
X156495047Y-113637820D01*
X156495051Y-113637816D01*
X156591557Y-113448412D01*
X156657246Y-113246243D01*
X156690500Y-113036287D01*
X156690500Y-112823713D01*
X156657246Y-112613757D01*
X156591557Y-112411588D01*
X156495051Y-112222184D01*
X156495049Y-112222181D01*
X156495048Y-112222179D01*
X156370109Y-112050213D01*
X156219786Y-111899890D01*
X156047820Y-111774951D01*
X156047115Y-111774591D01*
X156039054Y-111770485D01*
X155988259Y-111722512D01*
X155971463Y-111654692D01*
X155993999Y-111588556D01*
X156039054Y-111549515D01*
X156047816Y-111545051D01*
X156106680Y-111502284D01*
X156219786Y-111420109D01*
X156219788Y-111420106D01*
X156219792Y-111420104D01*
X156370104Y-111269792D01*
X156370106Y-111269788D01*
X156370109Y-111269786D01*
X156495048Y-111097820D01*
X156495047Y-111097820D01*
X156495051Y-111097816D01*
X156591557Y-110908412D01*
X156657246Y-110706243D01*
X156690500Y-110496287D01*
X156690500Y-110283713D01*
X156657246Y-110073757D01*
X156591557Y-109871588D01*
X156495051Y-109682184D01*
X156495049Y-109682181D01*
X156495048Y-109682179D01*
X156370109Y-109510213D01*
X156219786Y-109359890D01*
X156047817Y-109234949D01*
X156038504Y-109230204D01*
X155987707Y-109182230D01*
X155970912Y-109114409D01*
X155993449Y-109048274D01*
X156038507Y-109009232D01*
X156047555Y-109004622D01*
X156101716Y-108965270D01*
X156101717Y-108965270D01*
X155469408Y-108332962D01*
X155532993Y-108315925D01*
X155647007Y-108250099D01*
X155740099Y-108157007D01*
X155805925Y-108042993D01*
X155822962Y-107979408D01*
X156455270Y-108611717D01*
X156455270Y-108611716D01*
X156494622Y-108557554D01*
X156591095Y-108368217D01*
X156656757Y-108166130D01*
X156656757Y-108166127D01*
X156690000Y-107956246D01*
X156690000Y-107743753D01*
X156656757Y-107533872D01*
X156656757Y-107533869D01*
X156591095Y-107331782D01*
X156494624Y-107142449D01*
X156455270Y-107088282D01*
X156455269Y-107088282D01*
X155822962Y-107720590D01*
X155805925Y-107657007D01*
X155740099Y-107542993D01*
X155647007Y-107449901D01*
X155532993Y-107384075D01*
X155469409Y-107367037D01*
X156101716Y-106734728D01*
X156047547Y-106695373D01*
X156047547Y-106695372D01*
X156038500Y-106690763D01*
X155987706Y-106642788D01*
X155970912Y-106574966D01*
X155993451Y-106508832D01*
X156038508Y-106469793D01*
X156047816Y-106465051D01*
X156195481Y-106357767D01*
X156219786Y-106340109D01*
X156219788Y-106340106D01*
X156219792Y-106340104D01*
X156370104Y-106189792D01*
X156370106Y-106189788D01*
X156370109Y-106189786D01*
X156495048Y-106017820D01*
X156495047Y-106017820D01*
X156495051Y-106017816D01*
X156591557Y-105828412D01*
X156657246Y-105626243D01*
X156690500Y-105416287D01*
X156690500Y-105203713D01*
X156657246Y-104993757D01*
X156591557Y-104791588D01*
X156495051Y-104602184D01*
X156495049Y-104602181D01*
X156495048Y-104602179D01*
X156370109Y-104430213D01*
X156219786Y-104279890D01*
X156047820Y-104154951D01*
X156047115Y-104154591D01*
X156039054Y-104150485D01*
X155988259Y-104102512D01*
X155971463Y-104034692D01*
X155993999Y-103968556D01*
X156039054Y-103929515D01*
X156047816Y-103925051D01*
X156169997Y-103836282D01*
X156219786Y-103800109D01*
X156219788Y-103800106D01*
X156219792Y-103800104D01*
X156227786Y-103792110D01*
X164295000Y-103792110D01*
X164295000Y-104047889D01*
X164335013Y-104300523D01*
X164414051Y-104543781D01*
X164414052Y-104543784D01*
X164530175Y-104771686D01*
X164607850Y-104878595D01*
X164607850Y-104878596D01*
X165165884Y-104320561D01*
X165166740Y-104322626D01*
X165259762Y-104461844D01*
X165378156Y-104580238D01*
X165517374Y-104673260D01*
X165519437Y-104674114D01*
X164961402Y-105232148D01*
X165068313Y-105309824D01*
X165296215Y-105425947D01*
X165296218Y-105425948D01*
X165539476Y-105504986D01*
X165792111Y-105545000D01*
X166047889Y-105545000D01*
X166300523Y-105504986D01*
X166543781Y-105425948D01*
X166543784Y-105425947D01*
X166771685Y-105309825D01*
X166878595Y-105232148D01*
X166878596Y-105232148D01*
X166320562Y-104674114D01*
X166322626Y-104673260D01*
X166461844Y-104580238D01*
X166580238Y-104461844D01*
X166673260Y-104322626D01*
X166674114Y-104320562D01*
X167232148Y-104878596D01*
X167232148Y-104878595D01*
X167309825Y-104771685D01*
X167425947Y-104543784D01*
X167425948Y-104543781D01*
X167504986Y-104300523D01*
X167545000Y-104047889D01*
X167545000Y-103792110D01*
X169375000Y-103792110D01*
X169375000Y-104047889D01*
X169415013Y-104300523D01*
X169494051Y-104543781D01*
X169494052Y-104543784D01*
X169610175Y-104771686D01*
X169687850Y-104878595D01*
X169687850Y-104878596D01*
X170245884Y-104320561D01*
X170246740Y-104322626D01*
X170339762Y-104461844D01*
X170458156Y-104580238D01*
X170597374Y-104673260D01*
X170599437Y-104674114D01*
X170041402Y-105232148D01*
X170148313Y-105309824D01*
X170376215Y-105425947D01*
X170376218Y-105425948D01*
X170619476Y-105504986D01*
X170872111Y-105545000D01*
X171127889Y-105545000D01*
X171380523Y-105504986D01*
X171623781Y-105425948D01*
X171623784Y-105425947D01*
X171851685Y-105309825D01*
X171958595Y-105232148D01*
X171958596Y-105232148D01*
X171400562Y-104674114D01*
X171402626Y-104673260D01*
X171541844Y-104580238D01*
X171660238Y-104461844D01*
X171753260Y-104322626D01*
X171754114Y-104320562D01*
X172312148Y-104878596D01*
X172312148Y-104878595D01*
X172389825Y-104771685D01*
X172505947Y-104543784D01*
X172505948Y-104543781D01*
X172584986Y-104300523D01*
X172625000Y-104047889D01*
X172625000Y-103792110D01*
X172584986Y-103539476D01*
X172505948Y-103296218D01*
X172505947Y-103296215D01*
X172389824Y-103068313D01*
X172312148Y-102961403D01*
X172312148Y-102961402D01*
X171754114Y-103519436D01*
X171753260Y-103517374D01*
X171660238Y-103378156D01*
X171541844Y-103259762D01*
X171402626Y-103166740D01*
X171400560Y-103165884D01*
X171958596Y-102607850D01*
X171851686Y-102530175D01*
X171623784Y-102414052D01*
X171623781Y-102414051D01*
X171380523Y-102335013D01*
X171127889Y-102295000D01*
X170872111Y-102295000D01*
X170619476Y-102335013D01*
X170376218Y-102414051D01*
X170376215Y-102414052D01*
X170148310Y-102530177D01*
X170041403Y-102607849D01*
X170041402Y-102607850D01*
X170599437Y-103165885D01*
X170597374Y-103166740D01*
X170458156Y-103259762D01*
X170339762Y-103378156D01*
X170246740Y-103517374D01*
X170245885Y-103519437D01*
X169687850Y-102961402D01*
X169687849Y-102961403D01*
X169610177Y-103068310D01*
X169494052Y-103296215D01*
X169494051Y-103296218D01*
X169415013Y-103539476D01*
X169375000Y-103792110D01*
X167545000Y-103792110D01*
X167504986Y-103539476D01*
X167425948Y-103296218D01*
X167425947Y-103296215D01*
X167309824Y-103068313D01*
X167232148Y-102961403D01*
X167232148Y-102961402D01*
X166674114Y-103519436D01*
X166673260Y-103517374D01*
X166580238Y-103378156D01*
X166461844Y-103259762D01*
X166322626Y-103166740D01*
X166320560Y-103165884D01*
X166878596Y-102607850D01*
X166771686Y-102530175D01*
X166543784Y-102414052D01*
X166543781Y-102414051D01*
X166300523Y-102335013D01*
X166047889Y-102295000D01*
X165792111Y-102295000D01*
X165539476Y-102335013D01*
X165296218Y-102414051D01*
X165296215Y-102414052D01*
X165068310Y-102530177D01*
X164961403Y-102607849D01*
X164961402Y-102607850D01*
X165519437Y-103165885D01*
X165517374Y-103166740D01*
X165378156Y-103259762D01*
X165259762Y-103378156D01*
X165166740Y-103517374D01*
X165165885Y-103519437D01*
X164607850Y-102961402D01*
X164607849Y-102961403D01*
X164530177Y-103068310D01*
X164414052Y-103296215D01*
X164414051Y-103296218D01*
X164335013Y-103539476D01*
X164295000Y-103792110D01*
X156227786Y-103792110D01*
X156370104Y-103649792D01*
X156370106Y-103649788D01*
X156370109Y-103649786D01*
X156495048Y-103477820D01*
X156495047Y-103477820D01*
X156495051Y-103477816D01*
X156591557Y-103288412D01*
X156657246Y-103086243D01*
X156690500Y-102876287D01*
X156690500Y-102663713D01*
X156657246Y-102453757D01*
X156591557Y-102251588D01*
X156495051Y-102062184D01*
X156495049Y-102062181D01*
X156495048Y-102062179D01*
X156370109Y-101890213D01*
X156219786Y-101739890D01*
X156047820Y-101614951D01*
X156047115Y-101614591D01*
X156039054Y-101610485D01*
X155988259Y-101562512D01*
X155971463Y-101494692D01*
X155993999Y-101428556D01*
X156039054Y-101389515D01*
X156047816Y-101385051D01*
X156106680Y-101342284D01*
X156219786Y-101260109D01*
X156219788Y-101260106D01*
X156219792Y-101260104D01*
X156219955Y-101259941D01*
X166934500Y-101259941D01*
X166934500Y-101500059D01*
X166944392Y-101562512D01*
X166972063Y-101737222D01*
X167046265Y-101965593D01*
X167155276Y-102179536D01*
X167296414Y-102373796D01*
X167466204Y-102543586D01*
X167660464Y-102684724D01*
X167761543Y-102736226D01*
X167874406Y-102793734D01*
X167874408Y-102793734D01*
X167874411Y-102793736D01*
X168102778Y-102867937D01*
X168339941Y-102905500D01*
X168339942Y-102905500D01*
X168580058Y-102905500D01*
X168580059Y-102905500D01*
X168817222Y-102867937D01*
X169045589Y-102793736D01*
X169259536Y-102684724D01*
X169453796Y-102543586D01*
X169623586Y-102373796D01*
X169764724Y-102179536D01*
X169873736Y-101965589D01*
X169947937Y-101737222D01*
X169985500Y-101500059D01*
X169985500Y-101259941D01*
X169947937Y-101022778D01*
X169873736Y-100794411D01*
X169873734Y-100794408D01*
X169873734Y-100794406D01*
X169764723Y-100580463D01*
X169731354Y-100534534D01*
X169623586Y-100386204D01*
X169453796Y-100216414D01*
X169259536Y-100075276D01*
X169045593Y-99966265D01*
X168817222Y-99892063D01*
X168580059Y-99854500D01*
X168339941Y-99854500D01*
X168221359Y-99873281D01*
X168102777Y-99892063D01*
X167874406Y-99966265D01*
X167660463Y-100075276D01*
X167466201Y-100216416D01*
X167296416Y-100386201D01*
X167155276Y-100580463D01*
X167046265Y-100794406D01*
X166972063Y-101022777D01*
X166972063Y-101022778D01*
X166934500Y-101259941D01*
X156219955Y-101259941D01*
X156370104Y-101109792D01*
X156370106Y-101109788D01*
X156370109Y-101109786D01*
X156495048Y-100937820D01*
X156495047Y-100937820D01*
X156495051Y-100937816D01*
X156591557Y-100748412D01*
X156657246Y-100546243D01*
X156690500Y-100336287D01*
X156690500Y-100123713D01*
X156657246Y-99913757D01*
X156591557Y-99711588D01*
X156495051Y-99522184D01*
X156495049Y-99522181D01*
X156495048Y-99522179D01*
X156370109Y-99350213D01*
X156219786Y-99199890D01*
X156047820Y-99074951D01*
X156047115Y-99074591D01*
X156039054Y-99070485D01*
X155988259Y-99022512D01*
X155971463Y-98954692D01*
X155993999Y-98888556D01*
X156039054Y-98849515D01*
X156047816Y-98845051D01*
X156169997Y-98756282D01*
X156219786Y-98720109D01*
X156219788Y-98720106D01*
X156219792Y-98720104D01*
X156227786Y-98712110D01*
X164295000Y-98712110D01*
X164295000Y-98967889D01*
X164335013Y-99220523D01*
X164414051Y-99463781D01*
X164414052Y-99463784D01*
X164530175Y-99691686D01*
X164607850Y-99798595D01*
X164607850Y-99798596D01*
X165165884Y-99240561D01*
X165166740Y-99242626D01*
X165259762Y-99381844D01*
X165378156Y-99500238D01*
X165517374Y-99593260D01*
X165519437Y-99594114D01*
X164961402Y-100152148D01*
X165068313Y-100229824D01*
X165296215Y-100345947D01*
X165296218Y-100345948D01*
X165539476Y-100424986D01*
X165792111Y-100465000D01*
X166047889Y-100465000D01*
X166300523Y-100424986D01*
X166543781Y-100345948D01*
X166543784Y-100345947D01*
X166771685Y-100229825D01*
X166878595Y-100152148D01*
X166878596Y-100152148D01*
X166320562Y-99594114D01*
X166322626Y-99593260D01*
X166461844Y-99500238D01*
X166580238Y-99381844D01*
X166673260Y-99242626D01*
X166674114Y-99240562D01*
X167232148Y-99798596D01*
X167232148Y-99798595D01*
X167309825Y-99691685D01*
X167425947Y-99463784D01*
X167425948Y-99463781D01*
X167504986Y-99220523D01*
X167545000Y-98967889D01*
X167545000Y-98712110D01*
X169375000Y-98712110D01*
X169375000Y-98967889D01*
X169415013Y-99220523D01*
X169494051Y-99463781D01*
X169494052Y-99463784D01*
X169610175Y-99691686D01*
X169687850Y-99798595D01*
X169687850Y-99798596D01*
X170245884Y-99240561D01*
X170246740Y-99242626D01*
X170339762Y-99381844D01*
X170458156Y-99500238D01*
X170597374Y-99593260D01*
X170599437Y-99594114D01*
X170041402Y-100152148D01*
X170148313Y-100229824D01*
X170376215Y-100345947D01*
X170376218Y-100345948D01*
X170619476Y-100424986D01*
X170872111Y-100465000D01*
X171127889Y-100465000D01*
X171380523Y-100424986D01*
X171623781Y-100345948D01*
X171623784Y-100345947D01*
X171851685Y-100229825D01*
X171958595Y-100152148D01*
X171958596Y-100152148D01*
X171400562Y-99594114D01*
X171402626Y-99593260D01*
X171541844Y-99500238D01*
X171660238Y-99381844D01*
X171753260Y-99242626D01*
X171754114Y-99240562D01*
X172312148Y-99798596D01*
X172312148Y-99798595D01*
X172389825Y-99691685D01*
X172505947Y-99463784D01*
X172505948Y-99463781D01*
X172584986Y-99220523D01*
X172625000Y-98967889D01*
X172625000Y-98712110D01*
X172584986Y-98459476D01*
X172505948Y-98216218D01*
X172505947Y-98216215D01*
X172389824Y-97988313D01*
X172312148Y-97881403D01*
X172312148Y-97881402D01*
X171754114Y-98439436D01*
X171753260Y-98437374D01*
X171660238Y-98298156D01*
X171541844Y-98179762D01*
X171402626Y-98086740D01*
X171400560Y-98085884D01*
X171958596Y-97527850D01*
X171851686Y-97450175D01*
X171623784Y-97334052D01*
X171623781Y-97334051D01*
X171380523Y-97255013D01*
X171127889Y-97215000D01*
X170872111Y-97215000D01*
X170619476Y-97255013D01*
X170376218Y-97334051D01*
X170376215Y-97334052D01*
X170148310Y-97450177D01*
X170041403Y-97527849D01*
X170041402Y-97527850D01*
X170599437Y-98085885D01*
X170597374Y-98086740D01*
X170458156Y-98179762D01*
X170339762Y-98298156D01*
X170246740Y-98437374D01*
X170245885Y-98439437D01*
X169687850Y-97881402D01*
X169687849Y-97881403D01*
X169610177Y-97988310D01*
X169494052Y-98216215D01*
X169494051Y-98216218D01*
X169415013Y-98459476D01*
X169375000Y-98712110D01*
X167545000Y-98712110D01*
X167504986Y-98459476D01*
X167425948Y-98216218D01*
X167425947Y-98216215D01*
X167309824Y-97988313D01*
X167232148Y-97881403D01*
X167232148Y-97881402D01*
X166674114Y-98439436D01*
X166673260Y-98437374D01*
X166580238Y-98298156D01*
X166461844Y-98179762D01*
X166322626Y-98086740D01*
X166320560Y-98085884D01*
X166878596Y-97527850D01*
X166771686Y-97450175D01*
X166543784Y-97334052D01*
X166543781Y-97334051D01*
X166300523Y-97255013D01*
X166047889Y-97215000D01*
X165792111Y-97215000D01*
X165539476Y-97255013D01*
X165296218Y-97334051D01*
X165296215Y-97334052D01*
X165068310Y-97450177D01*
X164961403Y-97527849D01*
X164961402Y-97527850D01*
X165519437Y-98085885D01*
X165517374Y-98086740D01*
X165378156Y-98179762D01*
X165259762Y-98298156D01*
X165166740Y-98437374D01*
X165165885Y-98439437D01*
X164607850Y-97881402D01*
X164607849Y-97881403D01*
X164530177Y-97988310D01*
X164414052Y-98216215D01*
X164414051Y-98216218D01*
X164335013Y-98459476D01*
X164295000Y-98712110D01*
X156227786Y-98712110D01*
X156370104Y-98569792D01*
X156370106Y-98569788D01*
X156370109Y-98569786D01*
X156495048Y-98397820D01*
X156495047Y-98397820D01*
X156495051Y-98397816D01*
X156591557Y-98208412D01*
X156657246Y-98006243D01*
X156690500Y-97796287D01*
X156690500Y-97583713D01*
X156657246Y-97373757D01*
X156591557Y-97171588D01*
X156495051Y-96982184D01*
X156495049Y-96982181D01*
X156495048Y-96982179D01*
X156370109Y-96810213D01*
X156219786Y-96659890D01*
X156047817Y-96534949D01*
X156038504Y-96530204D01*
X155987707Y-96482230D01*
X155970912Y-96414409D01*
X155993449Y-96348274D01*
X156038507Y-96309232D01*
X156047555Y-96304622D01*
X156101716Y-96265270D01*
X156101717Y-96265270D01*
X155469408Y-95632962D01*
X155532993Y-95615925D01*
X155647007Y-95550099D01*
X155740099Y-95457007D01*
X155805925Y-95342993D01*
X155822962Y-95279408D01*
X156455270Y-95911717D01*
X156455270Y-95911716D01*
X156494622Y-95857554D01*
X156591095Y-95668217D01*
X156656757Y-95466130D01*
X156656757Y-95466127D01*
X156690000Y-95256246D01*
X156690000Y-95043753D01*
X156656757Y-94833872D01*
X156656757Y-94833869D01*
X156591095Y-94631782D01*
X156494624Y-94442449D01*
X156455270Y-94388282D01*
X156455269Y-94388282D01*
X155822962Y-95020590D01*
X155805925Y-94957007D01*
X155740099Y-94842993D01*
X155647007Y-94749901D01*
X155532993Y-94684075D01*
X155469409Y-94667037D01*
X156101716Y-94034728D01*
X156047547Y-93995373D01*
X156047547Y-93995372D01*
X156038500Y-93990763D01*
X155987706Y-93942788D01*
X155970912Y-93874966D01*
X155993451Y-93808832D01*
X156038508Y-93769793D01*
X156047816Y-93765051D01*
X156138844Y-93698916D01*
X156219786Y-93640109D01*
X156219788Y-93640106D01*
X156219792Y-93640104D01*
X156370104Y-93489792D01*
X156370106Y-93489788D01*
X156370109Y-93489786D01*
X156495048Y-93317820D01*
X156495047Y-93317820D01*
X156495051Y-93317816D01*
X156591557Y-93128412D01*
X156657246Y-92926243D01*
X156690500Y-92716287D01*
X156690500Y-92503713D01*
X156657246Y-92293757D01*
X156591557Y-92091588D01*
X156495051Y-91902184D01*
X156495049Y-91902181D01*
X156495048Y-91902179D01*
X156370109Y-91730213D01*
X156219786Y-91579890D01*
X156047820Y-91454951D01*
X156047115Y-91454591D01*
X156039054Y-91450485D01*
X155988259Y-91402512D01*
X155971463Y-91334692D01*
X155993999Y-91268556D01*
X156039054Y-91229515D01*
X156047816Y-91225051D01*
X156106680Y-91182284D01*
X156219786Y-91100109D01*
X156219788Y-91100106D01*
X156219792Y-91100104D01*
X156370104Y-90949792D01*
X156370106Y-90949788D01*
X156370109Y-90949786D01*
X156495048Y-90777820D01*
X156495047Y-90777820D01*
X156495051Y-90777816D01*
X156591557Y-90588412D01*
X156657246Y-90386243D01*
X156690500Y-90176287D01*
X156690500Y-89963713D01*
X156657246Y-89753757D01*
X156591557Y-89551588D01*
X156495051Y-89362184D01*
X156495049Y-89362181D01*
X156495048Y-89362179D01*
X156370109Y-89190213D01*
X156219786Y-89039890D01*
X156047820Y-88914951D01*
X156047115Y-88914591D01*
X156039054Y-88910485D01*
X155988259Y-88862512D01*
X155971463Y-88794692D01*
X155993999Y-88728556D01*
X156039054Y-88689515D01*
X156047816Y-88685051D01*
X156106680Y-88642284D01*
X156219786Y-88560109D01*
X156219788Y-88560106D01*
X156219792Y-88560104D01*
X156370104Y-88409792D01*
X156370106Y-88409788D01*
X156370109Y-88409786D01*
X156495048Y-88237820D01*
X156495047Y-88237820D01*
X156495051Y-88237816D01*
X156591557Y-88048412D01*
X156657246Y-87846243D01*
X156690500Y-87636287D01*
X156690500Y-87423713D01*
X156657246Y-87213757D01*
X156591557Y-87011588D01*
X156495051Y-86822184D01*
X156495049Y-86822181D01*
X156495048Y-86822179D01*
X156370109Y-86650213D01*
X156219786Y-86499890D01*
X156047820Y-86374951D01*
X156047115Y-86374591D01*
X156039054Y-86370485D01*
X155988259Y-86322512D01*
X155971463Y-86254692D01*
X155993999Y-86188556D01*
X156039054Y-86149515D01*
X156047816Y-86145051D01*
X156106680Y-86102284D01*
X156219786Y-86020109D01*
X156219788Y-86020106D01*
X156219792Y-86020104D01*
X156370104Y-85869792D01*
X156370106Y-85869788D01*
X156370109Y-85869786D01*
X156495048Y-85697820D01*
X156495047Y-85697820D01*
X156495051Y-85697816D01*
X156591557Y-85508412D01*
X156657246Y-85306243D01*
X156672151Y-85212135D01*
X163359500Y-85212135D01*
X163359500Y-87007870D01*
X163359501Y-87007876D01*
X163365908Y-87067483D01*
X163416202Y-87202328D01*
X163416206Y-87202335D01*
X163502452Y-87317544D01*
X163502455Y-87317547D01*
X163617664Y-87403793D01*
X163617671Y-87403797D01*
X163749082Y-87452810D01*
X163805016Y-87494681D01*
X163829433Y-87560145D01*
X163814582Y-87628418D01*
X163793431Y-87656673D01*
X163679889Y-87770215D01*
X163554951Y-87942179D01*
X163458444Y-88131585D01*
X163392753Y-88333760D01*
X163391291Y-88342993D01*
X163359500Y-88543713D01*
X163359500Y-88756287D01*
X163365583Y-88794692D01*
X163392735Y-88966127D01*
X163392754Y-88966243D01*
X163429077Y-89078034D01*
X163458444Y-89168414D01*
X163554951Y-89357820D01*
X163679890Y-89529786D01*
X163830213Y-89680109D01*
X164002182Y-89805050D01*
X164010946Y-89809516D01*
X164061742Y-89857491D01*
X164078536Y-89925312D01*
X164055998Y-89991447D01*
X164010946Y-90030484D01*
X164002182Y-90034949D01*
X163830213Y-90159890D01*
X163679890Y-90310213D01*
X163554951Y-90482179D01*
X163458444Y-90671585D01*
X163392753Y-90873760D01*
X163391291Y-90882993D01*
X163359500Y-91083713D01*
X163359500Y-91296287D01*
X163365583Y-91334692D01*
X163392735Y-91506127D01*
X163392754Y-91506243D01*
X163429077Y-91618034D01*
X163458444Y-91708414D01*
X163554951Y-91897820D01*
X163679890Y-92069786D01*
X163830213Y-92220109D01*
X164002182Y-92345050D01*
X164010946Y-92349516D01*
X164061742Y-92397491D01*
X164078536Y-92465312D01*
X164055998Y-92531447D01*
X164010946Y-92570484D01*
X164002182Y-92574949D01*
X163830213Y-92699890D01*
X163679890Y-92850213D01*
X163554951Y-93022179D01*
X163458444Y-93211585D01*
X163392753Y-93413760D01*
X163391291Y-93422993D01*
X163359500Y-93623713D01*
X163359500Y-93836287D01*
X163365367Y-93873329D01*
X163392753Y-94046239D01*
X163458444Y-94248414D01*
X163554951Y-94437820D01*
X163679890Y-94609786D01*
X163830213Y-94760109D01*
X164002179Y-94885048D01*
X164002181Y-94885049D01*
X164002184Y-94885051D01*
X164191588Y-94981557D01*
X164393757Y-95047246D01*
X164603713Y-95080500D01*
X164603714Y-95080500D01*
X164816286Y-95080500D01*
X164816287Y-95080500D01*
X165026243Y-95047246D01*
X165228412Y-94981557D01*
X165417816Y-94885051D01*
X165475704Y-94842993D01*
X165589786Y-94760109D01*
X165589788Y-94760106D01*
X165589792Y-94760104D01*
X165740104Y-94609792D01*
X165740106Y-94609788D01*
X165740109Y-94609786D01*
X165865048Y-94437820D01*
X165865047Y-94437820D01*
X165865051Y-94437816D01*
X165961557Y-94248412D01*
X166027246Y-94046243D01*
X166060500Y-93836287D01*
X166060500Y-93623713D01*
X166027246Y-93413757D01*
X165961557Y-93211588D01*
X165865051Y-93022184D01*
X165865049Y-93022181D01*
X165865048Y-93022179D01*
X165740109Y-92850213D01*
X165589786Y-92699890D01*
X165417820Y-92574951D01*
X165417115Y-92574591D01*
X165409054Y-92570485D01*
X165358259Y-92522512D01*
X165341463Y-92454692D01*
X165363999Y-92388556D01*
X165409054Y-92349515D01*
X165417816Y-92345051D01*
X165439789Y-92329086D01*
X165589786Y-92220109D01*
X165589788Y-92220106D01*
X165589792Y-92220104D01*
X165740104Y-92069792D01*
X165740106Y-92069788D01*
X165740109Y-92069786D01*
X165865048Y-91897820D01*
X165865047Y-91897820D01*
X165865051Y-91897816D01*
X165961557Y-91708412D01*
X166027246Y-91506243D01*
X166060500Y-91296287D01*
X166060500Y-91083713D01*
X166027246Y-90873757D01*
X165961557Y-90671588D01*
X165865051Y-90482184D01*
X165865049Y-90482181D01*
X165865048Y-90482179D01*
X165740109Y-90310213D01*
X165589786Y-90159890D01*
X165417820Y-90034951D01*
X165417115Y-90034591D01*
X165409054Y-90030485D01*
X165358259Y-89982512D01*
X165341463Y-89914692D01*
X165363999Y-89848556D01*
X165409054Y-89809515D01*
X165417816Y-89805051D01*
X165439789Y-89789086D01*
X165589786Y-89680109D01*
X165589788Y-89680106D01*
X165589792Y-89680104D01*
X165740104Y-89529792D01*
X165740106Y-89529788D01*
X165740109Y-89529786D01*
X165865048Y-89357820D01*
X165865047Y-89357820D01*
X165865051Y-89357816D01*
X165961557Y-89168412D01*
X166027246Y-88966243D01*
X166060500Y-88756287D01*
X166060500Y-88543713D01*
X166027246Y-88333757D01*
X165961557Y-88131588D01*
X165865051Y-87942184D01*
X165865049Y-87942181D01*
X165865048Y-87942179D01*
X165740109Y-87770213D01*
X165626569Y-87656673D01*
X165593084Y-87595350D01*
X165598068Y-87525658D01*
X165639940Y-87469725D01*
X165670915Y-87452810D01*
X165802331Y-87403796D01*
X165917546Y-87317546D01*
X166003796Y-87202331D01*
X166054091Y-87067483D01*
X166060500Y-87007873D01*
X166060499Y-85212135D01*
X167109500Y-85212135D01*
X167109500Y-87007870D01*
X167109501Y-87007876D01*
X167115908Y-87067483D01*
X167166202Y-87202328D01*
X167166206Y-87202335D01*
X167252452Y-87317544D01*
X167252455Y-87317547D01*
X167367664Y-87403793D01*
X167367671Y-87403797D01*
X167499082Y-87452810D01*
X167555016Y-87494681D01*
X167579433Y-87560145D01*
X167564582Y-87628418D01*
X167543431Y-87656673D01*
X167429889Y-87770215D01*
X167304951Y-87942179D01*
X167208444Y-88131585D01*
X167142753Y-88333760D01*
X167141291Y-88342993D01*
X167109500Y-88543713D01*
X167109500Y-88756287D01*
X167115583Y-88794692D01*
X167142735Y-88966127D01*
X167142754Y-88966243D01*
X167179077Y-89078034D01*
X167208444Y-89168414D01*
X167304951Y-89357820D01*
X167429890Y-89529786D01*
X167580213Y-89680109D01*
X167752182Y-89805050D01*
X167760946Y-89809516D01*
X167811742Y-89857491D01*
X167828536Y-89925312D01*
X167805998Y-89991447D01*
X167760946Y-90030484D01*
X167752182Y-90034949D01*
X167580213Y-90159890D01*
X167429890Y-90310213D01*
X167304951Y-90482179D01*
X167208444Y-90671585D01*
X167142753Y-90873760D01*
X167141291Y-90882993D01*
X167109500Y-91083713D01*
X167109500Y-91296287D01*
X167115583Y-91334692D01*
X167142735Y-91506127D01*
X167142754Y-91506243D01*
X167179077Y-91618034D01*
X167208444Y-91708414D01*
X167304951Y-91897820D01*
X167429890Y-92069786D01*
X167580213Y-92220109D01*
X167752182Y-92345050D01*
X167760946Y-92349516D01*
X167811742Y-92397491D01*
X167828536Y-92465312D01*
X167805998Y-92531447D01*
X167760946Y-92570484D01*
X167752182Y-92574949D01*
X167580213Y-92699890D01*
X167429890Y-92850213D01*
X167304951Y-93022179D01*
X167208444Y-93211585D01*
X167142753Y-93413760D01*
X167141291Y-93422993D01*
X167109500Y-93623713D01*
X167109500Y-93836287D01*
X167115367Y-93873329D01*
X167142753Y-94046239D01*
X167208444Y-94248414D01*
X167304951Y-94437820D01*
X167429890Y-94609786D01*
X167580213Y-94760109D01*
X167752179Y-94885048D01*
X167752181Y-94885049D01*
X167752184Y-94885051D01*
X167941588Y-94981557D01*
X168143757Y-95047246D01*
X168353713Y-95080500D01*
X168353714Y-95080500D01*
X168566286Y-95080500D01*
X168566287Y-95080500D01*
X168776243Y-95047246D01*
X168978412Y-94981557D01*
X169167816Y-94885051D01*
X169225704Y-94842993D01*
X169339786Y-94760109D01*
X169339788Y-94760106D01*
X169339792Y-94760104D01*
X169490104Y-94609792D01*
X169490106Y-94609788D01*
X169490109Y-94609786D01*
X169615048Y-94437820D01*
X169615047Y-94437820D01*
X169615051Y-94437816D01*
X169711557Y-94248412D01*
X169777246Y-94046243D01*
X169810500Y-93836287D01*
X169810500Y-93623713D01*
X169777246Y-93413757D01*
X169711557Y-93211588D01*
X169615051Y-93022184D01*
X169615049Y-93022181D01*
X169615048Y-93022179D01*
X169490109Y-92850213D01*
X169339786Y-92699890D01*
X169167820Y-92574951D01*
X169167115Y-92574591D01*
X169159054Y-92570485D01*
X169108259Y-92522512D01*
X169091463Y-92454692D01*
X169113999Y-92388556D01*
X169159054Y-92349515D01*
X169167816Y-92345051D01*
X169189789Y-92329086D01*
X169339786Y-92220109D01*
X169339788Y-92220106D01*
X169339792Y-92220104D01*
X169490104Y-92069792D01*
X169490106Y-92069788D01*
X169490109Y-92069786D01*
X169615048Y-91897820D01*
X169615047Y-91897820D01*
X169615051Y-91897816D01*
X169711557Y-91708412D01*
X169777246Y-91506243D01*
X169810500Y-91296287D01*
X169810500Y-91083713D01*
X169777246Y-90873757D01*
X169711557Y-90671588D01*
X169615051Y-90482184D01*
X169615049Y-90482181D01*
X169615048Y-90482179D01*
X169490109Y-90310213D01*
X169339786Y-90159890D01*
X169167820Y-90034951D01*
X169167115Y-90034591D01*
X169159054Y-90030485D01*
X169108259Y-89982512D01*
X169091463Y-89914692D01*
X169113999Y-89848556D01*
X169159054Y-89809515D01*
X169167816Y-89805051D01*
X169189789Y-89789086D01*
X169339786Y-89680109D01*
X169339788Y-89680106D01*
X169339792Y-89680104D01*
X169490104Y-89529792D01*
X169490106Y-89529788D01*
X169490109Y-89529786D01*
X169615048Y-89357820D01*
X169615047Y-89357820D01*
X169615051Y-89357816D01*
X169711557Y-89168412D01*
X169777246Y-88966243D01*
X169810500Y-88756287D01*
X169810500Y-88543713D01*
X169777246Y-88333757D01*
X169711557Y-88131588D01*
X169615051Y-87942184D01*
X169615049Y-87942181D01*
X169615048Y-87942179D01*
X169490109Y-87770213D01*
X169376569Y-87656673D01*
X169343084Y-87595350D01*
X169348068Y-87525658D01*
X169389940Y-87469725D01*
X169420915Y-87452810D01*
X169552331Y-87403796D01*
X169667546Y-87317546D01*
X169753796Y-87202331D01*
X169804091Y-87067483D01*
X169810500Y-87007873D01*
X169810499Y-86102287D01*
X169810499Y-85212155D01*
X170860000Y-85212155D01*
X170860000Y-85860000D01*
X171776988Y-85860000D01*
X171744075Y-85917007D01*
X171710000Y-86044174D01*
X171710000Y-86175826D01*
X171744075Y-86302993D01*
X171776988Y-86360000D01*
X170860000Y-86360000D01*
X170860000Y-87007844D01*
X170866401Y-87067372D01*
X170866403Y-87067379D01*
X170916645Y-87202086D01*
X170916649Y-87202093D01*
X171002809Y-87317187D01*
X171002812Y-87317190D01*
X171117906Y-87403350D01*
X171117913Y-87403354D01*
X171252620Y-87453596D01*
X171252619Y-87453596D01*
X171335444Y-87462501D01*
X171335116Y-87465550D01*
X171352014Y-87464642D01*
X171411196Y-87497642D01*
X172080591Y-88167037D01*
X172017007Y-88184075D01*
X171902993Y-88249901D01*
X171809901Y-88342993D01*
X171744075Y-88457007D01*
X171727037Y-88520591D01*
X171094728Y-87888282D01*
X171094727Y-87888282D01*
X171055380Y-87942439D01*
X170958904Y-88131782D01*
X170893242Y-88333869D01*
X170893242Y-88333872D01*
X170860000Y-88543753D01*
X170860000Y-88756246D01*
X170893242Y-88966127D01*
X170893242Y-88966130D01*
X170958904Y-89168217D01*
X171055375Y-89357550D01*
X171094728Y-89411716D01*
X171727037Y-88779408D01*
X171744075Y-88842993D01*
X171809901Y-88957007D01*
X171902993Y-89050099D01*
X172017007Y-89115925D01*
X172080591Y-89132962D01*
X171479971Y-89733581D01*
X171558711Y-89850895D01*
X171559920Y-89854729D01*
X171562844Y-89857491D01*
X171570343Y-89887778D01*
X171579727Y-89917529D01*
X171578671Y-89921408D01*
X171579638Y-89925312D01*
X171569573Y-89954844D01*
X171561383Y-89984947D01*
X171558397Y-89987640D01*
X171557100Y-89991447D01*
X171512051Y-90030483D01*
X171502440Y-90035380D01*
X171448282Y-90074727D01*
X171448282Y-90074728D01*
X172080591Y-90707037D01*
X172017007Y-90724075D01*
X171902993Y-90789901D01*
X171809901Y-90882993D01*
X171744075Y-90997007D01*
X171727037Y-91060591D01*
X171094728Y-90428282D01*
X171094727Y-90428282D01*
X171055380Y-90482439D01*
X170958904Y-90671782D01*
X170893242Y-90873869D01*
X170893242Y-90873872D01*
X170860000Y-91083753D01*
X170860000Y-91296246D01*
X170893242Y-91506127D01*
X170893242Y-91506130D01*
X170958904Y-91708217D01*
X171055375Y-91897550D01*
X171094728Y-91951716D01*
X171727037Y-91319408D01*
X171744075Y-91382993D01*
X171809901Y-91497007D01*
X171902993Y-91590099D01*
X172017007Y-91655925D01*
X172080591Y-91672962D01*
X171479971Y-92273581D01*
X171558711Y-92390895D01*
X171559920Y-92394729D01*
X171562844Y-92397491D01*
X171570343Y-92427778D01*
X171579727Y-92457529D01*
X171578671Y-92461408D01*
X171579638Y-92465312D01*
X171569573Y-92494844D01*
X171561383Y-92524947D01*
X171558397Y-92527640D01*
X171557100Y-92531447D01*
X171512051Y-92570483D01*
X171502440Y-92575380D01*
X171448282Y-92614727D01*
X171448282Y-92614728D01*
X172080591Y-93247037D01*
X172017007Y-93264075D01*
X171902993Y-93329901D01*
X171809901Y-93422993D01*
X171744075Y-93537007D01*
X171727037Y-93600591D01*
X171094728Y-92968282D01*
X171094727Y-92968282D01*
X171055380Y-93022439D01*
X170958904Y-93211782D01*
X170893242Y-93413869D01*
X170893242Y-93413872D01*
X170860000Y-93623753D01*
X170860000Y-93836246D01*
X170893242Y-94046127D01*
X170893242Y-94046130D01*
X170958904Y-94248217D01*
X171055375Y-94437550D01*
X171094728Y-94491716D01*
X171727037Y-93859408D01*
X171744075Y-93922993D01*
X171809901Y-94037007D01*
X171902993Y-94130099D01*
X172017007Y-94195925D01*
X172080590Y-94212962D01*
X171448282Y-94845269D01*
X171448282Y-94845270D01*
X171502449Y-94884624D01*
X171691782Y-94981095D01*
X171893870Y-95046757D01*
X172103754Y-95080000D01*
X172316246Y-95080000D01*
X172526127Y-95046757D01*
X172526130Y-95046757D01*
X172728217Y-94981095D01*
X172917554Y-94884622D01*
X172971716Y-94845270D01*
X172971717Y-94845270D01*
X172339408Y-94212962D01*
X172402993Y-94195925D01*
X172517007Y-94130099D01*
X172610099Y-94037007D01*
X172675925Y-93922993D01*
X172692962Y-93859409D01*
X173325270Y-94491717D01*
X173325270Y-94491716D01*
X173364622Y-94437554D01*
X173461095Y-94248217D01*
X173526757Y-94046130D01*
X173526757Y-94046127D01*
X173560000Y-93836246D01*
X173560000Y-93623753D01*
X173526757Y-93413872D01*
X173526757Y-93413869D01*
X173461095Y-93211782D01*
X173364624Y-93022449D01*
X173325270Y-92968282D01*
X173325269Y-92968282D01*
X172692962Y-93600590D01*
X172675925Y-93537007D01*
X172610099Y-93422993D01*
X172517007Y-93329901D01*
X172402993Y-93264075D01*
X172339409Y-93247037D01*
X172971716Y-92614728D01*
X172917550Y-92575375D01*
X172907954Y-92570486D01*
X172857157Y-92522512D01*
X172840361Y-92454692D01*
X172862897Y-92388556D01*
X172907954Y-92349514D01*
X172917554Y-92344622D01*
X172971716Y-92305270D01*
X172971717Y-92305270D01*
X172339408Y-91672962D01*
X172402993Y-91655925D01*
X172517007Y-91590099D01*
X172610099Y-91497007D01*
X172675925Y-91382993D01*
X172692962Y-91319409D01*
X173325270Y-91951717D01*
X173325270Y-91951716D01*
X173364622Y-91897554D01*
X173461095Y-91708217D01*
X173526757Y-91506130D01*
X173526757Y-91506127D01*
X173560000Y-91296246D01*
X173560000Y-91083753D01*
X173526757Y-90873872D01*
X173526757Y-90873869D01*
X173461095Y-90671782D01*
X173364624Y-90482449D01*
X173325270Y-90428282D01*
X173325269Y-90428282D01*
X172692962Y-91060590D01*
X172675925Y-90997007D01*
X172610099Y-90882993D01*
X172517007Y-90789901D01*
X172402993Y-90724075D01*
X172339409Y-90707037D01*
X172971716Y-90074728D01*
X172917550Y-90035375D01*
X172907954Y-90030486D01*
X172857157Y-89982512D01*
X172840361Y-89914692D01*
X172862897Y-89848556D01*
X172907954Y-89809514D01*
X172917554Y-89804622D01*
X172971716Y-89765270D01*
X172971717Y-89765270D01*
X172339408Y-89132962D01*
X172402993Y-89115925D01*
X172517007Y-89050099D01*
X172610099Y-88957007D01*
X172675925Y-88842993D01*
X172692962Y-88779409D01*
X173325270Y-89411717D01*
X173325270Y-89411716D01*
X173364622Y-89357554D01*
X173461095Y-89168217D01*
X173526757Y-88966130D01*
X173526757Y-88966127D01*
X173560000Y-88756246D01*
X173560000Y-88543753D01*
X173526757Y-88333872D01*
X173526757Y-88333869D01*
X173461095Y-88131782D01*
X173364624Y-87942449D01*
X173325270Y-87888282D01*
X173325269Y-87888282D01*
X172692962Y-88520590D01*
X172675925Y-88457007D01*
X172610099Y-88342993D01*
X172517007Y-88249901D01*
X172402993Y-88184075D01*
X172339409Y-88167037D01*
X173008802Y-87497642D01*
X173070125Y-87464157D01*
X173084833Y-87465078D01*
X173084556Y-87462501D01*
X173167375Y-87453598D01*
X173302086Y-87403354D01*
X173302093Y-87403350D01*
X173417187Y-87317190D01*
X173417190Y-87317187D01*
X173503350Y-87202093D01*
X173503354Y-87202086D01*
X173553596Y-87067379D01*
X173553598Y-87067372D01*
X173559999Y-87007844D01*
X173560000Y-87007827D01*
X173560000Y-86360000D01*
X172643012Y-86360000D01*
X172675925Y-86302993D01*
X172710000Y-86175826D01*
X172710000Y-86044174D01*
X172675925Y-85917007D01*
X172643012Y-85860000D01*
X173560000Y-85860000D01*
X173560000Y-85212172D01*
X173559999Y-85212155D01*
X173553598Y-85152627D01*
X173553596Y-85152620D01*
X173503354Y-85017913D01*
X173503350Y-85017906D01*
X173417190Y-84902812D01*
X173417187Y-84902809D01*
X173302093Y-84816649D01*
X173302086Y-84816645D01*
X173167379Y-84766403D01*
X173167372Y-84766401D01*
X173107844Y-84760000D01*
X172460000Y-84760000D01*
X172460000Y-85676988D01*
X172402993Y-85644075D01*
X172275826Y-85610000D01*
X172144174Y-85610000D01*
X172017007Y-85644075D01*
X171960000Y-85676988D01*
X171960000Y-84760000D01*
X171312155Y-84760000D01*
X171252627Y-84766401D01*
X171252620Y-84766403D01*
X171117913Y-84816645D01*
X171117906Y-84816649D01*
X171002812Y-84902809D01*
X171002809Y-84902812D01*
X170916649Y-85017906D01*
X170916645Y-85017913D01*
X170866403Y-85152620D01*
X170866401Y-85152627D01*
X170860000Y-85212155D01*
X169810499Y-85212155D01*
X169810499Y-85212129D01*
X169810498Y-85212123D01*
X169810497Y-85212116D01*
X169804091Y-85152517D01*
X169783118Y-85096286D01*
X169753797Y-85017671D01*
X169753793Y-85017664D01*
X169667547Y-84902455D01*
X169667544Y-84902452D01*
X169552335Y-84816206D01*
X169552328Y-84816202D01*
X169417482Y-84765908D01*
X169417483Y-84765908D01*
X169357883Y-84759501D01*
X169357881Y-84759500D01*
X169357873Y-84759500D01*
X169357864Y-84759500D01*
X167562129Y-84759500D01*
X167562123Y-84759501D01*
X167502516Y-84765908D01*
X167367671Y-84816202D01*
X167367664Y-84816206D01*
X167252455Y-84902452D01*
X167252452Y-84902455D01*
X167166206Y-85017664D01*
X167166202Y-85017671D01*
X167115908Y-85152517D01*
X167109501Y-85212116D01*
X167109501Y-85212123D01*
X167109500Y-85212135D01*
X166060499Y-85212135D01*
X166060499Y-85212128D01*
X166054091Y-85152517D01*
X166033118Y-85096286D01*
X166003797Y-85017671D01*
X166003793Y-85017664D01*
X165917547Y-84902455D01*
X165917544Y-84902452D01*
X165802335Y-84816206D01*
X165802328Y-84816202D01*
X165667482Y-84765908D01*
X165667483Y-84765908D01*
X165607883Y-84759501D01*
X165607881Y-84759500D01*
X165607873Y-84759500D01*
X165607864Y-84759500D01*
X163812129Y-84759500D01*
X163812123Y-84759501D01*
X163752516Y-84765908D01*
X163617671Y-84816202D01*
X163617664Y-84816206D01*
X163502455Y-84902452D01*
X163502452Y-84902455D01*
X163416206Y-85017664D01*
X163416202Y-85017671D01*
X163365908Y-85152517D01*
X163359501Y-85212116D01*
X163359501Y-85212123D01*
X163359500Y-85212135D01*
X156672151Y-85212135D01*
X156690500Y-85096287D01*
X156690500Y-84883713D01*
X156657246Y-84673757D01*
X156591557Y-84471588D01*
X156495051Y-84282184D01*
X156495049Y-84282181D01*
X156495048Y-84282179D01*
X156370109Y-84110213D01*
X156219786Y-83959890D01*
X156047817Y-83834949D01*
X156038504Y-83830204D01*
X155987707Y-83782230D01*
X155970912Y-83714409D01*
X155993449Y-83648274D01*
X156038507Y-83609232D01*
X156047555Y-83604622D01*
X156101716Y-83565270D01*
X156101717Y-83565270D01*
X155469408Y-82932962D01*
X155532993Y-82915925D01*
X155647007Y-82850099D01*
X155740099Y-82757007D01*
X155805925Y-82642993D01*
X155822962Y-82579408D01*
X156455270Y-83211717D01*
X156455270Y-83211716D01*
X156494622Y-83157554D01*
X156591095Y-82968217D01*
X156656757Y-82766130D01*
X156656757Y-82766127D01*
X156690000Y-82556246D01*
X156690000Y-82343753D01*
X156656757Y-82133872D01*
X156656757Y-82133869D01*
X156591095Y-81931782D01*
X156494624Y-81742449D01*
X156455270Y-81688282D01*
X156455269Y-81688282D01*
X155822962Y-82320590D01*
X155805925Y-82257007D01*
X155740099Y-82142993D01*
X155647007Y-82049901D01*
X155532993Y-81984075D01*
X155469409Y-81967037D01*
X156101716Y-81334728D01*
X156047547Y-81295373D01*
X156047547Y-81295372D01*
X156038500Y-81290763D01*
X155987706Y-81242788D01*
X155970912Y-81174966D01*
X155993451Y-81108832D01*
X156038508Y-81069793D01*
X156047816Y-81065051D01*
X156195481Y-80957767D01*
X156219786Y-80940109D01*
X156219788Y-80940106D01*
X156219792Y-80940104D01*
X156370104Y-80789792D01*
X156370106Y-80789788D01*
X156370109Y-80789786D01*
X156495048Y-80617820D01*
X156495047Y-80617820D01*
X156495051Y-80617816D01*
X156591557Y-80428412D01*
X156657246Y-80226243D01*
X156690500Y-80016287D01*
X156690500Y-79803713D01*
X156657246Y-79593757D01*
X156591557Y-79391588D01*
X156495051Y-79202184D01*
X156495049Y-79202181D01*
X156495048Y-79202179D01*
X156370109Y-79030213D01*
X156219786Y-78879890D01*
X156047820Y-78754951D01*
X156047115Y-78754591D01*
X156039054Y-78750485D01*
X155988259Y-78702512D01*
X155971463Y-78634692D01*
X155993999Y-78568556D01*
X156039054Y-78529515D01*
X156047816Y-78525051D01*
X156134138Y-78462335D01*
X156219786Y-78400109D01*
X156219788Y-78400106D01*
X156219792Y-78400104D01*
X156370104Y-78249792D01*
X156370106Y-78249788D01*
X156370109Y-78249786D01*
X156495048Y-78077820D01*
X156495047Y-78077820D01*
X156495051Y-78077816D01*
X156591557Y-77888412D01*
X156657246Y-77686243D01*
X156690500Y-77476287D01*
X156690500Y-77263713D01*
X156657246Y-77053757D01*
X156591557Y-76851588D01*
X156495051Y-76662184D01*
X156495049Y-76662181D01*
X156495048Y-76662179D01*
X156370109Y-76490213D01*
X156219786Y-76339890D01*
X156047820Y-76214951D01*
X155858414Y-76118444D01*
X155858413Y-76118443D01*
X155858412Y-76118443D01*
X155656243Y-76052754D01*
X155656241Y-76052753D01*
X155656240Y-76052753D01*
X155494957Y-76027208D01*
X155446287Y-76019500D01*
X155233713Y-76019500D01*
X155185042Y-76027208D01*
X155023760Y-76052753D01*
X154821585Y-76118444D01*
X154632179Y-76214951D01*
X154460213Y-76339890D01*
X154309890Y-76490213D01*
X154184951Y-76662179D01*
X154088444Y-76851585D01*
X154022753Y-77053760D01*
X154020899Y-77065466D01*
X153989500Y-77263713D01*
X151639877Y-77263713D01*
X151608477Y-77065466D01*
X151604673Y-77053760D01*
X151545218Y-76870776D01*
X151505170Y-76792179D01*
X151452287Y-76688390D01*
X151444556Y-76677749D01*
X151331971Y-76522786D01*
X151187213Y-76378028D01*
X151021613Y-76257715D01*
X151021612Y-76257714D01*
X151021610Y-76257713D01*
X150936855Y-76214528D01*
X150839223Y-76164781D01*
X150644534Y-76101522D01*
X150469995Y-76073878D01*
X150442352Y-76069500D01*
X150237648Y-76069500D01*
X150213329Y-76073351D01*
X150035465Y-76101522D01*
X149840776Y-76164781D01*
X149658386Y-76257715D01*
X149492786Y-76378028D01*
X149348028Y-76522786D01*
X149227715Y-76688386D01*
X149134781Y-76870776D01*
X149071522Y-77065465D01*
X149039500Y-77267648D01*
X149039500Y-77472351D01*
X149071522Y-77674534D01*
X149134781Y-77869223D01*
X149198691Y-77994653D01*
X149214976Y-78026613D01*
X149227715Y-78051613D01*
X149348028Y-78217213D01*
X149492786Y-78361971D01*
X149630928Y-78462335D01*
X149658390Y-78482287D01*
X149742313Y-78525048D01*
X149751080Y-78529515D01*
X149801876Y-78577490D01*
X149818671Y-78645311D01*
X149796134Y-78711446D01*
X149751080Y-78750485D01*
X149658386Y-78797715D01*
X149492786Y-78918028D01*
X149348028Y-79062786D01*
X149227715Y-79228386D01*
X149134781Y-79410776D01*
X149071522Y-79605465D01*
X149039500Y-79807648D01*
X149039500Y-80012351D01*
X149071522Y-80214534D01*
X149134781Y-80409223D01*
X149227715Y-80591613D01*
X149348028Y-80757213D01*
X149492782Y-80901967D01*
X149492787Y-80901971D01*
X149569583Y-80957767D01*
X149612249Y-81013097D01*
X149618228Y-81082710D01*
X149585622Y-81144505D01*
X149527365Y-81178233D01*
X149506973Y-81183437D01*
X149506962Y-81183441D01*
X149450415Y-81206863D01*
X150210589Y-81967037D01*
X150147007Y-81984075D01*
X150032993Y-82049901D01*
X149939901Y-82142993D01*
X149874075Y-82257007D01*
X149857037Y-82320589D01*
X149096863Y-81560415D01*
X149096862Y-81560415D01*
X149073446Y-81616947D01*
X149073431Y-81616987D01*
X149055457Y-81667939D01*
X149055455Y-81667946D01*
X149035000Y-81810219D01*
X133865000Y-81810219D01*
X133865000Y-81810214D01*
X133862106Y-81756237D01*
X133862106Y-81756235D01*
X133826561Y-81616969D01*
X133826559Y-81616962D01*
X133803135Y-81560414D01*
X133042962Y-82320588D01*
X133025925Y-82257007D01*
X132960099Y-82142993D01*
X132867007Y-82049901D01*
X132752993Y-81984075D01*
X132689410Y-81967037D01*
X133449584Y-81206862D01*
X133393059Y-81183449D01*
X133393048Y-81183445D01*
X133364374Y-81173329D01*
X133307703Y-81132462D01*
X133282122Y-81067443D01*
X133295754Y-80998916D01*
X133332745Y-80956074D01*
X133407215Y-80901969D01*
X133407215Y-80901968D01*
X133407219Y-80901966D01*
X133551966Y-80757219D01*
X133551968Y-80757215D01*
X133551971Y-80757213D01*
X133649834Y-80622514D01*
X133672287Y-80591610D01*
X133750817Y-80437486D01*
X137849500Y-80437486D01*
X137849500Y-80622513D01*
X137878445Y-80805265D01*
X137935619Y-80981232D01*
X137935620Y-80981235D01*
X137987325Y-81082710D01*
X138019622Y-81146096D01*
X138128379Y-81295787D01*
X138259213Y-81426621D01*
X138408904Y-81535378D01*
X138458040Y-81560414D01*
X138573764Y-81619379D01*
X138573767Y-81619380D01*
X138661750Y-81647967D01*
X138749736Y-81676555D01*
X138932486Y-81705500D01*
X138932487Y-81705500D01*
X139117513Y-81705500D01*
X139117514Y-81705500D01*
X139300264Y-81676555D01*
X139476235Y-81619379D01*
X139641096Y-81535378D01*
X139790787Y-81426621D01*
X139921621Y-81295787D01*
X140030378Y-81146096D01*
X140114379Y-80981235D01*
X140171555Y-80805264D01*
X140200500Y-80622514D01*
X140200500Y-80437486D01*
X142699500Y-80437486D01*
X142699500Y-80622513D01*
X142728445Y-80805265D01*
X142785619Y-80981232D01*
X142785620Y-80981235D01*
X142837325Y-81082710D01*
X142869622Y-81146096D01*
X142978379Y-81295787D01*
X143109213Y-81426621D01*
X143258904Y-81535378D01*
X143308040Y-81560414D01*
X143423764Y-81619379D01*
X143423767Y-81619380D01*
X143511750Y-81647967D01*
X143599736Y-81676555D01*
X143782486Y-81705500D01*
X143782487Y-81705500D01*
X143967513Y-81705500D01*
X143967514Y-81705500D01*
X144040660Y-81693914D01*
X144107578Y-81683316D01*
X144113847Y-81682322D01*
X144150264Y-81676555D01*
X144326235Y-81619379D01*
X144491096Y-81535378D01*
X144640787Y-81426621D01*
X144771621Y-81295787D01*
X144880378Y-81146096D01*
X144964379Y-80981235D01*
X145021555Y-80805264D01*
X145050500Y-80622514D01*
X145050500Y-80437486D01*
X145021555Y-80254736D01*
X144964379Y-80078765D01*
X144964379Y-80078764D01*
X144880377Y-79913903D01*
X144771621Y-79764213D01*
X144640787Y-79633379D01*
X144491096Y-79524622D01*
X144326235Y-79440620D01*
X144326232Y-79440619D01*
X144150265Y-79383445D01*
X144058889Y-79368972D01*
X143967514Y-79354500D01*
X143782486Y-79354500D01*
X143721569Y-79364148D01*
X143599734Y-79383445D01*
X143423767Y-79440619D01*
X143423764Y-79440620D01*
X143258903Y-79524622D01*
X143173499Y-79586672D01*
X143109213Y-79633379D01*
X143109211Y-79633381D01*
X143109210Y-79633381D01*
X142978381Y-79764210D01*
X142978381Y-79764211D01*
X142978379Y-79764213D01*
X142949681Y-79803713D01*
X142869622Y-79913903D01*
X142785620Y-80078764D01*
X142785619Y-80078767D01*
X142728445Y-80254734D01*
X142699500Y-80437486D01*
X140200500Y-80437486D01*
X140171555Y-80254736D01*
X140114379Y-80078765D01*
X140114379Y-80078764D01*
X140030377Y-79913903D01*
X139921621Y-79764213D01*
X139790787Y-79633379D01*
X139641096Y-79524622D01*
X139476235Y-79440620D01*
X139476232Y-79440619D01*
X139300265Y-79383445D01*
X139208889Y-79368972D01*
X139117514Y-79354500D01*
X138932486Y-79354500D01*
X138871569Y-79364148D01*
X138749734Y-79383445D01*
X138573767Y-79440619D01*
X138573764Y-79440620D01*
X138408903Y-79524622D01*
X138323499Y-79586672D01*
X138259213Y-79633379D01*
X138259211Y-79633381D01*
X138259210Y-79633381D01*
X138128381Y-79764210D01*
X138128381Y-79764211D01*
X138128379Y-79764213D01*
X138099681Y-79803713D01*
X138019622Y-79913903D01*
X137935620Y-80078764D01*
X137935619Y-80078767D01*
X137878445Y-80254734D01*
X137849500Y-80437486D01*
X133750817Y-80437486D01*
X133765220Y-80409219D01*
X133815415Y-80254736D01*
X133828476Y-80214538D01*
X133828476Y-80214537D01*
X133828477Y-80214534D01*
X133860500Y-80012352D01*
X133860500Y-79807648D01*
X133853620Y-79764210D01*
X133828477Y-79605465D01*
X133799127Y-79515137D01*
X133765220Y-79410781D01*
X133765218Y-79410778D01*
X133765218Y-79410776D01*
X133731503Y-79344607D01*
X133672287Y-79228390D01*
X133664556Y-79217749D01*
X133551971Y-79062786D01*
X133407217Y-78918032D01*
X133407212Y-78918028D01*
X133326440Y-78859344D01*
X133283774Y-78804015D01*
X133277795Y-78734401D01*
X133310400Y-78672606D01*
X133362433Y-78640641D01*
X133449606Y-78613478D01*
X133595185Y-78525472D01*
X133715472Y-78405185D01*
X133803478Y-78259606D01*
X133854086Y-78097196D01*
X133860500Y-78026616D01*
X133860500Y-77393713D01*
X137374500Y-77393713D01*
X137374500Y-77606287D01*
X137407754Y-77816243D01*
X137431203Y-77888412D01*
X137473444Y-78018414D01*
X137569951Y-78207820D01*
X137694890Y-78379786D01*
X137845213Y-78530109D01*
X138017179Y-78655048D01*
X138017181Y-78655049D01*
X138017184Y-78655051D01*
X138206588Y-78751557D01*
X138408757Y-78817246D01*
X138618713Y-78850500D01*
X138618714Y-78850500D01*
X138831286Y-78850500D01*
X138831287Y-78850500D01*
X139041243Y-78817246D01*
X139243412Y-78751557D01*
X139432816Y-78655051D01*
X139539492Y-78577547D01*
X139604786Y-78530109D01*
X139604788Y-78530106D01*
X139604792Y-78530104D01*
X139755104Y-78379792D01*
X139755106Y-78379788D01*
X139755109Y-78379786D01*
X139880048Y-78207820D01*
X139880047Y-78207820D01*
X139880051Y-78207816D01*
X139976557Y-78018412D01*
X140042246Y-77816243D01*
X140075500Y-77606287D01*
X140075500Y-77393713D01*
X142824500Y-77393713D01*
X142824500Y-77606287D01*
X142857754Y-77816243D01*
X142881203Y-77888412D01*
X142923444Y-78018414D01*
X143019951Y-78207820D01*
X143144890Y-78379786D01*
X143295213Y-78530109D01*
X143467179Y-78655048D01*
X143467181Y-78655049D01*
X143467184Y-78655051D01*
X143656588Y-78751557D01*
X143858757Y-78817246D01*
X144068713Y-78850500D01*
X144068714Y-78850500D01*
X144281286Y-78850500D01*
X144281287Y-78850500D01*
X144491243Y-78817246D01*
X144693412Y-78751557D01*
X144882816Y-78655051D01*
X144989492Y-78577547D01*
X145054786Y-78530109D01*
X145054788Y-78530106D01*
X145054792Y-78530104D01*
X145205104Y-78379792D01*
X145205106Y-78379788D01*
X145205109Y-78379786D01*
X145330048Y-78207820D01*
X145330047Y-78207820D01*
X145330051Y-78207816D01*
X145426557Y-78018412D01*
X145492246Y-77816243D01*
X145525500Y-77606287D01*
X145525500Y-77393713D01*
X145492246Y-77183757D01*
X145426557Y-76981588D01*
X145330051Y-76792184D01*
X145330049Y-76792181D01*
X145330048Y-76792179D01*
X145205109Y-76620213D01*
X145054786Y-76469890D01*
X144882820Y-76344951D01*
X144693414Y-76248444D01*
X144693413Y-76248443D01*
X144693412Y-76248443D01*
X144491243Y-76182754D01*
X144491241Y-76182753D01*
X144491240Y-76182753D01*
X144329957Y-76157208D01*
X144281287Y-76149500D01*
X144068713Y-76149500D01*
X144020042Y-76157208D01*
X143858760Y-76182753D01*
X143656585Y-76248444D01*
X143467179Y-76344951D01*
X143295213Y-76469890D01*
X143144890Y-76620213D01*
X143019951Y-76792179D01*
X142923444Y-76981585D01*
X142857753Y-77183760D01*
X142845090Y-77263713D01*
X142824500Y-77393713D01*
X140075500Y-77393713D01*
X140042246Y-77183757D01*
X139976557Y-76981588D01*
X139880051Y-76792184D01*
X139880049Y-76792181D01*
X139880048Y-76792179D01*
X139755109Y-76620213D01*
X139604786Y-76469890D01*
X139432820Y-76344951D01*
X139243414Y-76248444D01*
X139243413Y-76248443D01*
X139243412Y-76248443D01*
X139041243Y-76182754D01*
X139041241Y-76182753D01*
X139041240Y-76182753D01*
X138879957Y-76157208D01*
X138831287Y-76149500D01*
X138618713Y-76149500D01*
X138570042Y-76157208D01*
X138408760Y-76182753D01*
X138206585Y-76248444D01*
X138017179Y-76344951D01*
X137845213Y-76469890D01*
X137694890Y-76620213D01*
X137569951Y-76792179D01*
X137473444Y-76981585D01*
X137407753Y-77183760D01*
X137395090Y-77263713D01*
X137374500Y-77393713D01*
X133860500Y-77393713D01*
X133860500Y-76713384D01*
X133854086Y-76642804D01*
X133803478Y-76480394D01*
X133715472Y-76334815D01*
X133715470Y-76334813D01*
X133715469Y-76334811D01*
X133595188Y-76214530D01*
X133542624Y-76182754D01*
X133449606Y-76126522D01*
X133287196Y-76075914D01*
X133287194Y-76075913D01*
X133287192Y-76075913D01*
X133237778Y-76071423D01*
X133216616Y-76069500D01*
X131903384Y-76069500D01*
X131884145Y-76071248D01*
X131832807Y-76075913D01*
X131670393Y-76126522D01*
X131524811Y-76214530D01*
X131404530Y-76334811D01*
X131316522Y-76480393D01*
X131265913Y-76642807D01*
X131259500Y-76713386D01*
X131259500Y-78026613D01*
X131265913Y-78097192D01*
X131265913Y-78097194D01*
X131265914Y-78097196D01*
X131316522Y-78259606D01*
X131401459Y-78400109D01*
X131404530Y-78405188D01*
X131524811Y-78525469D01*
X131524813Y-78525470D01*
X131524815Y-78525472D01*
X131670394Y-78613478D01*
X131757566Y-78640641D01*
X131815712Y-78679378D01*
X131843686Y-78743403D01*
X131832605Y-78812388D01*
X131793560Y-78859344D01*
X131712782Y-78918032D01*
X131568028Y-79062786D01*
X131447715Y-79228386D01*
X131354781Y-79410776D01*
X131291522Y-79605465D01*
X131259500Y-79807648D01*
X131259500Y-80012351D01*
X131291522Y-80214534D01*
X131354781Y-80409223D01*
X131447715Y-80591613D01*
X131568028Y-80757213D01*
X131712786Y-80901971D01*
X131878388Y-81022286D01*
X131878390Y-81022287D01*
X131964294Y-81066057D01*
X132015090Y-81114031D01*
X132031886Y-81181852D01*
X132009349Y-81247987D01*
X131966455Y-81285899D01*
X131900497Y-81321155D01*
X131831086Y-81367534D01*
X131831085Y-81367534D01*
X132430589Y-81967037D01*
X132367007Y-81984075D01*
X132252993Y-82049901D01*
X132159901Y-82142993D01*
X132094075Y-82257007D01*
X132077037Y-82320588D01*
X131477534Y-81721085D01*
X131477534Y-81721086D01*
X131431158Y-81790493D01*
X131384490Y-81877801D01*
X131324185Y-82023387D01*
X131295444Y-82118135D01*
X131264701Y-82272697D01*
X131264701Y-82272700D01*
X131255000Y-82371210D01*
X128600000Y-82371210D01*
X128600000Y-82343753D01*
X128566757Y-82133872D01*
X128566757Y-82133869D01*
X128501095Y-81931782D01*
X128404624Y-81742449D01*
X128365270Y-81688282D01*
X128365269Y-81688282D01*
X127732962Y-82320590D01*
X127715925Y-82257007D01*
X127650099Y-82142993D01*
X127557007Y-82049901D01*
X127442993Y-81984075D01*
X127379409Y-81967037D01*
X128011716Y-81334728D01*
X127957547Y-81295373D01*
X127957547Y-81295372D01*
X127948500Y-81290763D01*
X127897706Y-81242788D01*
X127880912Y-81174966D01*
X127903451Y-81108832D01*
X127948508Y-81069793D01*
X127957816Y-81065051D01*
X128105481Y-80957767D01*
X128129786Y-80940109D01*
X128129788Y-80940106D01*
X128129792Y-80940104D01*
X128280104Y-80789792D01*
X128280106Y-80789788D01*
X128280109Y-80789786D01*
X128405048Y-80617820D01*
X128405047Y-80617820D01*
X128405051Y-80617816D01*
X128501557Y-80428412D01*
X128567246Y-80226243D01*
X128600500Y-80016287D01*
X128600500Y-79803713D01*
X128567246Y-79593757D01*
X128501557Y-79391588D01*
X128405051Y-79202184D01*
X128405049Y-79202181D01*
X128405048Y-79202179D01*
X128280109Y-79030213D01*
X128166569Y-78916673D01*
X128133084Y-78855350D01*
X128138068Y-78785658D01*
X128179940Y-78729725D01*
X128210915Y-78712810D01*
X128342331Y-78663796D01*
X128457546Y-78577546D01*
X128543796Y-78462331D01*
X128594091Y-78327483D01*
X128600500Y-78267873D01*
X128600499Y-76472128D01*
X128594091Y-76412517D01*
X128581227Y-76378028D01*
X128543797Y-76277671D01*
X128543793Y-76277664D01*
X128457547Y-76162455D01*
X128457544Y-76162452D01*
X128342335Y-76076206D01*
X128342328Y-76076202D01*
X128207482Y-76025908D01*
X128207483Y-76025908D01*
X128147883Y-76019501D01*
X128147881Y-76019500D01*
X128147873Y-76019500D01*
X128147864Y-76019500D01*
X126352129Y-76019500D01*
X126352123Y-76019501D01*
X126292516Y-76025908D01*
X126157671Y-76076202D01*
X126157664Y-76076206D01*
X126042455Y-76162452D01*
X126042452Y-76162455D01*
X125956206Y-76277664D01*
X125956202Y-76277671D01*
X125905908Y-76412517D01*
X125899740Y-76469896D01*
X125899501Y-76472123D01*
X125899500Y-76472135D01*
X121500500Y-76472135D01*
X121500500Y-74624500D01*
X121520185Y-74557461D01*
X121572989Y-74511706D01*
X121624500Y-74500500D01*
X174375500Y-74500500D01*
X174442539Y-74520185D01*
G37*
G04 #@! TD.AperFunction*
M02*
